<?xml version="1.0" encoding="utf-8" standalone="no"?>
<!DOCTYPE svg PUBLIC "-//W3C//DTD SVG 1.1//EN"
  "http://www.w3.org/Graphics/SVG/1.1/DTD/svg11.dtd">
<svg xmlns:xlink="http://www.w3.org/1999/xlink" width="216pt" height="144pt" viewBox="0 0 216 144" xmlns="http://www.w3.org/2000/svg" version="1.1">
 <metadata>
  <rdf:RDF xmlns:dc="http://purl.org/dc/elements/1.1/" xmlns:cc="http://creativecommons.org/ns#" xmlns:rdf="http://www.w3.org/1999/02/22-rdf-syntax-ns#">
   <cc:Work>
    <dc:type rdf:resource="http://purl.org/dc/dcmitype/StillImage"/>
    <dc:date>2023-04-11T13:58:33.766029</dc:date>
    <dc:format>image/svg+xml</dc:format>
    <dc:creator>
     <cc:Agent>
      <dc:title>Matplotlib v3.7.0, https://matplotlib.org/</dc:title>
     </cc:Agent>
    </dc:creator>
   </cc:Work>
  </rdf:RDF>
 </metadata>
 <defs>
  <style type="text/css">*{stroke-linejoin: round; stroke-linecap: butt}</style>
 </defs>
 <g id="figure_1">
  <g id="patch_1">
   <path d="M 0 144 
L 216 144 
L 216 0 
L 0 0 
L 0 144 
z
" style="fill: none"/>
  </g>
  <g id="axes_1">
   <g id="patch_2">
    <path d="M 27 128.16 
L 194.4 128.16 
L 194.4 17.28 
L 27 17.28 
L 27 128.16 
z
" style="fill: none"/>
   </g>
   <g id="line2d_1">
    <path d="M 34.609091 71.287325 
L 34.659835 64.872802 
L 34.710579 73.871638 
L 34.761323 61.683341 
L 34.812068 66.353634 
L 34.862812 81.845291 
L 34.913556 71.25173 
L 35.015044 61.911165 
L 35.116533 80.25056 
L 35.167277 63.391984 
L 35.218021 64.417167 
L 35.31951 76.605464 
L 35.370254 73.643827 
L 35.420998 72.618644 
L 35.471742 77.175011 
L 35.522486 77.061099 
L 35.674719 65.328451 
L 35.725463 68.745723 
L 35.776207 66.923181 
L 35.826951 73.98555 
L 35.877696 66.581445 
L 35.92844 73.188191 
L 36.029928 80.136661 
L 36.131417 73.30209 
L 36.182161 76.035916 
L 36.232905 85.376526 
L 36.283649 84.579065 
L 36.334393 67.492716 
L 36.385137 82.187027 
L 36.435882 78.65583 
L 36.486626 63.961531 
L 36.53737 73.30209 
L 36.638858 75.124645 
L 36.841835 63.05026 
L 36.994068 78.769742 
L 37.095556 62.13899 
L 37.1463 75.694193 
L 37.197044 66.125809 
L 37.247789 61.797253 
L 37.298533 65.556262 
L 37.50151 78.883654 
L 37.552254 67.03708 
L 37.602998 80.592296 
L 37.653742 79.908837 
L 37.704486 66.695357 
L 37.805975 68.062263 
L 37.856719 82.756574 
L 37.907463 76.9472 
L 38.059696 71.13782 
L 38.11044 71.707366 
L 38.161184 71.707366 
L 38.211928 72.276907 
L 38.262672 70.568273 
L 38.414905 57.354824 
L 38.567138 73.643827 
L 38.668626 74.099462 
L 38.770114 61.911165 
L 38.871603 73.529915 
L 38.922347 71.593457 
L 38.973091 64.417167 
L 39.023835 70.796092 
L 39.074579 72.504732 
L 39.125324 67.702739 
L 39.176068 70.81033 
L 39.3283 88.651402 
L 39.480533 68.347044 
L 39.582021 73.458723 
L 39.68351 73.444487 
L 39.734254 67.855806 
L 39.784998 72.348112 
L 39.835742 70.682182 
L 39.886486 48.170807 
L 39.937231 69.735311 
L 39.987975 72.397937 
L 40.038719 70.902882 
L 40.089463 70.425886 
L 40.140207 66.41059 
L 40.190952 68.688767 
L 40.29244 71.878231 
L 40.343184 69.429183 
L 40.393928 74.327286 
L 40.444672 69.144402 
L 40.546161 68.802679 
L 40.596905 73.472959 
L 40.647649 67.606628 
L 40.698393 71.365638 
L 40.749138 72.447776 
L 40.799882 71.821276 
L 40.952114 63.73372 
L 41.053603 74.441186 
L 41.104347 70.739137 
L 41.205835 70.910001 
L 41.256579 69.656999 
L 41.307324 70.2835 
L 41.358068 78.598874 
L 41.408812 71.536502 
L 41.459556 73.700783 
L 41.662533 43.685631 
L 41.764021 78.371062 
L 41.814766 71.25173 
L 41.86551 65.328451 
L 41.966998 79.225377 
L 42.017742 74.384229 
L 42.119231 65.100626 
L 42.220719 78.200194 
L 42.271463 71.650412 
L 42.372952 72.276907 
L 42.423696 89.989824 
L 42.47444 73.928594 
L 42.525184 76.206784 
L 42.677417 69.884817 
L 42.728161 75.409412 
L 42.880393 49.153334 
L 43.032626 79.396245 
L 43.184859 63.562852 
L 43.235603 70.39741 
L 43.286347 64.018487 
L 43.43858 71.479547 
L 43.489324 71.935185 
L 43.590812 73.416003 
L 43.641556 59.803843 
L 43.6923 75.580281 
L 43.743045 65.841042 
L 43.895277 74.156418 
L 43.946021 66.980124 
L 43.996766 69.144402 
L 44.04751 81.645951 
L 44.098254 73.131235 
L 44.148998 78.200194 
L 44.199742 40.610185 
L 44.250487 65.72713 
L 44.402719 83.240681 
L 44.453463 59.46212 
L 44.504207 70.71066 
L 44.554952 64.815859 
L 44.605696 73.957078 
L 44.707184 31.554291 
L 44.757928 89.818995 
L 44.808673 76.833288 
L 44.859417 65.385394 
L 44.910161 79.766453 
L 44.960905 66.923181 
L 45.113138 79.937308 
L 45.163882 74.868349 
L 45.214626 77.858471 
L 45.26537 82.52875 
L 45.316114 72.647115 
L 45.366859 78.65583 
L 45.417603 87.31298 
L 45.519091 62.423757 
L 45.569835 81.475083 
L 45.62058 67.834452 
L 45.772812 62.879392 
L 45.823556 71.764321 
L 45.874301 64.616507 
L 46.077277 77.77303 
L 46.22951 62.053549 
L 46.280254 48.042685 
L 46.330998 82.386367 
L 46.381742 69.457654 
L 46.432487 67.179477 
L 46.483231 75.580281 
L 46.533975 49.494993 
L 46.584719 79.965793 
L 46.635463 79.851881 
L 46.686208 57.497182 
L 46.736952 71.707366 
L 46.787696 70.71066 
L 46.83844 71.536502 
L 46.939928 41.806121 
L 47.092161 78.769742 
L 47.193649 54.592437 
L 47.345882 82.671134 
L 47.44737 56.89915 
L 47.548859 90.417027 
L 47.650347 58.636277 
L 47.701091 70.226545 
L 47.751835 81.446611 
L 47.80258 80.307516 
L 47.853324 62.594625 
L 47.904068 66.182765 
L 47.954812 78.371062 
L 48.005556 49.43805 
L 48.056301 79.168421 
L 48.107045 63.192644 
L 48.157789 64.559563 
L 48.259277 81.247271 
L 48.41151 41.350575 
L 48.462254 57.240937 
L 48.614487 80.022749 
L 48.766719 58.550836 
L 48.817463 61.569442 
L 48.868208 75.494853 
L 48.918952 58.379981 
L 48.969696 63.2496 
L 49.071184 73.529915 
L 49.172673 53.068949 
L 49.223417 59.291252 
L 49.274161 69.600038 
L 49.324905 50.605642 
L 49.375649 63.719471 
L 49.426394 59.034956 
L 49.477138 71.152058 
L 49.527882 65.314202 
L 49.62937 51.616641 
L 49.781603 101.323832 
L 49.883091 60.900218 
L 49.933836 86.430104 
L 49.98458 70.952717 
L 50.035324 68.717251 
L 50.086068 85.219804 
L 50.136812 72.775263 
L 50.187556 55.41837 
L 50.238301 74.968026 
L 50.289045 86.843071 
L 50.390533 88.010663 
L 50.441277 70.326216 
L 50.492022 86.330453 
L 50.542766 79.908837 
L 50.59351 58.678984 
L 50.644254 59.576019 
L 50.796487 95.799186 
L 50.897975 86.771892 
L 50.948719 88.138785 
L 50.999463 87.597696 
L 51.050208 51.118259 
L 51.100952 72.134526 
L 51.20244 84.237406 
L 51.303929 65.869514 
L 51.354673 82.187027 
L 51.405417 67.56392 
L 51.456161 65.68441 
L 51.506905 89.249434 
L 51.659138 49.309928 
L 51.862115 95.870365 
L 51.912859 46.391075 
L 51.963603 96.083902 
L 52.014347 51.716291 
L 52.115836 64.146635 
L 52.16658 55.660378 
L 52.369557 97.792583 
L 52.471045 60.786306 
L 52.521789 113.269979 
L 52.572533 88.551752 
L 52.674022 46.932036 
L 52.77551 66.382105 
L 52.826254 55.019639 
L 52.978487 83.795968 
L 53.130719 63.2496 
L 53.232208 61.184998 
L 53.333696 94.489236 
L 53.485929 42.048258 
L 53.536673 81.859539 
L 53.587417 67.207948 
L 53.638161 68.560619 
L 53.688905 87.33427 
L 53.73965 71.372757 
L 53.790394 75.950488 
L 53.841138 47.323713 
L 53.891882 62.793965 
L 53.942626 58.109437 
L 54.044115 80.41431 
L 54.094859 76.228138 
L 54.247091 43.479276 
L 54.297836 64.303268 
L 54.34858 41.165381 
L 54.399324 63.740838 
L 54.450068 69.486139 
L 54.500812 50.926012 
L 54.551557 77.360115 
L 54.602301 53.26825 
L 54.703789 77.580808 
L 54.754533 66.766549 
L 54.856022 81.197433 
L 54.906766 67.150992 
L 54.95751 95.307987 
L 55.008254 74.797158 
L 55.058998 80.05122 
L 55.109743 61.733179 
L 55.211231 65.193172 
L 55.261975 57.482946 
L 55.312719 85.604299 
L 55.363464 40.830776 
L 55.414208 94.432292 
L 55.464952 41.364811 
L 55.56644 62.537669 
L 55.617185 95.307987 
L 55.667929 67.727658 
L 55.769417 49.331346 
L 55.870905 106.029726 
L 55.92165 44.760755 
L 55.972394 96.660644 
L 56.175371 67.072683 
L 56.276859 66.431943 
L 56.327603 99.736219 
L 56.429092 70.126874 
L 56.479836 86.038555 
L 56.53058 43.95624 
L 56.581324 90.27454 
L 56.733557 41.208089 
L 56.784301 70.133993 
L 56.835045 65.292848 
L 56.885789 56.208521 
L 56.936533 109.795802 
L 56.987278 49.103444 
L 57.038022 38.944211 
L 57.088766 59.433636 
L 57.13951 49.851017 
L 57.291743 69.201358 
L 57.342487 95.336458 
L 57.443975 51.282035 
L 57.494719 101.622784 
L 57.545464 49.153334 
L 57.596208 91.897807 
L 57.646952 67.613746 
L 57.697696 72.177241 
L 57.74844 114.921717 
L 57.799185 49.238749 
L 57.849929 64.488359 
L 57.951417 91.235649 
L 58.002161 53.681217 
L 58.052906 94.179511 
L 58.154394 53.125892 
L 58.205138 101.978807 
L 58.255882 88.743871 
L 58.408115 58.476092 
L 58.458859 69.425617 
L 58.509603 45.066889 
L 58.560347 69.023372 
L 58.611092 88.071197 
L 58.661836 56.845797 
L 58.71258 91.694914 
L 58.966301 40.101031 
L 59.067789 109.461196 
L 59.118533 75.811657 
L 59.220022 76.345615 
L 59.270766 84.287167 
L 59.422999 67.232868 
L 59.524487 84.383355 
L 59.67672 57.842432 
L 59.828952 81.147595 
L 59.879696 58.130803 
L 59.93044 76.188983 
L 59.981185 76.559191 
L 60.031929 85.259049 
L 60.133417 53.254015 
L 60.184161 58.586439 
L 60.234906 69.194241 
L 60.28565 48.75114 
L 60.336394 54.354019 
L 60.387138 92.563427 
L 60.437882 71.041709 
L 60.488627 70.927799 
L 60.539371 61.726061 
L 60.590115 72.490496 
L 60.691603 66.773667 
L 60.742347 101.14582 
L 60.793092 67.560355 
L 60.843836 72.56524 
L 60.996068 46.885866 
L 61.046813 54.685033 
L 61.148301 53.157955 
L 61.199045 107.581685 
L 61.249789 68.485875 
L 61.300534 74.893268 
L 61.351278 77.335196 
L 61.402022 55.290247 
L 61.452766 73.871638 
L 61.50351 79.23606 
L 61.604999 52.374858 
L 61.655743 52.552741 
L 61.706487 63.011106 
L 61.757231 102.391645 
L 61.807975 54.321956 
L 61.85872 64.648544 
L 61.909464 67.268457 
L 61.960208 82.243983 
L 62.010952 54.489323 
L 62.061696 94.225809 
L 62.112441 75.498405 
L 62.163185 86.679295 
L 62.264673 55.176233 
L 62.315417 58.305224 
L 62.46765 71.691348 
L 62.416906 58.084569 
L 62.518394 71.114682 
L 62.670627 46.380302 
L 62.721371 78.675413 
L 62.772115 64.595153 
L 62.822859 72.125627 
L 62.873603 50.014792 
L 63.025836 100.369776 
L 63.178068 62.644463 
L 63.228813 88.411061 
L 63.279557 65.194955 
L 63.381045 43.299469 
L 63.431789 67.044198 
L 63.482534 53.090367 
L 63.533278 55.231509 
L 63.584022 92.02952 
L 63.634766 66.29846 
L 63.68551 53.353793 
L 63.736255 63.365295 
L 63.786999 63.726589 
L 63.888487 45.969259 
L 63.989975 101.743852 
L 64.091464 91.340686 
L 64.192952 59.778924 
L 64.243696 61.816837 
L 64.294441 54.060325 
L 64.345185 58.903243 
L 64.395929 91.762502 
L 64.446673 45.85704 
L 64.497417 68.126337 
L 64.598906 77.614628 
L 64.64965 94.359318 
L 64.700394 87.510486 
L 64.751138 35.640864 
L 64.801882 66.081319 
L 64.852627 48.174398 
L 64.903371 64.908405 
L 64.954115 81.243706 
L 65.004859 48.201074 
L 65.055603 93.820025 
L 65.106348 65.638137 
L 65.207836 89.811813 
L 65.25858 50.942043 
L 65.309324 87.245264 
L 65.410813 62.39172 
L 65.512301 66.010128 
L 65.563045 82.357882 
L 65.613789 52.405125 
L 65.664534 83.813794 
L 65.816766 62.048214 
L 65.918255 92.78235 
L 65.968999 64.271231 
L 66.019743 81.129807 
L 66.070487 83.372395 
L 66.171976 71.915607 
L 66.22272 98.807044 
L 66.273464 53.028037 
L 66.324208 77.890508 
L 66.425696 106.152462 
L 66.527185 73.565517 
L 66.577929 91.297979 
L 66.628673 80.545126 
L 66.730162 51.951246 
L 66.882394 80.905548 
L 66.983883 86.291337 
L 67.034627 93.713192 
L 67.136115 67.628879 
L 67.186859 68.543716 
L 67.237603 67.664482 
L 67.389836 85.867726 
L 67.44058 55.761824 
L 67.491324 70.187389 
L 67.542069 93.162356 
L 67.592813 83.351926 
L 67.694301 52.931849 
L 67.846534 87.221281 
L 67.897278 89.974691 
L 68.100255 59.180007 
L 68.201743 90.947342 
L 68.252487 43.538015 
L 68.303231 73.634041 
L 68.353976 78.675413 
L 68.506208 46.564598 
L 68.556952 68.848952 
L 68.607697 41.508964 
L 68.658441 93.336777 
L 68.709185 77.536318 
L 68.759929 66.755866 
L 68.810673 97.732947 
L 68.861417 50.934092 
L 68.912162 68.812465 
L 68.962906 109.319736 
L 69.01365 90.521935 
L 69.064394 46.585888 
L 69.115138 64.138632 
L 69.165883 59.647224 
L 69.216627 61.467983 
L 69.267371 80.486387 
L 69.318115 76.982789 
L 69.368859 62.688953 
L 69.419604 81.330916 
L 69.470348 68.597106 
L 69.521092 56.83682 
L 69.62258 92.489554 
L 69.673324 56.067958 
L 69.724069 84.304994 
L 69.774813 89.531457 
L 69.825557 46.394538 
L 69.876301 69.047407 
L 69.927045 55.043622 
L 69.97779 103.912568 
L 70.028534 69.011804 
L 70.079278 54.743772 
L 70.180766 85.827712 
L 70.231511 77.231967 
L 70.332999 57.030863 
L 70.383743 76.439944 
L 70.434487 55.591893 
L 70.58672 81.118239 
L 70.738952 55.894435 
L 70.789697 60.639036 
L 70.840441 72.738776 
L 70.891185 41.429706 
L 70.941929 53.335454 
L 71.043418 79.582234 
L 71.144906 78.569068 
L 71.19565 73.574405 
L 71.246394 84.596507 
L 71.297138 49.094595 
L 71.398627 55.404134 
L 71.449371 77.573691 
L 71.500115 65.011185 
L 71.652348 84.730401 
L 71.80458 47.700128 
L 71.956813 101.785149 
L 71.906069 46.16638 
L 72.007557 88.944583 
L 72.058301 51.512886 
L 72.109045 85.888631 
L 72.15979 86.213874 
L 72.261278 76.50135 
L 72.312022 51.755408 
L 72.362766 102.313412 
L 72.413511 66.411026 
L 72.464255 65.373826 
L 72.565743 65.957173 
L 72.616487 55.244334 
L 72.667232 58.441823 
L 72.717976 105.917507 
L 72.76872 94.980435 
L 72.819464 93.451561 
L 73.022441 36.810123 
L 73.123929 76.712258 
L 73.225418 71.032809 
L 73.276162 123.12 
L 73.326906 43.092088 
L 73.37765 98.216194 
L 73.479139 59.100813 
L 73.529883 65.70711 
L 73.580627 66.230372 
L 73.631371 60.658158 
L 73.682115 81.571194 
L 73.732859 47.569697 
L 73.783604 81.934733 
L 73.834348 78.070712 
L 73.885092 58.931278 
L 73.935836 85.538891 
L 73.98658 73.267835 
L 74.189557 89.250332 
L 74.240301 57.401122 
L 74.291046 62.98307 
L 74.34179 87.116757 
L 74.392534 30.505587 
L 74.443278 68.858737 
L 74.595511 50.416601 
L 74.646255 60.400529 
L 74.696999 46.469821 
L 74.747743 61.627283 
L 74.899976 104.628462 
L 75.052208 61.572558 
L 75.102952 84.443889 
L 75.153697 57.828196 
L 75.204441 75.779184 
L 75.305929 46.539589 
L 75.458162 76.800802 
L 75.508906 66.324931 
L 75.55965 73.628475 
L 75.610394 76.561192 
L 75.661139 86.02432 
L 75.711883 56.114513 
L 75.762627 60.483071 
L 75.813371 87.668234 
L 75.864115 58.850519 
L 75.914859 50.331186 
L 75.965604 82.961916 
L 76.067092 79.382445 
L 76.117836 104.369268 
L 76.16858 76.747411 
L 76.219325 41.546542 
L 76.270069 60.82346 
L 76.422301 75.859277 
L 76.473046 73.701886 
L 76.52379 87.932302 
L 76.574534 76.854641 
L 76.676022 43.834017 
L 76.726766 98.512068 
L 76.777511 89.135676 
L 76.828255 84.72527 
L 76.878999 39.678189 
L 76.929743 57.506929 
L 76.980487 56.13824 
L 77.031232 97.599694 
L 77.081976 80.556027 
L 77.183464 47.354749 
L 77.284953 102.073584 
L 77.335697 89.193774 
L 77.386441 66.481551 
L 77.437185 101.509795 
L 77.487929 72.620862 
L 77.538673 87.18768 
L 77.589418 29.5927 
L 77.640162 81.398338 
L 77.792394 52.138107 
L 77.944627 79.963125 
L 77.995371 48.543118 
L 78.046115 74.551763 
L 78.09686 57.307371 
L 78.198348 100.054152 
L 78.35058 58.827832 
L 78.401325 52.351644 
L 78.452069 78.682082 
L 78.553557 77.132291 
L 78.604301 51.405925 
L 78.756534 95.1714 
L 78.908767 51.856726 
L 79.010255 78.023991 
L 79.060999 68.719252 
L 79.111743 81.91048 
L 79.162487 67.912095 
L 79.213232 61.824289 
L 79.263976 61.974457 
L 79.31472 76.802251 
L 79.416208 52.393967 
L 79.517697 83.23323 
L 79.568441 69.175106 
L 79.619185 48.604678 
L 79.669929 93.798094 
L 79.720674 50.65861 
L 79.822162 77.954133 
L 79.872906 56.32074 
L 79.92365 104.870214 
L 79.974394 98.835901 
L 80.025139 43.606629 
L 80.075883 72.506617 
L 80.126627 73.19731 
L 80.177371 72.338211 
L 80.228115 83.028106 
L 80.27886 83.020424 
L 80.431092 42.924208 
L 80.532581 80.859263 
L 80.583325 80.564145 
L 80.684813 51.418237 
L 80.786301 47.804267 
L 80.837046 90.547842 
L 80.989278 43.723978 
L 81.090767 84.737583 
L 81.192255 55.874044 
L 81.293743 95.439315 
L 81.445976 63.135585 
L 81.547464 92.531236 
L 81.598208 65.415545 
L 81.648953 68.688433 
L 81.699697 71.784567 
L 81.750441 70.046782 
L 81.801185 46.842645 
L 81.851929 51.695002 
L 81.902674 73.778874 
L 81.953418 58.106102 
L 82.10565 67.03953 
L 82.156395 43.405148 
L 82.257883 76.609798 
L 82.308627 52.248531 
L 82.359371 69.328621 
L 82.410115 96.89778 
L 82.46086 36.46513 
L 82.511604 54.23962 
L 82.663836 70.06191 
L 82.714581 68.241917 
L 82.866813 50.025052 
L 83.019046 103.76726 
L 83.06979 56.856057 
L 83.120534 83.998475 
L 83.171278 82.480913 
L 83.222022 99.444578 
L 83.323511 68.450606 
L 83.374255 77.210831 
L 83.424999 61.57016 
L 83.475743 77.409453 
L 83.577232 64.804393 
L 83.627976 43.604449 
L 83.67872 80.059069 
L 83.729464 67.954918 
L 83.780209 71.967111 
L 83.830953 61.298128 
L 83.932441 111.385338 
L 83.983185 81.717258 
L 84.033929 55.64268 
L 84.084674 68.852235 
L 84.135418 74.790873 
L 84.186162 63.814415 
L 84.236906 91.972705 
L 84.28765 48.479762 
L 84.338395 78.042408 
L 84.389139 77.652847 
L 84.541371 47.342565 
L 84.592116 60.286463 
L 84.693604 69.679637 
L 84.744348 52.026273 
L 84.795092 83.475726 
L 84.845836 76.158562 
L 84.896581 50.739279 
L 84.947325 51.474026 
L 85.099557 63.001371 
L 85.150302 33.006086 
L 85.201046 63.640161 
L 85.25179 81.975888 
L 85.302534 68.158823 
L 85.353278 62.428925 
L 85.404023 66.387389 
L 85.454767 65.257413 
L 85.505511 85.82707 
L 85.556255 81.718092 
L 85.606999 81.430759 
L 85.657743 61.380273 
L 85.759232 106.484374 
L 85.809976 47.41554 
L 85.86072 65.224042 
L 85.911464 89.661375 
L 85.962209 81.807136 
L 86.063697 44.35061 
L 86.114441 72.845288 
L 86.165185 68.87137 
L 86.21593 44.45475 
L 86.266674 98.964279 
L 86.317418 53.240548 
L 86.368162 46.516761 
L 86.418906 112.618595 
L 86.46965 68.028623 
L 86.520395 71.47204 
L 86.571139 71.449902 
L 86.621883 59.374409 
L 86.672627 71.497736 
L 86.723371 87.668875 
L 86.774116 86.38419 
L 86.82486 62.678385 
L 86.875604 92.901238 
L 86.926348 71.926508 
L 86.977092 68.36773 
L 87.078581 48.545555 
L 87.180069 86.939002 
L 87.332302 47.789005 
L 87.484534 84.032077 
L 87.535278 69.363608 
L 87.586023 75.39206 
L 87.636767 89.233275 
L 87.738255 87.286048 
L 87.788999 67.016984 
L 87.839744 71.868691 
L 87.941232 92.571891 
L 88.093464 46.539461 
L 88.144209 74.610963 
L 88.245697 70.306416 
L 88.347185 77.23121 
L 88.39793 43.111967 
L 88.499418 44.244803 
L 88.651651 82.058122 
L 88.753139 73.469509 
L 88.803883 53.503847 
L 88.905371 80.278878 
L 88.956116 78.47574 
L 89.00686 95.713515 
L 89.159092 52.57262 
L 89.209837 44.122837 
L 89.311325 93.786936 
L 89.362069 51.677175 
L 89.412813 60.468886 
L 89.463558 91.94962 
L 89.514302 35.216996 
L 89.565046 53.443184 
L 89.717278 70.351356 
L 89.768023 46.456226 
L 89.818767 68.926351 
L 89.920255 83.837392 
L 90.021744 49.643764 
L 90.072488 87.337476 
L 90.123232 59.92259 
L 90.173976 60.7387 
L 90.22472 72.746727 
L 90.275465 39.047196 
L 90.326209 62.967975 
L 90.478441 92.520463 
L 90.529185 67.83653 
L 90.57993 69.699909 
L 90.681418 99.730961 
L 90.732162 60.284282 
L 90.782906 95.039558 
L 90.985883 43.427207 
L 91.036627 97.240337 
L 91.087372 88.294994 
L 91.18886 37.24361 
L 91.239604 93.995984 
L 91.341092 85.871701 
L 91.493325 47.510574 
L 91.645558 71.670712 
L 91.696302 68.727152 
L 91.747046 81.966077 
L 91.79779 47.844025 
L 91.848534 108.298349 
L 91.899279 97.137223 
L 91.950023 95.12818 
L 92.000767 56.313943 
L 92.102255 58.403464 
L 92.152999 63.452775 
L 92.203744 53.491919 
L 92.305232 54.67939 
L 92.355976 83.002982 
L 92.40672 59.232321 
L 92.457465 75.430292 
L 92.508209 59.192307 
L 92.558953 72.053308 
L 92.609697 56.818608 
L 92.660441 40.916704 
L 92.711186 58.870385 
L 92.76193 92.364767 
L 92.863418 91.70107 
L 92.914162 77.253128 
L 92.964906 101.642919 
L 93.117139 46.338621 
L 93.218627 71.74865 
L 93.269372 61.536507 
L 93.320116 70.063663 
L 93.37086 87.334783 
L 93.421604 81.11039 
L 93.523093 41.389307 
L 93.624581 35.274709 
L 93.675325 87.554348 
L 93.726069 48.612117 
L 93.776813 50.022616 
L 93.878302 88.675385 
L 93.929046 77.594531 
L 93.97979 69.000441 
L 94.030534 70.317943 
L 94.081279 86.673523 
L 94.132023 84.02669 
L 94.182767 70.304329 
L 94.233511 96.441849 
L 94.284255 68.766884 
L 94.385744 99.364549 
L 94.537976 50.329263 
L 94.690209 89.299965 
L 94.740953 78.751671 
L 94.791697 81.231253 
L 94.842441 87.840859 
L 94.94393 66.891157 
L 94.994674 76.170079 
L 95.045418 106.471678 
L 95.096162 82.307005 
L 95.146907 60.63674 
L 95.197651 73.052553 
L 95.248395 91.457394 
L 95.400627 59.435098 
L 95.55286 85.915435 
L 95.603604 35.84491 
L 95.654348 86.886291 
L 95.705093 65.423766 
L 95.755837 96.536626 
L 95.806581 44.063714 
L 95.857325 55.005275 
L 95.908069 92.487887 
L 96.009558 89.229555 
L 96.060302 53.517569 
L 96.111046 53.887828 
L 96.314023 105.492742 
L 96.466255 42.168044 
L 96.618488 84.591249 
L 96.719976 56.734861 
L 96.872209 75.626784 
L 96.922953 68.933597 
L 97.024441 91.237958 
L 97.075186 49.035343 
L 97.12593 92.227154 
L 97.227418 57.21144 
L 97.278162 84.927137 
L 97.328907 73.228603 
L 97.430395 57.411639 
L 97.531883 87.897931 
L 97.582628 80.958849 
L 97.633372 91.352486 
L 97.684116 43.656903 
L 97.73486 89.278675 
L 97.785604 93.327671 
L 97.836348 22.32 
L 97.887093 89.753715 
L 97.937837 57.397916 
L 97.988581 59.088116 
L 98.090069 98.113466 
L 98.140814 60.467565 
L 98.191558 70.986993 
L 98.242302 73.509997 
L 98.293046 105.220081 
L 98.34379 87.782505 
L 98.394535 74.113698 
L 98.445279 94.283394 
L 98.496023 38.163422 
L 98.546767 55.425295 
L 98.597511 77.966535 
L 98.648255 70.981187 
L 98.800488 57.452422 
L 98.952721 87.056479 
L 99.003465 53.187068 
L 99.054209 79.441133 
L 99.104953 93.481443 
L 99.155697 55.053112 
L 99.206442 70.521956 
L 99.257186 73.7434 
L 99.30793 95.470737 
L 99.358674 47.240222 
L 99.409418 68.198273 
L 99.460162 87.321958 
L 99.510907 54.94551 
L 99.561651 74.662636 
L 99.612395 62.102233 
L 99.663139 81.243732 
L 99.764628 77.827998 
L 99.815372 79.359117 
L 99.866116 72.440337 
L 99.967604 95.350566 
L 100.069093 59.142366 
L 100.119837 94.429727 
L 100.170581 58.436616 
L 100.221325 78.024683 
L 100.272069 71.942575 
L 100.322814 53.82832 
L 100.373558 90.06857 
L 100.424302 73.636106 
L 100.475046 70.68455 
L 100.52579 84.636521 
L 100.576535 67.305509 
L 100.627279 70.353636 
L 100.728767 79.258081 
L 100.830256 58.714086 
L 100.881 70.487788 
L 100.931744 66.333267 
L 100.982488 95.441752 
L 101.033232 49.788687 
L 101.083976 80.356059 
L 101.185465 102.664434 
L 101.236209 54.595002 
L 101.286953 55.506991 
L 101.388442 71.145318 
L 101.439186 54.04019 
L 101.48993 61.700142 
L 101.540674 60.120147 
L 101.591418 63.084696 
L 101.642163 36.345985 
L 101.692907 91.627839 
L 101.743651 79.492664 
L 101.845139 39.92443 
L 101.895883 96.667442 
L 101.946628 53.15539 
L 101.997372 59.2823 
L 102.09886 98.988647 
L 102.251093 59.222343 
L 102.301837 70.30011 
L 102.352581 62.425706 
L 102.403325 57.376626 
L 102.606302 107.183083 
L 102.657046 75.14455 
L 102.70779 80.917604 
L 102.758535 99.269772 
L 102.809279 78.715594 
L 102.910767 49.434844 
L 102.961511 72.106205 
L 103.012256 44.278662 
L 103.113744 48.837966 
L 103.164488 56.321509 
L 103.215232 82.355394 
L 103.265977 66.550242 
L 103.316721 66.386158 
L 103.367465 82.473346 
L 103.418209 63.999865 
L 103.519697 82.292346 
L 103.570442 58.269249 
L 103.67193 60.381843 
L 103.773418 70.374536 
L 103.824163 101.17878 
L 103.874907 75.433793 
L 103.925651 61.202966 
L 103.976395 66.698794 
L 104.027139 76.48796 
L 104.077884 71.195793 
L 104.179372 30.690396 
L 104.230116 52.5521 
L 104.331604 83.083318 
L 104.433093 47.086962 
L 104.483837 78.983753 
L 104.585325 76.763712 
L 104.63607 38.259482 
L 104.686814 58.459804 
L 104.737558 68.085861 
L 104.788302 102.889642 
L 104.839046 73.364138 
L 104.889791 58.669635 
L 104.940535 59.570094 
L 104.991279 90.61543 
L 105.092767 84.987158 
L 105.143511 58.713253 
L 105.194256 82.946783 
L 105.346488 39.764245 
L 105.397232 59.743399 
L 105.447977 69.185968 
L 105.498721 56.384096 
L 105.549465 81.042507 
L 105.600209 42.270003 
L 105.650953 76.630306 
L 105.752442 56.86029 
L 105.803186 59.848616 
L 105.85393 63.841438 
L 105.904674 77.821765 
L 105.955418 76.155253 
L 106.006163 71.958222 
L 106.056907 91.641177 
L 106.107651 72.33716 
L 106.158395 73.858133 
L 106.209139 50.006456 
L 106.259884 99.640416 
L 106.310628 73.752352 
L 106.361372 45.21784 
L 106.412116 73.55073 
L 106.513605 75.544024 
L 106.564349 50.776857 
L 106.615093 61.901021 
L 106.665837 57.170528 
L 106.767325 90.164117 
L 106.81807 64.676271 
L 106.919558 67.514108 
L 106.970302 65.407081 
L 107.021046 66.805242 
L 107.173279 86.568743 
L 107.224023 83.514201 
L 107.274767 89.726141 
L 107.427 37.943601 
L 107.579232 102.232486 
L 107.782209 46.852136 
L 107.934442 101.507358 
L 107.985186 56.012169 
L 108.03593 66.823454 
L 108.086674 65.316831 
L 108.137419 45.03675 
L 108.188163 110.977886 
L 108.238907 64.739217 
L 108.340395 88.876867 
L 108.391139 80.467432 
L 108.441884 81.975054 
L 108.492628 79.693709 
L 108.64486 43.962268 
L 108.695605 71.033327 
L 108.746349 67.122008 
L 108.797093 51.061829 
L 108.847837 65.505308 
L 108.898581 64.980956 
L 108.949326 91.056355 
L 109.00007 75.304196 
L 109.101558 50.047624 
L 109.203046 83.791094 
L 109.253791 82.301888 
L 109.304535 65.110694 
L 109.406023 61.101161 
L 109.456767 99.77867 
L 109.558256 53.971961 
L 109.659744 70.819746 
L 109.710488 84.358089 
L 109.862721 43.792592 
L 110.065698 100.17522 
L 110.116442 86.703534 
L 110.167186 43.729108 
L 110.268674 49.655306 
L 110.319419 50.959998 
L 110.370163 63.176856 
L 110.420907 54.301308 
L 110.471651 41.292991 
L 110.522395 76.627343 
L 110.57314 54.749672 
L 110.623884 66.09467 
L 110.674628 47.962528 
L 110.725372 67.224608 
L 110.776116 69.119201 
L 110.82686 54.684905 
L 110.979093 79.161419 
L 111.080581 45.655046 
L 111.131326 60.803543 
L 111.18207 91.3353 
L 111.232814 60.83617 
L 111.283558 59.274297 
L 111.334302 64.925744 
L 111.385047 48.453215 
L 111.435791 56.477847 
L 111.486535 86.148979 
L 111.537279 52.393839 
L 111.588023 49.170519 
L 111.740256 94.719702 
L 111.791 27.287141 
L 111.841744 69.456808 
L 111.943233 56.775388 
L 112.095465 83.159383 
L 112.146209 88.382846 
L 112.247698 64.928399 
L 112.298442 72.846968 
L 112.39993 91.49074 
L 112.501419 77.233929 
L 112.602907 78.703218 
L 112.653651 92.062095 
L 112.704395 85.3587 
L 112.75514 81.058153 
L 112.805884 86.454087 
L 112.856628 104.313094 
L 112.907372 56.376144 
L 112.958116 97.441049 
L 113.008861 101.790535 
L 113.059605 98.264673 
L 113.211837 38.290519 
L 113.262581 57.659034 
L 113.313326 74.972296 
L 113.36407 41.042774 
L 113.465558 100.813651 
L 113.567047 36.216195 
L 113.668535 92.878923 
L 113.719279 85.133363 
L 113.770023 85.839895 
L 113.973 54.501763 
L 114.023744 43.532372 
L 114.074488 74.368185 
L 114.125233 46.261157 
L 114.277465 65.697889 
L 114.328209 44.952746 
L 114.378954 66.988756 
L 114.429698 102.008818 
L 114.480442 38.230241 
L 114.531186 63.653256 
L 114.683419 88.926371 
L 114.734163 47.054771 
L 114.835651 50.985264 
L 114.886395 81.017395 
L 114.93714 49.49666 
L 114.987884 50.895104 
L 115.089372 63.85838 
L 115.140116 98.082044 
L 115.190861 49.175137 
L 115.241605 59.915665 
L 115.343093 94.860906 
L 115.393837 90.747528 
L 115.444582 60.25599 
L 115.54607 61.132557 
L 115.647558 106.914655 
L 115.698302 49.642096 
L 115.749047 70.210717 
L 115.799791 88.958947 
L 115.952023 61.570558 
L 116.053512 77.497843 
L 116.155 64.653237 
L 116.205744 106.944409 
L 116.256489 72.064063 
L 116.307233 67.465809 
L 116.408721 95.730957 
L 116.459465 57.998769 
L 116.510209 59.817797 
L 116.611698 72.867552 
L 116.662442 67.131024 
L 116.713186 60.150581 
L 116.76393 67.990584 
L 116.814675 90.649801 
L 116.865419 81.72748 
L 116.916163 62.333674 
L 116.966907 78.668975 
L 117.220628 63.953028 
L 117.271372 85.684841 
L 117.322116 66.944804 
L 117.423605 74.814561 
L 117.525093 63.500535 
L 117.626582 74.374572 
L 117.829558 64.274719 
L 117.880303 65.495279 
L 117.931047 64.547841 
L 117.981791 48.876569 
L 118.083279 90.883858 
L 118.134023 89.809376 
L 118.438489 54.843936 
L 118.489233 99.061365 
L 118.539977 73.655061 
L 118.641465 50.979749 
L 118.742954 47.614072 
L 118.793698 87.981037 
L 118.844442 68.331205 
L 118.895186 104.625255 
L 118.94593 89.033076 
L 119.047419 55.231637 
L 119.098163 86.373289 
L 119.148907 63.274468 
L 119.199651 68.110614 
L 119.250396 65.839439 
L 119.351884 63.118361 
L 119.402628 93.35191 
L 119.453372 107.154355 
L 119.504117 91.905373 
L 119.554861 35.771936 
L 119.605605 46.414289 
L 119.707093 89.857855 
L 119.757837 40.960052 
L 119.808582 63.923146 
L 119.91007 90.355723 
L 120.011558 52.09835 
L 120.062303 55.878148 
L 120.265279 96.006439 
L 120.316024 45.219764 
L 120.366768 70.470973 
L 120.468256 37.791368 
L 120.569744 94.734964 
L 120.620489 76.66501 
L 120.671233 37.904485 
L 120.721977 83.628254 
L 120.772721 61.023916 
L 120.823465 82.105511 
L 120.87421 101.357562 
L 120.924954 71.056163 
L 121.026442 75.981653 
L 121.077186 82.258552 
L 121.127931 73.845103 
L 121.178675 77.625799 
L 121.229419 78.564092 
L 121.280163 63.946924 
L 121.330907 77.681434 
L 121.381651 89.627388 
L 121.432396 47.845051 
L 121.48314 92.102623 
L 121.584628 38.602167 
L 121.635372 83.424221 
L 121.686117 73.705772 
L 121.838349 31.560318 
L 121.990582 85.978791 
L 122.041326 77.516734 
L 122.09207 97.186728 
L 122.142814 83.205272 
L 122.244303 56.872858 
L 122.295047 64.109237 
L 122.345791 82.030087 
L 122.396535 62.036081 
L 122.447279 79.060986 
L 122.498024 83.713336 
L 122.650256 49.034702 
L 122.701 67.252182 
L 122.751745 33.054693 
L 122.802489 56.770258 
L 122.853233 62.412804 
L 122.903977 88.32244 
L 122.954721 85.995463 
L 123.005465 55.663969 
L 123.05621 87.913962 
L 123.208442 60.788858 
L 123.411419 98.184517 
L 123.512907 42.19395 
L 123.614396 106.605443 
L 123.66514 47.082345 
L 123.715884 64.623329 
L 123.868117 107.253108 
L 123.969605 80.054491 
L 124.020349 80.438819 
L 124.071093 84.210858 
L 124.223326 49.894622 
L 124.27407 97.993295 
L 124.324814 62.874686 
L 124.426303 48.718821 
L 124.578535 85.691253 
L 124.629279 75.879848 
L 124.680024 52.294701 
L 124.730768 80.165132 
L 124.781512 79.736981 
L 124.832256 43.491845 
L 124.883 56.50619 
L 124.984489 55.78927 
L 125.035233 83.348938 
L 125.136721 60.013674 
L 125.288954 83.392684 
L 125.441186 54.158437 
L 125.644163 95.276694 
L 125.745652 67.994098 
L 125.84714 88.35835 
L 125.897884 73.322162 
L 125.948628 74.435799 
L 125.999373 99.030072 
L 126.050117 75.446195 
L 126.100861 61.828303 
L 126.151605 73.30472 
L 126.202349 79.78151 
L 126.253093 64.035981 
L 126.303838 89.353189 
L 126.354582 55.988443 
L 126.45607 60.592045 
L 126.608303 94.767154 
L 126.659047 86.246065 
L 126.709791 83.031197 
L 126.760535 66.987037 
L 126.81128 67.236241 
L 126.862024 107.057269 
L 126.912768 49.863329 
L 126.963512 69.254121 
L 127.014256 72.400092 
L 127.065 50.221276 
L 127.115745 51.318715 
L 127.166489 67.503335 
L 127.217233 46.993083 
L 127.267977 87.535367 
L 127.318721 67.726632 
L 127.42021 62.384371 
L 127.470954 68.468292 
L 127.521698 41.85306 
L 127.623187 93.480289 
L 127.673931 52.594422 
L 127.724675 85.815656 
L 127.826163 39.732567 
L 127.876907 85.258151 
L 127.927652 75.880271 
L 128.079884 61.484912 
L 128.130628 83.053474 
L 128.181373 81.491768 
L 128.282861 54.134711 
L 128.333605 99.961042 
L 128.384349 66.908343 
L 128.435094 34.083262 
L 128.485838 63.780621 
L 128.536582 69.66454 
L 128.587326 60.636907 
L 128.688814 89.316253 
L 128.739559 42.668733 
L 128.790303 63.394382 
L 128.841047 89.305608 
L 128.891791 53.768171 
L 128.942535 67.768095 
L 128.99328 80.113973 
L 129.044024 73.076588 
L 129.094768 65.433244 
L 129.247001 77.708046 
L 129.348489 82.11159 
L 129.399233 74.442558 
L 129.449977 88.838776 
L 129.551466 55.154815 
L 129.60221 86.65621 
L 129.652954 57.856668 
L 129.703698 41.099974 
L 129.855931 105.650233 
L 129.906675 91.490355 
L 130.109652 57.384962 
L 130.261884 114.792312 
L 130.312628 58.739967 
L 130.414117 65.646948 
L 130.464861 81.426912 
L 130.515605 28.301474 
L 130.566349 54.212174 
L 130.617094 96.577538 
L 130.667838 57.770612 
L 130.718582 84.250231 
L 130.769326 77.299606 
L 130.870815 31.187751 
L 131.023047 102.877843 
L 131.226024 49.892826 
L 131.327512 84.319871 
L 131.378256 63.307993 
L 131.429001 74.601383 
L 131.479745 78.824992 
L 131.631977 51.798756 
L 131.733466 70.550594 
L 131.78421 68.629387 
L 131.834954 59.999079 
L 132.037931 102.73292 
L 132.088675 53.661851 
L 132.139419 55.090048 
L 132.291652 72.691349 
L 132.342396 68.079577 
L 132.494629 89.340107 
L 132.545373 85.203645 
L 132.596117 48.250066 
L 132.646861 94.103971 
L 132.697605 73.152371 
L 132.748349 65.992044 
L 132.799094 103.30838 
L 132.849838 62.715103 
L 133.00207 77.75369 
L 133.052815 57.472942 
L 133.103559 90.230166 
L 133.154303 74.456871 
L 133.306536 90.765227 
L 133.35728 105.685374 
L 133.509512 62.794119 
L 133.611001 81.383435 
L 133.661745 70.031116 
L 133.763233 96.510078 
L 133.864722 71.193332 
L 133.915466 73.439536 
L 133.96621 109.85826 
L 134.016954 90.781386 
L 134.067698 66.037496 
L 134.169187 66.216726 
L 134.321419 70.918009 
L 134.372163 99.263488 
L 134.422908 88.059013 
L 134.524396 65.218219 
L 134.57514 48.952109 
L 134.625884 88.109416 
L 134.676629 74.175412 
L 134.778117 39.801309 
L 134.879605 49.437537 
L 134.93035 71.990182 
L 134.981094 48.02986 
L 135.133326 99.638236 
L 135.234815 67.788231 
L 135.285559 69.3544 
L 135.336303 53.219515 
L 135.387047 72.369261 
L 135.437791 68.70072 
L 135.488536 76.609414 
L 135.590024 43.006417 
L 135.742257 104.000419 
L 135.843745 62.775163 
L 135.894489 75.279443 
L 136.046722 47.781695 
L 136.097466 66.517114 
L 136.14821 55.435042 
L 136.198954 57.247093 
L 136.300443 71.548987 
L 136.452675 50.030182 
L 136.554164 76.713976 
L 136.604908 43.854409 
L 136.655652 104.262435 
L 136.75714 94.620949 
L 136.909373 59.574365 
L 136.960117 56.436294 
L 137.11235 88.813383 
L 137.213838 67.131293 
L 137.264582 91.87626 
L 137.366071 88.712193 
L 137.416815 40.558885 
L 137.467559 71.354377 
L 137.518303 69.013035 
L 137.619791 101.032703 
L 137.670536 99.941035 
L 137.822768 42.284751 
L 137.924257 91.107655 
L 137.975001 80.206904 
L 138.127233 61.563991 
L 138.177978 62.896475 
L 138.33021 90.18515 
L 138.380954 41.168203 
L 138.431698 58.041605 
L 138.482443 55.915084 
L 138.533187 38.642694 
L 138.634675 76.93104 
L 138.685419 60.755372 
L 138.736164 73.320264 
L 138.786908 70.075819 
L 138.837652 59.417886 
L 138.93914 78.563823 
L 138.989885 61.424532 
L 139.040629 62.525511 
L 139.192861 115.844351 
L 139.243605 100.223827 
L 139.345094 65.126353 
L 139.395838 73.200978 
L 139.446582 61.497263 
L 139.497326 85.196463 
L 139.548071 43.272793 
L 139.598815 50.456615 
L 139.649559 82.68015 
L 139.801792 23.815401 
L 139.852536 70.072148 
L 139.90328 67.758694 
L 139.954024 61.288368 
L 140.106257 98.354577 
L 140.157001 87.035318 
L 140.207745 34.612167 
L 140.258489 36.752411 
L 140.410722 66.139673 
L 140.461466 62.445624 
L 140.51221 43.043994 
L 140.613699 81.267407 
L 140.664443 80.276223 
L 140.715187 40.386901 
L 140.765931 104.100198 
L 140.816675 82.451313 
L 140.867419 88.105055 
L 140.918164 121.03375 
L 140.968908 107.41714 
L 141.12114 87.035575 
L 141.171885 94.266593 
L 141.222629 90.881935 
L 141.425606 52.09322 
L 141.527094 78.655765 
L 141.628582 48.568127 
L 141.679326 79.397271 
L 141.730071 68.299655 
L 141.780815 55.102489 
L 141.831559 95.618866 
L 141.882303 74.702483 
L 141.933047 63.277533 
L 141.983792 85.514524 
L 142.034536 81.351142 
L 142.08528 77.892239 
L 142.136024 45.689032 
L 142.186768 82.754587 
L 142.237513 51.29486 
L 142.440489 97.910702 
L 142.491233 75.986014 
L 142.592722 35.046679 
L 142.744954 83.740563 
L 142.795699 70.345985 
L 142.846443 103.620926 
L 142.897187 76.053769 
L 143.04942 48.681629 
L 143.150908 88.215479 
L 143.201652 38.883421 
L 143.252396 62.195368 
L 143.30314 51.500446 
L 143.353885 98.841159 
L 143.404629 85.278287 
L 143.455373 67.843494 
L 143.607606 118.241352 
L 143.65835 76.959409 
L 143.759838 84.37784 
L 143.810582 86.669419 
L 143.861327 59.290867 
L 143.912071 77.866743 
L 143.962815 100.599473 
L 144.013559 78.550074 
L 144.064303 58.758269 
L 144.165792 102.602232 
L 144.216536 50.995652 
L 144.26728 64.087114 
L 144.318024 74.600601 
L 144.368768 52.179789 
L 144.419513 76.140043 
L 144.470257 97.385901 
L 144.521001 90.436905 
L 144.723978 39.899421 
L 144.825466 95.351592 
L 144.87621 76.290173 
L 144.926954 40.680723 
L 145.028443 46.497908 
L 145.129931 82.245817 
L 145.180675 65.402669 
L 145.23142 68.639814 
L 145.282164 80.376669 
L 145.332908 77.799142 
L 145.383652 65.051853 
L 145.485141 85.775642 
L 145.586629 40.383566 
L 145.688117 75.737169 
L 145.789606 54.686188 
L 145.84035 89.25123 
L 145.891094 72.383484 
L 145.941838 33.905122 
L 145.992582 72.789089 
L 146.043327 87.028393 
L 146.094071 78.819785 
L 146.144815 79.408737 
L 146.195559 85.031533 
L 146.347792 54.861763 
L 146.44928 87.764678 
L 146.500024 69.47189 
L 146.550768 48.908247 
L 146.601513 104.785697 
L 146.652257 75.677982 
L 146.703001 62.423641 
L 146.753745 63.23807 
L 146.804489 82.72541 
L 146.956722 53.000207 
L 147.007466 112.483162 
L 147.05821 84.789524 
L 147.108954 62.602102 
L 147.159699 98.320077 
L 147.210443 85.070393 
L 147.261187 55.140964 
L 147.311931 68.704337 
L 147.362675 81.451754 
L 147.41342 56.95481 
L 147.464164 85.96199 
L 147.514908 97.974442 
L 147.667141 62.366647 
L 147.717885 60.752243 
L 147.819373 81.229688 
L 147.920861 59.673913 
L 148.02235 87.736848 
L 148.073094 63.262271 
L 148.123838 100.124177 
L 148.174582 51.808247 
L 148.225327 64.840727 
L 148.276071 102.031133 
L 148.326815 75.302413 
L 148.428303 87.062122 
L 148.580536 43.441956 
L 148.783513 108.007477 
L 148.834257 63.230029 
L 148.885001 90.146162 
L 148.935745 98.165407 
L 148.986489 54.025698 
L 149.037234 71.435772 
L 149.138722 96.990376 
L 149.189466 62.194355 
L 149.24021 66.154602 
L 149.290955 89.661247 
L 149.341699 49.102034 
L 149.392443 67.861962 
L 149.443187 63.879733 
L 149.493931 85.165683 
L 149.544675 79.244333 
L 149.59542 72.416277 
L 149.646164 84.415289 
L 149.696908 74.16024 
L 149.747652 73.488297 
L 149.798396 74.358195 
L 149.899885 46.091226 
L 150.001373 80.124362 
L 150.052117 74.279513 
L 150.102862 61.795022 
L 150.153606 63.606585 
L 150.20435 73.718225 
L 150.255094 69.450947 
L 150.305838 58.492854 
L 150.458071 97.777963 
L 150.559559 46.76236 
L 150.711792 80.554116 
L 150.762536 62.473441 
L 150.81328 74.547351 
L 150.864024 93.451818 
L 150.914769 81.868709 
L 150.965513 57.581442 
L 151.016257 58.791678 
L 151.117745 99.865367 
L 151.168489 55.230867 
L 151.219234 64.00933 
L 151.269978 73.126221 
L 151.320722 40.838214 
L 151.472955 102.967618 
L 151.574443 31.02949 
L 151.625187 49.45126 
L 151.675931 53.181938 
L 151.828164 99.275928 
L 151.878908 40.438458 
L 151.929652 54.556142 
L 151.980396 97.964182 
L 152.031141 73.574174 
L 152.081885 37.229887 
L 152.132629 69.60781 
L 152.183373 59.260536 
L 152.234117 108.840336 
L 152.284862 61.56462 
L 152.335606 80.623756 
L 152.38635 40.514382 
L 152.437094 61.961837 
L 152.538583 110.055509 
L 152.640071 91.433925 
L 152.792303 48.427564 
L 152.944536 88.855064 
L 152.99528 100.832889 
L 153.147513 66.761047 
L 153.198257 89.08771 
L 153.249001 51.507371 
L 153.35049 57.302113 
L 153.401234 65.150272 
L 153.451978 30.770167 
L 153.502722 35.673183 
L 153.654955 95.958473 
L 153.807187 54.457004 
L 153.857931 38.139696 
L 154.060908 77.413916 
L 154.111652 93.473492 
L 154.162397 89.509911 
L 154.213141 85.562361 
L 154.314629 54.864841 
L 154.365373 59.411653 
L 154.517606 88.713091 
L 154.56835 88.624726 
L 154.619094 94.5835 
L 154.669838 91.068924 
L 154.720583 58.3048 
L 154.771327 61.025865 
L 154.822071 87.720689 
L 154.923559 87.261424 
L 154.974304 94.502061 
L 155.025048 91.645281 
L 155.075792 51.947399 
L 155.126536 59.610775 
L 155.228024 80.840551 
L 155.329513 45.006355 
L 155.380257 56.287267 
L 155.481745 66.04741 
L 155.53249 52.449371 
L 155.583234 66.754557 
L 155.633978 92.804922 
L 155.684722 87.018261 
L 155.735466 48.569794 
L 155.786211 52.640208 
L 156.039931 74.298019 
L 156.090676 34.085442 
L 156.14142 79.750473 
L 156.192164 94.332257 
L 156.242908 79.595957 
L 156.293652 54.314261 
L 156.344397 66.661332 
L 156.496629 71.926673 
L 156.547373 40.083973 
L 156.598118 78.093592 
L 156.648862 45.601694 
L 156.699606 52.636489 
L 156.851838 119.682118 
L 157.004071 40.776398 
L 157.054815 56.112076 
L 157.156304 93.367301 
L 157.308536 54.755058 
L 157.35928 57.74509 
L 157.410025 76.735176 
L 157.460769 38.967553 
L 157.511513 64.564001 
L 157.562257 97.396161 
L 157.613001 80.742426 
L 157.71449 48.066411 
L 157.917466 98.860525 
L 157.968211 73.959579 
L 158.069699 76.195729 
L 158.120443 90.70854 
L 158.221932 38.623329 
L 158.272676 104.59486 
L 158.32342 66.58678 
L 158.374164 57.610683 
L 158.424908 100.020935 
L 158.475652 49.04368 
L 158.526397 65.734953 
L 158.678629 94.606072 
L 158.830862 47.949447 
L 158.881606 54.081871 
L 158.983094 107.255288 
L 159.033839 58.510335 
L 159.135327 62.024064 
L 159.186071 62.031695 
L 159.236815 68.793766 
L 159.287559 67.392616 
L 159.338304 36.835004 
L 159.490536 117.500705 
L 159.642769 50.735304 
L 159.795001 77.775287 
L 159.845746 59.362649 
L 159.997978 93.407443 
L 160.048722 50.276552 
L 160.099466 71.370177 
L 160.150211 86.403428 
L 160.200955 63.294513 
L 160.251699 85.504264 
L 160.454676 63.088954 
L 160.50542 66.472252 
L 160.556164 100.837634 
L 160.606908 78.909714 
L 160.657653 73.670015 
L 160.708397 83.418975 
L 160.759141 25.378133 
L 160.809885 79.626404 
L 160.911373 37.158323 
L 160.962118 46.952043 
L 161.012862 49.178984 
L 161.063606 63.324614 
L 161.11435 62.654043 
L 161.165094 50.259879 
L 161.215839 96.793384 
L 161.266583 61.76437 
L 161.317327 68.956605 
L 161.368071 65.470616 
L 161.418815 52.36883 
L 161.46956 66.349735 
L 161.621792 79.329055 
L 161.672536 78.242568 
L 161.72328 70.5999 
L 161.774025 27.196981 
L 161.824769 44.935689 
L 161.875513 93.541336 
L 161.977001 91.219618 
L 162.027746 66.516871 
L 162.07849 101.161595 
L 162.129234 40.971467 
L 162.179978 55.81787 
L 162.230722 83.508738 
L 162.281467 56.963531 
L 162.332211 57.676604 
L 162.382955 53.040734 
L 162.433699 56.296501 
L 162.484443 58.309302 
L 162.535187 80.889645 
L 162.585932 72.490149 
L 162.636676 55.114288 
L 162.68742 81.881765 
L 162.738164 34.321551 
L 162.788908 83.293713 
L 162.839653 82.911565 
L 162.991885 52.529528 
L 163.144118 59.621753 
L 163.194862 37.852287 
L 163.347094 79.250809 
L 163.397839 64.932926 
L 163.448583 70.777504 
L 163.499327 73.314326 
L 163.550071 72.831001 
L 163.600815 69.852931 
L 163.753048 77.26512 
L 163.803792 55.049906 
L 163.854536 80.193912 
L 163.905281 81.853819 
L 163.956025 89.579038 
L 164.006769 48.156828 
L 164.057513 69.288453 
L 164.108257 86.063692 
L 164.159001 54.178188 
L 164.209746 92.079409 
L 164.311234 51.579833 
L 164.361978 95.395838 
L 164.412722 71.651526 
L 164.514211 47.752197 
L 164.564955 73.581548 
L 164.615699 63.594825 
L 164.767932 77.267929 
L 164.818676 73.254574 
L 164.86942 49.169493 
L 164.920164 51.170714 
L 165.072397 84.373992 
L 165.173885 75.88889 
L 165.224629 43.499796 
L 165.275374 55.397337 
L 165.326118 69.919285 
L 165.376862 37.577446 
L 165.427606 43.016164 
L 165.529095 99.911922 
L 165.579839 57.482048 
L 165.681327 57.921691 
L 165.732071 50.195497 
L 165.782815 50.357734 
L 165.935048 92.969083 
L 166.087281 62.137079 
L 166.138025 110.866821 
L 166.188769 57.644926 
L 166.239513 80.011655 
L 166.290257 57.214261 
L 166.391746 81.625918 
L 166.543978 79.798182 
L 166.645467 82.680394 
L 166.696211 47.339103 
L 166.797699 73.054772 
L 166.848443 43.582133 
L 166.899188 89.754741 
L 166.949932 84.14545 
L 167.000676 70.974268 
L 167.05142 78.732767 
L 167.102164 74.231316 
L 167.203653 90.695074 
L 167.254397 50.581146 
L 167.406629 98.92465 
L 167.558862 39.23829 
L 167.609606 97.081563 
L 167.711095 93.882739 
L 167.761839 45.522306 
L 167.812583 48.149004 
L 168.01556 72.654438 
L 168.167792 57.116919 
L 168.218536 85.478999 
L 168.269281 69.506646 
L 168.320025 68.29918 
L 168.523002 33.126257 
L 168.573746 72.151389 
L 168.62449 40.105006 
L 168.776723 80.23803 
L 168.827467 39.555581 
L 168.878211 70.634983 
L 168.928955 92.788634 
L 168.979699 72.520109 
L 169.182676 91.050327 
L 169.284164 44.94223 
L 169.334909 95.955523 
L 169.385653 59.09113 
L 169.436397 36.443584 
L 169.537885 113.558671 
L 169.58863 92.753365 
L 169.690118 58.103165 
L 169.740862 59.917268 
L 169.791606 93.208911 
L 169.84235 61.949512 
L 169.893095 45.583482 
L 169.943839 55.824924 
L 169.994583 59.265974 
L 170.045327 101.920453 
L 170.096071 81.104477 
L 170.146816 46.805581 
L 170.248304 52.635206 
L 170.349792 73.396675 
L 170.451281 69.971365 
L 170.502025 69.972387 
L 170.552769 48.933641 
L 170.603513 69.451652 
L 170.654257 69.978695 
L 170.705002 56.51209 
L 170.755746 70.927504 
L 170.80649 114.654956 
L 170.857234 64.098593 
L 170.958723 74.261199 
L 171.009467 74.257736 
L 171.060211 82.663016 
L 171.110955 37.111127 
L 171.161699 71.254587 
L 171.263188 80.591591 
L 171.41542 41.60092 
L 171.466164 47.456708 
L 171.567653 83.786349 
L 171.719885 68.798254 
L 171.77063 65.851097 
L 171.922862 77.752959 
L 171.973606 70.457428 
L 172.075095 93.684079 
L 172.125839 82.777659 
L 172.176583 85.364086 
L 172.278071 43.523651 
L 172.328816 45.150124 
L 172.430304 91.148311 
L 172.481048 84.120698 
L 172.531792 40.205427 
L 172.582537 80.122387 
L 172.633281 49.807283 
L 172.684025 90.230807 
L 172.734769 46.583323 
L 172.836258 93.263033 
L 172.887002 46.193441 
L 172.937746 55.006429 
L 172.98849 77.413698 
L 173.039234 46.279626 
L 173.089978 96.922532 
L 173.191467 96.508668 
L 173.292955 40.165541 
L 173.343699 44.435512 
L 173.394444 88.285375 
L 173.445188 84.07286 
L 173.495932 78.788594 
L 173.648165 40.355608 
L 173.749653 105.248681 
L 173.800397 50.146377 
L 173.851141 99.715956 
L 174.003374 60.384382 
L 174.054118 60.682398 
L 174.104862 87.283483 
L 174.155606 61.878064 
L 174.206351 61.074511 
L 174.257095 50.838417 
L 174.307839 60.67569 
L 174.358583 104.736705 
L 174.409327 69.120343 
L 174.460072 62.341317 
L 174.510816 92.99858 
L 174.56156 71.188696 
L 174.612304 73.521424 
L 174.663048 70.785468 
L 174.713792 61.392367 
L 174.764537 66.808205 
L 174.815281 64.012049 
L 174.866025 70.715689 
L 174.916769 52.479382 
L 175.018258 53.017521 
L 175.069002 73.91178 
L 175.17049 71.09052 
L 175.271979 78.394801 
L 175.322723 67.160483 
L 175.424211 67.756194 
L 175.525699 66.250738 
L 175.677932 89.335106 
L 175.728676 38.706948 
L 175.77942 44.173496 
L 175.880909 74.995471 
L 175.931653 61.269759 
L 175.982397 75.146948 
L 176.033141 30.177907 
L 176.083886 81.529487 
L 176.13463 75.208559 
L 176.185374 26.863786 
L 176.236118 82.861624 
L 176.286862 74.14072 
L 176.337606 76.163115 
L 176.388351 35.736154 
L 176.439095 70.936845 
L 176.489839 73.176995 
L 176.591327 30.105573 
L 176.642072 55.321284 
L 176.692816 89.991876 
L 176.74356 76.943083 
L 176.794304 42.148806 
L 176.895793 45.589253 
L 176.946537 72.674779 
L 176.997281 52.211723 
L 177.098769 71.45963 
L 177.149513 31.184032 
L 177.200258 59.219547 
L 177.251002 99.332102 
L 177.301746 87.921785 
L 177.35249 74.670254 
L 177.403234 81.555958 
L 177.453979 80.334833 
L 177.504723 84.437476 
L 177.555467 102.100773 
L 177.606211 85.606479 
L 177.656955 33.047768 
L 177.7077 99.320175 
L 177.809188 92.868021 
L 177.910676 46.809556 
L 177.96142 50.919599 
L 178.113653 75.040474 
L 178.164397 97.764753 
L 178.265886 64.296201 
L 178.418118 104.900096 
L 178.468862 97.580585 
L 178.570351 46.941654 
L 178.621095 86.293261 
L 178.671839 53.168856 
L 178.722583 73.856979 
L 178.773327 59.846717 
L 178.824072 55.382203 
L 178.874816 85.842973 
L 178.976304 83.585137 
L 179.027048 62.324183 
L 179.077793 90.68507 
L 179.128537 45.741871 
L 179.179281 54.271554 
L 179.230025 97.055784 
L 179.280769 60.407582 
L 179.331514 50.385949 
L 179.433002 106.038447 
L 179.585234 33.381732 
L 179.635979 65.145258 
L 179.686723 89.183129 
L 179.737467 54.983985 
L 179.788211 95.637206 
L 179.838955 57.635051 
L 179.8897 50.099566 
L 179.940444 82.755741 
L 179.991188 65.884442 
L 180.041932 65.110181 
L 180.092676 89.957762 
L 180.143421 54.168056 
L 180.244909 55.173283 
L 180.295653 66.88722 
L 180.346397 58.043913 
L 180.397141 54.08713 
L 180.447886 85.672657 
L 180.49863 43.766044 
L 180.549374 61.842141 
L 180.600118 60.642563 
L 180.650862 72.045555 
L 180.701607 59.612506 
L 180.752351 60.757334 
L 180.803095 60.011943 
L 180.853839 69.170052 
L 180.904583 59.630346 
L 180.955328 57.898734 
L 181.056816 93.75 
L 181.10756 90.785362 
L 181.259793 45.097028 
L 181.462769 101.132995 
L 181.513514 58.800271 
L 181.564258 103.572832 
L 181.71649 52.989947 
L 181.817979 96.818906 
L 181.868723 51.257026 
L 181.970211 56.575445 
L 182.020955 64.643644 
L 182.0717 59.878716 
L 182.122444 55.04157 
L 182.223932 78.607761 
L 182.325421 57.146417 
L 182.376165 60.140937 
L 182.426909 72.291797 
L 182.477653 62.558856 
L 182.528397 58.021854 
L 182.629886 56.614947 
L 182.68063 100.32335 
L 182.782118 53.546426 
L 182.832862 55.742459 
L 182.883607 56.978408 
L 182.934351 61.05753 
L 182.985095 112.407494 
L 183.035839 57.372779 
L 183.086583 64.663049 
L 183.188072 64.603617 
L 183.238816 69.702625 
L 183.391049 50.146506 
L 183.543281 75.99444 
L 183.594025 89.199545 
L 183.644769 74.910351 
L 183.89849 57.095758 
L 183.949235 61.40028 
L 184.101467 75.736746 
L 184.202956 68.04241 
L 184.2537 112.755951 
L 184.304444 55.804917 
L 184.405932 64.907725 
L 184.456676 86.78151 
L 184.507421 62.619044 
L 184.710397 81.985917 
L 184.761142 79.860897 
L 184.811886 60.11571 
L 184.86263 65.310149 
L 184.913374 84.294734 
L 184.964118 63.189951 
L 185.065607 62.565435 
L 185.116351 70.801417 
L 185.217839 65.672534 
L 185.268583 66.106315 
L 185.420816 86.753039 
L 185.47156 59.931042 
L 185.522304 67.440954 
L 185.573049 73.97606 
L 185.623793 69.007059 
L 185.674537 69.469838 
L 185.725281 57.191432 
L 185.776025 65.294067 
L 185.82677 73.673914 
L 185.877514 65.143411 
L 186.029746 77.861125 
L 186.08049 74.895987 
L 186.181979 71.146587 
L 186.232723 72.863461 
L 186.334211 81.098822 
L 186.384956 66.736423 
L 186.486444 68.773258 
L 186.587932 78.943213 
L 186.740165 63.547808 
L 186.790909 74.594727 
L 186.790909 74.594727 
" clip-path="url(#pef35b1a3b8)" style="fill: none; stroke: #000000; stroke-width: 1.5; stroke-linecap: square"/>
   </g>
   <g id="patch_3">
    <path d="M 27 128.16 
L 27 17.28 
" style="fill: none; stroke: #000000; stroke-width: 0.8; stroke-linejoin: miter; stroke-linecap: square"/>
   </g>
   <g id="patch_4">
    <path d="M 194.4 128.16 
L 194.4 17.28 
" style="fill: none; stroke: #000000; stroke-width: 0.8; stroke-linejoin: miter; stroke-linecap: square"/>
   </g>
   <g id="patch_5">
    <path d="M 27 128.16 
L 194.4 128.16 
" style="fill: none; stroke: #000000; stroke-width: 0.8; stroke-linejoin: miter; stroke-linecap: square"/>
   </g>
   <g id="patch_6">
    <path d="M 27 17.28 
L 194.4 17.28 
" style="fill: none; stroke: #000000; stroke-width: 0.8; stroke-linejoin: miter; stroke-linecap: square"/>
   </g>
   <g id="PathCollection_1">
    <defs>
     <path id="m4305a76a96" d="M 0 1.581139 
C 0.419323 1.581139 0.821528 1.41454 1.118034 1.118034 
C 1.41454 0.821528 1.581139 0.419323 1.581139 0 
C 1.581139 -0.419323 1.41454 -0.821528 1.118034 -1.118034 
C 0.821528 -1.41454 0.419323 -1.581139 0 -1.581139 
C -0.419323 -1.581139 -0.821528 -1.41454 -1.118034 -1.118034 
C -1.41454 -0.821528 -1.581139 -0.419323 -1.581139 0 
C -1.581139 0.419323 -1.41454 0.821528 -1.118034 1.118034 
C -0.821528 1.41454 -0.419323 1.581139 0 1.581139 
z
" style="stroke: #eef30d"/>
    </defs>
    <g clip-path="url(#pef35b1a3b8)">
     <use xlink:href="#m4305a76a96" x="34.609091" y="71.287325" style="fill: #eef30d; stroke: #eef30d"/>
     <use xlink:href="#m4305a76a96" x="35.116533" y="80.25056" style="fill: #eef30d; stroke: #eef30d"/>
     <use xlink:href="#m4305a76a96" x="35.623975" y="72.39082" style="fill: #eef30d; stroke: #eef30d"/>
     <use xlink:href="#m4305a76a96" x="36.131417" y="73.30209" style="fill: #eef30d; stroke: #eef30d"/>
     <use xlink:href="#m4305a76a96" x="38.871603" y="73.529915" style="fill: #eef30d; stroke: #eef30d"/>
     <use xlink:href="#m4305a76a96" x="39.379045" y="73.700783" style="fill: #eef30d; stroke: #eef30d"/>
     <use xlink:href="#m4305a76a96" x="39.886486" y="48.170807" style="fill: #eef30d; stroke: #eef30d"/>
     <use xlink:href="#m4305a76a96" x="40.393928" y="74.327286" style="fill: #eef30d; stroke: #eef30d"/>
     <use xlink:href="#m4305a76a96" x="43.286347" y="64.018487" style="fill: #eef30d; stroke: #eef30d"/>
     <use xlink:href="#m4305a76a96" x="43.793789" y="71.223252" style="fill: #eef30d; stroke: #eef30d"/>
     <use xlink:href="#m4305a76a96" x="44.301231" y="82.870474" style="fill: #eef30d; stroke: #eef30d"/>
     <use xlink:href="#m4305a76a96" x="44.808673" y="76.833288" style="fill: #eef30d; stroke: #eef30d"/>
     <use xlink:href="#m4305a76a96" x="45.316114" y="72.647115" style="fill: #eef30d; stroke: #eef30d"/>
     <use xlink:href="#m4305a76a96" x="45.823556" y="71.764321" style="fill: #eef30d; stroke: #eef30d"/>
     <use xlink:href="#m4305a76a96" x="46.330998" y="82.386367" style="fill: #eef30d; stroke: #eef30d"/>
     <use xlink:href="#m4305a76a96" x="46.83844" y="71.536502" style="fill: #eef30d; stroke: #eef30d"/>
     <use xlink:href="#m4305a76a96" x="47.345882" y="82.671134" style="fill: #eef30d; stroke: #eef30d"/>
     <use xlink:href="#m4305a76a96" x="47.853324" y="62.594625" style="fill: #eef30d; stroke: #eef30d"/>
     <use xlink:href="#m4305a76a96" x="48.360766" y="57.810369" style="fill: #eef30d; stroke: #eef30d"/>
     <use xlink:href="#m4305a76a96" x="48.868208" y="75.494853" style="fill: #eef30d; stroke: #eef30d"/>
     <use xlink:href="#m4305a76a96" x="49.375649" y="63.719471" style="fill: #eef30d; stroke: #eef30d"/>
     <use xlink:href="#m4305a76a96" x="69.673324" y="56.067958" style="fill: #eef30d; stroke: #eef30d"/>
     <use xlink:href="#m4305a76a96" x="89.970999" y="60.931704" style="fill: #eef30d; stroke: #eef30d"/>
     <use xlink:href="#m4305a76a96" x="110.268674" y="49.655306" style="fill: #eef30d; stroke: #eef30d"/>
     <use xlink:href="#m4305a76a96" x="130.566349" y="54.212174" style="fill: #eef30d; stroke: #eef30d"/>
     <use xlink:href="#m4305a76a96" x="150.864024" y="93.451818" style="fill: #eef30d; stroke: #eef30d"/>
     <use xlink:href="#m4305a76a96" x="171.161699" y="71.254587" style="fill: #eef30d; stroke: #eef30d"/>
     <use xlink:href="#m4305a76a96" x="186.790909" y="74.594727" style="fill: #eef30d; stroke: #eef30d"/>
    </g>
   </g>
  </g>
 </g>
 <defs>
  <clipPath id="pef35b1a3b8">
   <rect x="27" y="17.28" width="167.4" height="110.88"/>
  </clipPath>
 </defs>
</svg>
