<?xml version="1.0" encoding="utf-8" standalone="no"?>
<!DOCTYPE svg PUBLIC "-//W3C//DTD SVG 1.1//EN"
  "http://www.w3.org/Graphics/SVG/1.1/DTD/svg11.dtd">
<svg xmlns:xlink="http://www.w3.org/1999/xlink" width="216pt" height="144pt" viewBox="0 0 216 144" xmlns="http://www.w3.org/2000/svg" version="1.1">
 <metadata>
  <rdf:RDF xmlns:dc="http://purl.org/dc/elements/1.1/" xmlns:cc="http://creativecommons.org/ns#" xmlns:rdf="http://www.w3.org/1999/02/22-rdf-syntax-ns#">
   <cc:Work>
    <dc:type rdf:resource="http://purl.org/dc/dcmitype/StillImage"/>
    <dc:date>2023-04-11T13:58:36.131201</dc:date>
    <dc:format>image/svg+xml</dc:format>
    <dc:creator>
     <cc:Agent>
      <dc:title>Matplotlib v3.7.0, https://matplotlib.org/</dc:title>
     </cc:Agent>
    </dc:creator>
   </cc:Work>
  </rdf:RDF>
 </metadata>
 <defs>
  <style type="text/css">*{stroke-linejoin: round; stroke-linecap: butt}</style>
 </defs>
 <g id="figure_1">
  <g id="patch_1">
   <path d="M 0 144 
L 216 144 
L 216 0 
L 0 0 
L 0 144 
z
" style="fill: none"/>
  </g>
  <g id="axes_1">
   <g id="patch_2">
    <path d="M 27 128.16 
L 194.4 128.16 
L 194.4 17.28 
L 27 17.28 
L 27 128.16 
z
" style="fill: none"/>
   </g>
   <g id="line2d_1">
    <path d="M 34.609091 37.193055 
L 34.710579 41.269536 
L 34.761323 41.158009 
L 35.268765 34.913782 
L 35.57323 24.615089 
L 35.826951 22.605834 
L 36.029928 22.32 
L 36.232905 22.465149 
L 36.53737 23.0585 
L 36.994068 24.478613 
L 37.552254 27.000737 
L 38.161184 30.827416 
L 38.770114 35.924723 
L 38.820858 37.242926 
L 39.125324 57.664539 
L 39.379045 62.340098 
L 39.784998 65.549842 
L 40.089463 67.677666 
L 40.241696 68.752381 
L 40.850626 68.455578 
L 41.307324 68.569733 
L 41.764021 68.94434 
L 42.271463 69.707711 
L 42.829649 70.991859 
L 43.641556 73.51985 
L 44.250487 76.353827 
L 44.757928 80.272086 
L 45.569835 84.206415 
L 47.041417 91.246398 
L 47.44737 93.824259 
L 48.259277 96.90249 
L 50.035324 102.761893 
L 51.506905 106.899278 
L 52.876998 110.118831 
L 54.196347 112.679347 
L 55.515696 114.773166 
L 56.835045 116.469165 
L 58.205138 117.880477 
L 59.67672 119.073684 
L 61.249789 120.056565 
L 62.975092 120.866491 
L 64.903371 121.524254 
L 67.136115 122.0523 
L 69.876301 122.470018 
L 73.428394 122.780214 
L 78.452069 122.98582 
L 87.180069 123.094491 
L 114.328209 123.12 
L 186.790909 123.12 
L 186.790909 123.12 
" clip-path="url(#p5ebbc9c632)" style="fill: none; stroke: #000000; stroke-width: 1.5; stroke-linecap: square"/>
   </g>
   <g id="patch_3">
    <path d="M 27 128.16 
L 27 17.28 
" style="fill: none; stroke: #000000; stroke-width: 0.8; stroke-linejoin: miter; stroke-linecap: square"/>
   </g>
   <g id="patch_4">
    <path d="M 194.4 128.16 
L 194.4 17.28 
" style="fill: none; stroke: #000000; stroke-width: 0.8; stroke-linejoin: miter; stroke-linecap: square"/>
   </g>
   <g id="patch_5">
    <path d="M 27 128.16 
L 194.4 128.16 
" style="fill: none; stroke: #000000; stroke-width: 0.8; stroke-linejoin: miter; stroke-linecap: square"/>
   </g>
   <g id="patch_6">
    <path d="M 27 17.28 
L 194.4 17.28 
" style="fill: none; stroke: #000000; stroke-width: 0.8; stroke-linejoin: miter; stroke-linecap: square"/>
   </g>
   <g id="PathCollection_1">
    <defs>
     <path id="m7b85562925" d="M 0 1.581139 
C 0.419323 1.581139 0.821528 1.41454 1.118034 1.118034 
C 1.41454 0.821528 1.581139 0.419323 1.581139 0 
C 1.581139 -0.419323 1.41454 -0.821528 1.118034 -1.118034 
C 0.821528 -1.41454 0.419323 -1.581139 0 -1.581139 
C -0.419323 -1.581139 -0.821528 -1.41454 -1.118034 -1.118034 
C -1.41454 -0.821528 -1.581139 -0.419323 -1.581139 0 
C -1.581139 0.419323 -1.41454 0.821528 -1.118034 1.118034 
C -0.821528 1.41454 -0.419323 1.581139 0 1.581139 
z
" style="stroke: #eef30d"/>
    </defs>
    <g clip-path="url(#p5ebbc9c632)">
     <use xlink:href="#m7b85562925" x="34.609091" y="37.193055" style="fill: #eef30d; stroke: #eef30d"/>
     <use xlink:href="#m7b85562925" x="35.116533" y="37.782835" style="fill: #eef30d; stroke: #eef30d"/>
     <use xlink:href="#m7b85562925" x="35.623975" y="23.950184" style="fill: #eef30d; stroke: #eef30d"/>
     <use xlink:href="#m7b85562925" x="36.131417" y="22.357499" style="fill: #eef30d; stroke: #eef30d"/>
     <use xlink:href="#m7b85562925" x="38.871603" y="42.29535" style="fill: #eef30d; stroke: #eef30d"/>
     <use xlink:href="#m7b85562925" x="39.379045" y="62.340098" style="fill: #eef30d; stroke: #eef30d"/>
     <use xlink:href="#m7b85562925" x="39.886486" y="66.127377" style="fill: #eef30d; stroke: #eef30d"/>
     <use xlink:href="#m7b85562925" x="40.393928" y="68.62241" style="fill: #eef30d; stroke: #eef30d"/>
     <use xlink:href="#m7b85562925" x="43.286347" y="72.376387" style="fill: #eef30d; stroke: #eef30d"/>
     <use xlink:href="#m7b85562925" x="43.793789" y="74.142154" style="fill: #eef30d; stroke: #eef30d"/>
     <use xlink:href="#m7b85562925" x="44.301231" y="76.846033" style="fill: #eef30d; stroke: #eef30d"/>
     <use xlink:href="#m7b85562925" x="44.808673" y="80.556006" style="fill: #eef30d; stroke: #eef30d"/>
     <use xlink:href="#m7b85562925" x="45.316114" y="83.055299" style="fill: #eef30d; stroke: #eef30d"/>
     <use xlink:href="#m7b85562925" x="45.823556" y="85.334955" style="fill: #eef30d; stroke: #eef30d"/>
     <use xlink:href="#m7b85562925" x="46.330998" y="87.551858" style="fill: #eef30d; stroke: #eef30d"/>
     <use xlink:href="#m7b85562925" x="46.83844" y="89.716593" style="fill: #eef30d; stroke: #eef30d"/>
     <use xlink:href="#m7b85562925" x="47.345882" y="93.344298" style="fill: #eef30d; stroke: #eef30d"/>
     <use xlink:href="#m7b85562925" x="47.853324" y="95.441179" style="fill: #eef30d; stroke: #eef30d"/>
     <use xlink:href="#m7b85562925" x="48.360766" y="97.258985" style="fill: #eef30d; stroke: #eef30d"/>
     <use xlink:href="#m7b85562925" x="48.868208" y="99.003835" style="fill: #eef30d; stroke: #eef30d"/>
     <use xlink:href="#m7b85562925" x="49.375649" y="100.68491" style="fill: #eef30d; stroke: #eef30d"/>
     <use xlink:href="#m7b85562925" x="69.673324" y="122.445657" style="fill: #eef30d; stroke: #eef30d"/>
     <use xlink:href="#m7b85562925" x="89.970999" y="123.105204" style="fill: #eef30d; stroke: #eef30d"/>
     <use xlink:href="#m7b85562925" x="110.268674" y="123.119872" style="fill: #eef30d; stroke: #eef30d"/>
     <use xlink:href="#m7b85562925" x="130.566349" y="123.12" style="fill: #eef30d; stroke: #eef30d"/>
     <use xlink:href="#m7b85562925" x="150.864024" y="123.12" style="fill: #eef30d; stroke: #eef30d"/>
     <use xlink:href="#m7b85562925" x="171.161699" y="123.12" style="fill: #eef30d; stroke: #eef30d"/>
     <use xlink:href="#m7b85562925" x="186.790909" y="123.12" style="fill: #eef30d; stroke: #eef30d"/>
    </g>
   </g>
  </g>
 </g>
 <defs>
  <clipPath id="p5ebbc9c632">
   <rect x="27" y="17.28" width="167.4" height="110.88"/>
  </clipPath>
 </defs>
</svg>
