<?xml version="1.0" encoding="utf-8" standalone="no"?>
<!DOCTYPE svg PUBLIC "-//W3C//DTD SVG 1.1//EN"
  "http://www.w3.org/Graphics/SVG/1.1/DTD/svg11.dtd">
<svg xmlns:xlink="http://www.w3.org/1999/xlink" width="216pt" height="144pt" viewBox="0 0 216 144" xmlns="http://www.w3.org/2000/svg" version="1.1">
 <metadata>
  <rdf:RDF xmlns:dc="http://purl.org/dc/elements/1.1/" xmlns:cc="http://creativecommons.org/ns#" xmlns:rdf="http://www.w3.org/1999/02/22-rdf-syntax-ns#">
   <cc:Work>
    <dc:type rdf:resource="http://purl.org/dc/dcmitype/StillImage"/>
    <dc:date>2023-04-11T14:02:43.680503</dc:date>
    <dc:format>image/svg+xml</dc:format>
    <dc:creator>
     <cc:Agent>
      <dc:title>Matplotlib v3.7.0, https://matplotlib.org/</dc:title>
     </cc:Agent>
    </dc:creator>
   </cc:Work>
  </rdf:RDF>
 </metadata>
 <defs>
  <style type="text/css">*{stroke-linejoin: round; stroke-linecap: butt}</style>
 </defs>
 <g id="figure_1">
  <g id="patch_1">
   <path d="M 0 144 
L 216 144 
L 216 0 
L 0 0 
L 0 144 
z
" style="fill: none"/>
  </g>
  <g id="axes_1">
   <g id="patch_2">
    <path d="M 27 128.16 
L 194.4 128.16 
L 194.4 17.28 
L 27 17.28 
L 27 128.16 
z
" style="fill: none"/>
   </g>
   <g id="line2d_1">
    <path d="M 34.609091 121.626345 
L 35.116533 120.542884 
L 35.877696 118.556907 
L 36.182161 118.376843 
L 36.435882 118.478733 
L 36.740347 118.85555 
L 37.247789 119.929348 
L 38.516393 122.871863 
L 38.820858 123.110777 
L 39.074579 123.060711 
L 39.277556 122.817404 
L 39.531277 122.150288 
L 39.835742 120.659707 
L 40.29244 117.397468 
L 40.850626 111.554601 
L 41.611789 100.96682 
L 42.829649 80.42135 
L 44.707184 48.871396 
L 45.417603 40.853668 
L 46.128021 35.118356 
L 46.83844 31.024748 
L 47.548859 28.103446 
L 48.259277 26.071794 
L 48.969696 24.685869 
L 49.680115 23.753136 
L 50.441277 23.103719 
L 51.303929 22.664933 
L 52.318812 22.408934 
L 53.638161 22.32 
L 55.718673 22.433441 
L 64.903371 23.142367 
L 71.601604 23.304952 
L 85.353278 23.36064 
L 186.790909 23.361123 
L 186.790909 23.361123 
" clip-path="url(#p7806dccadc)" style="fill: none; stroke: #000000; stroke-width: 1.5; stroke-linecap: square"/>
   </g>
   <g id="patch_3">
    <path d="M 27 128.16 
L 27 17.28 
" style="fill: none; stroke: #000000; stroke-width: 0.8; stroke-linejoin: miter; stroke-linecap: square"/>
   </g>
   <g id="patch_4">
    <path d="M 194.4 128.16 
L 194.4 17.28 
" style="fill: none; stroke: #000000; stroke-width: 0.8; stroke-linejoin: miter; stroke-linecap: square"/>
   </g>
   <g id="patch_5">
    <path d="M 27 128.16 
L 194.4 128.16 
" style="fill: none; stroke: #000000; stroke-width: 0.8; stroke-linejoin: miter; stroke-linecap: square"/>
   </g>
   <g id="patch_6">
    <path d="M 27 17.28 
L 194.4 17.28 
" style="fill: none; stroke: #000000; stroke-width: 0.8; stroke-linejoin: miter; stroke-linecap: square"/>
   </g>
   <g id="PathCollection_1">
    <defs>
     <path id="m5bc8f3289a" d="M 0 1.581139 
C 0.419323 1.581139 0.821528 1.41454 1.118034 1.118034 
C 1.41454 0.821528 1.581139 0.419323 1.581139 0 
C 1.581139 -0.419323 1.41454 -0.821528 1.118034 -1.118034 
C 0.821528 -1.41454 0.419323 -1.581139 0 -1.581139 
C -0.419323 -1.581139 -0.821528 -1.41454 -1.118034 -1.118034 
C -1.41454 -0.821528 -1.581139 -0.419323 -1.581139 0 
C -1.581139 0.419323 -1.41454 0.821528 -1.118034 1.118034 
C -0.821528 1.41454 -0.419323 1.581139 0 1.581139 
z
" style="stroke: #eef30d"/>
    </defs>
    <g clip-path="url(#p7806dccadc)">
     <use xlink:href="#m5bc8f3289a" x="34.609091" y="121.626345" style="fill: #eef30d; stroke: #eef30d"/>
     <use xlink:href="#m5bc8f3289a" x="35.116533" y="120.542884" style="fill: #eef30d; stroke: #eef30d"/>
     <use xlink:href="#m5bc8f3289a" x="35.623975" y="118.98994" style="fill: #eef30d; stroke: #eef30d"/>
     <use xlink:href="#m5bc8f3289a" x="36.131417" y="118.382991" style="fill: #eef30d; stroke: #eef30d"/>
     <use xlink:href="#m5bc8f3289a" x="38.871603" y="123.12" style="fill: #eef30d; stroke: #eef30d"/>
     <use xlink:href="#m5bc8f3289a" x="39.379045" y="122.601766" style="fill: #eef30d; stroke: #eef30d"/>
     <use xlink:href="#m5bc8f3289a" x="39.886486" y="120.368969" style="fill: #eef30d; stroke: #eef30d"/>
     <use xlink:href="#m5bc8f3289a" x="40.393928" y="116.480458" style="fill: #eef30d; stroke: #eef30d"/>
     <use xlink:href="#m5bc8f3289a" x="43.286347" y="72.285167" style="fill: #eef30d; stroke: #eef30d"/>
     <use xlink:href="#m5bc8f3289a" x="43.793789" y="63.333687" style="fill: #eef30d; stroke: #eef30d"/>
     <use xlink:href="#m5bc8f3289a" x="44.301231" y="54.782951" style="fill: #eef30d; stroke: #eef30d"/>
     <use xlink:href="#m5bc8f3289a" x="44.808673" y="47.556957" style="fill: #eef30d; stroke: #eef30d"/>
     <use xlink:href="#m5bc8f3289a" x="45.316114" y="41.842001" style="fill: #eef30d; stroke: #eef30d"/>
     <use xlink:href="#m5bc8f3289a" x="45.823556" y="37.342238" style="fill: #eef30d; stroke: #eef30d"/>
     <use xlink:href="#m5bc8f3289a" x="46.330998" y="33.804677" style="fill: #eef30d; stroke: #eef30d"/>
     <use xlink:href="#m5bc8f3289a" x="46.83844" y="31.024748" style="fill: #eef30d; stroke: #eef30d"/>
     <use xlink:href="#m5bc8f3289a" x="47.345882" y="28.837801" style="fill: #eef30d; stroke: #eef30d"/>
     <use xlink:href="#m5bc8f3289a" x="47.853324" y="27.138389" style="fill: #eef30d; stroke: #eef30d"/>
     <use xlink:href="#m5bc8f3289a" x="48.360766" y="25.839511" style="fill: #eef30d; stroke: #eef30d"/>
     <use xlink:href="#m5bc8f3289a" x="48.868208" y="24.852363" style="fill: #eef30d; stroke: #eef30d"/>
     <use xlink:href="#m5bc8f3289a" x="49.375649" y="24.10716" style="fill: #eef30d; stroke: #eef30d"/>
     <use xlink:href="#m5bc8f3289a" x="69.673324" y="23.276449" style="fill: #eef30d; stroke: #eef30d"/>
     <use xlink:href="#m5bc8f3289a" x="89.970999" y="23.362001" style="fill: #eef30d; stroke: #eef30d"/>
     <use xlink:href="#m5bc8f3289a" x="110.268674" y="23.36143" style="fill: #eef30d; stroke: #eef30d"/>
     <use xlink:href="#m5bc8f3289a" x="130.566349" y="23.361123" style="fill: #eef30d; stroke: #eef30d"/>
     <use xlink:href="#m5bc8f3289a" x="150.864024" y="23.361123" style="fill: #eef30d; stroke: #eef30d"/>
     <use xlink:href="#m5bc8f3289a" x="171.161699" y="23.361123" style="fill: #eef30d; stroke: #eef30d"/>
     <use xlink:href="#m5bc8f3289a" x="186.790909" y="23.361123" style="fill: #eef30d; stroke: #eef30d"/>
    </g>
   </g>
  </g>
 </g>
 <defs>
  <clipPath id="p7806dccadc">
   <rect x="27" y="17.28" width="167.4" height="110.88"/>
  </clipPath>
 </defs>
</svg>
