<?xml version="1.0" encoding="utf-8" standalone="no"?>
<!DOCTYPE svg PUBLIC "-//W3C//DTD SVG 1.1//EN"
  "http://www.w3.org/Graphics/SVG/1.1/DTD/svg11.dtd">
<svg xmlns:xlink="http://www.w3.org/1999/xlink" width="216pt" height="144pt" viewBox="0 0 216 144" xmlns="http://www.w3.org/2000/svg" version="1.1">
 <metadata>
  <rdf:RDF xmlns:dc="http://purl.org/dc/elements/1.1/" xmlns:cc="http://creativecommons.org/ns#" xmlns:rdf="http://www.w3.org/1999/02/22-rdf-syntax-ns#">
   <cc:Work>
    <dc:type rdf:resource="http://purl.org/dc/dcmitype/StillImage"/>
    <dc:date>2023-04-11T14:02:50.003196</dc:date>
    <dc:format>image/svg+xml</dc:format>
    <dc:creator>
     <cc:Agent>
      <dc:title>Matplotlib v3.7.0, https://matplotlib.org/</dc:title>
     </cc:Agent>
    </dc:creator>
   </cc:Work>
  </rdf:RDF>
 </metadata>
 <defs>
  <style type="text/css">*{stroke-linejoin: round; stroke-linecap: butt}</style>
 </defs>
 <g id="figure_1">
  <g id="patch_1">
   <path d="M 0 144 
L 216 144 
L 216 0 
L 0 0 
L 0 144 
z
" style="fill: none"/>
  </g>
  <g id="axes_1">
   <g id="patch_2">
    <path d="M 27 128.16 
L 194.4 128.16 
L 194.4 17.28 
L 27 17.28 
L 27 128.16 
z
" style="fill: none"/>
   </g>
   <g id="line2d_1">
    <path d="M 34.609091 84.696216 
L 34.659835 69.725953 
L 34.710579 111.642722 
L 34.761323 89.436811 
L 34.812068 66.669514 
L 34.862812 82.091998 
L 34.913556 78.33385 
L 35.015044 43.153685 
L 35.167277 82.949695 
L 35.218021 52.260581 
L 35.268765 81.452686 
L 35.370254 83.448717 
L 35.471742 57.749709 
L 35.522486 93.678384 
L 35.57323 78.708105 
L 35.623975 63.238781 
L 35.776207 95.17545 
L 35.826951 34.795266 
L 35.877696 74.716026 
L 35.92844 57.749709 
L 36.029928 123.12 
L 36.080672 56.252644 
L 36.131417 74.716026 
L 36.232905 91.682353 
L 36.283649 63.737803 
L 36.334393 87.191269 
L 36.385137 90.684366 
L 36.435882 71.222957 
L 36.486626 76.712068 
L 36.588114 105.654628 
L 36.740347 46.771509 
L 36.791091 51.761559 
L 36.943324 106.652672 
L 36.994068 73.71801 
L 37.044812 103.159575 
L 37.197044 39.28635 
L 37.349277 105.155606 
L 37.400021 97.171481 
L 37.450765 95.17545 
L 37.50151 60.244762 
L 37.552254 90.684366 
L 37.602998 90.185344 
L 37.653742 59.246719 
L 37.704486 59.745741 
L 37.755231 76.712068 
L 37.805975 73.218999 
L 37.856719 47.270475 
L 37.907463 90.684366 
L 37.958207 62.739816 
L 38.059696 83.199206 
L 38.11044 78.209094 
L 38.161184 22.32 
L 38.211928 60.244762 
L 38.313417 90.185344 
L 38.364161 78.209094 
L 38.414905 23.318044 
L 38.465649 65.234869 
L 38.516393 70.224941 
L 38.567138 69.226931 
L 38.668626 100.664522 
L 38.71937 54.256613 
L 38.770114 55.753678 
L 38.820858 94.676428 
L 38.871603 72.719989 
L 38.973091 77.211079 
L 39.023835 91.183331 
L 39.074579 82.700184 
L 39.125324 84.696216 
L 39.176068 66.232856 
L 39.226812 71.222957 
L 39.277556 96.173438 
L 39.3283 54.256613 
L 39.379045 61.492261 
L 39.429789 80.953647 
L 39.480533 74.217015 
L 39.531277 55.753678 
L 39.582021 72.969494 
L 39.632765 100.1655 
L 39.784998 46.771509 
L 39.835742 86.193225 
L 39.937231 82.138799 
L 39.987975 41.344745 
L 40.038719 77.912811 
L 40.089463 61.383096 
L 40.140207 92.836306 
L 40.190952 88.563551 
L 40.241696 82.824912 
L 40.29244 47.89428 
L 40.343184 80.953647 
L 40.444672 67.979377 
L 40.546161 87.191269 
L 40.749138 46.771509 
L 40.799882 87.44078 
L 40.90137 79.830876 
L 40.952114 78.583355 
L 41.002859 48.268519 
L 41.053603 72.220978 
L 41.104347 119.127881 
L 41.155091 68.603182 
L 41.205835 40.533848 
L 41.256579 50.389277 
L 41.307324 83.698228 
L 41.358068 79.955632 
L 41.408812 67.605138 
L 41.459556 85.070454 
L 41.611789 54.880418 
L 41.662533 89.561595 
L 41.713277 59.995252 
L 41.764021 46.147704 
L 41.814766 74.965531 
L 41.86551 74.46652 
L 41.916254 57.624926 
L 41.966998 67.854649 
L 42.017742 89.062573 
L 42.068486 37.914068 
L 42.119231 67.854649 
L 42.169975 65.983345 
L 42.220719 107.151638 
L 42.271463 66.482367 
L 42.372952 52.759603 
L 42.525184 86.56752 
L 42.575928 47.020964 
L 42.626673 67.729866 
L 42.677417 97.296209 
L 42.728161 91.557626 
L 42.829649 75.215037 
L 42.880393 77.585334 
L 42.931138 92.306102 
L 42.981882 42.779391 
L 43.032626 65.609107 
L 43.08337 93.927895 
L 43.134114 76.337807 
L 43.184859 30.05467 
L 43.235603 93.927895 
L 43.286347 91.432842 
L 43.43858 48.642757 
L 43.489324 85.818987 
L 43.540068 60.619001 
L 43.590812 71.721968 
L 43.641556 59.246719 
L 43.793789 80.329887 
L 43.844533 111.892233 
L 43.895277 104.781368 
L 43.946021 23.068533 
L 43.996766 49.141779 
L 44.04751 88.688278 
L 44.098254 74.092265 
L 44.199742 75.215037 
L 44.250487 48.393246 
L 44.351975 87.315996 
L 44.402719 82.201163 
L 44.554952 52.135854 
L 44.605696 94.052679 
L 44.65644 80.828897 
L 44.757928 81.327908 
L 44.808673 65.359596 
L 44.859417 90.06056 
L 44.910161 46.147704 
L 44.960905 97.79523 
L 45.011649 75.090286 
L 45.062394 77.335829 
L 45.163882 98.918002 
L 45.366859 49.017052 
L 45.417603 84.446705 
L 45.519091 83.698228 
L 45.569835 67.480411 
L 45.62058 97.54572 
L 45.671324 65.733834 
L 45.722068 68.353671 
L 45.823556 84.072466 
L 45.925045 74.34177 
L 45.975789 106.652672 
L 46.026533 72.096228 
L 46.128021 96.92197 
L 46.280254 54.630907 
L 46.330998 81.452686 
L 46.432487 80.828897 
L 46.483231 91.058604 
L 46.533975 77.460578 
L 46.584719 83.323934 
L 46.635463 88.813062 
L 46.686208 56.003189 
L 46.736952 75.8388 
L 46.787696 64.985358 
L 46.83844 82.700184 
L 46.889184 72.969494 
L 46.939928 74.46652 
L 47.092161 49.141779 
L 47.193649 73.094244 
L 47.244394 65.796254 
L 47.396626 89.561595 
L 47.44737 47.395259 
L 47.498115 86.692247 
L 47.650347 52.385365 
L 47.80258 76.462563 
L 47.853324 75.215037 
L 47.954812 47.020964 
L 48.107045 93.678384 
L 48.157789 77.834839 
L 48.208533 94.676428 
L 48.259277 93.803168 
L 48.41151 66.482367 
L 48.512998 70.848702 
L 48.563742 54.381396 
L 48.614487 70.100186 
L 48.665231 68.97742 
L 48.766719 103.533813 
L 48.868208 74.840781 
L 48.918952 99.167513 
L 49.071184 62.365521 
L 49.121929 72.969494 
L 49.172673 66.856606 
L 49.223417 63.488292 
L 49.324905 81.577413 
L 49.375649 65.234869 
L 49.426394 84.197194 
L 49.477138 89.312084 
L 49.527882 64.486336 
L 49.578626 69.60117 
L 49.62937 72.969494 
L 49.680115 97.296209 
L 49.730859 60.619001 
L 49.781603 64.735847 
L 49.832347 84.571488 
L 49.883091 79.830876 
L 49.933836 52.510092 
L 49.98458 82.014071 
L 50.136812 57.874437 
L 50.289045 86.193225 
L 50.339789 79.456621 
L 50.390533 74.591276 
L 50.441277 101.724929 
L 50.492022 65.796254 
L 50.542766 77.273454 
L 50.59351 86.318009 
L 50.644254 71.222957 
L 50.694998 78.708105 
L 50.745743 77.897214 
L 50.796487 53.133841 
L 50.948719 95.362541 
L 50.999463 73.780385 
L 51.050208 88.251676 
L 51.100952 84.13483 
L 51.151696 90.06056 
L 51.253184 68.228888 
L 51.456161 96.859607 
L 51.506905 71.035832 
L 51.55765 74.716026 
L 51.709882 95.362541 
L 51.862115 67.355627 
L 51.912859 70.661571 
L 51.963603 79.893251 
L 52.014347 67.605138 
L 52.065091 81.203153 
L 52.115836 78.83286 
L 52.16658 97.046698 
L 52.217324 92.056591 
L 52.369557 82.513037 
L 52.420301 89.873469 
L 52.572533 65.359596 
L 52.623277 67.106116 
L 52.77551 85.444748 
L 52.826254 73.094244 
L 52.876998 75.526918 
L 52.927743 94.052679 
L 53.079975 66.482367 
L 53.181464 76.088304 
L 53.333696 57.812073 
L 53.38444 79.394246 
L 53.435184 70.848702 
L 53.485929 61.305114 
L 53.536673 79.706126 
L 53.638161 77.023948 
L 53.688905 59.49623 
L 53.73965 89.1873 
L 53.790394 76.213056 
L 53.841138 83.448717 
L 53.891882 72.969494 
L 53.942626 80.329887 
L 54.044115 84.103648 
L 54.094859 72.532858 
L 54.145603 78.209094 
L 54.196347 79.269491 
L 54.247091 76.462563 
L 54.34858 88.875425 
L 54.450068 88.625914 
L 54.500812 62.11601 
L 54.551557 82.38831 
L 54.602301 90.216526 
L 54.703789 70.349691 
L 54.754533 77.055136 
L 54.805278 83.635808 
L 54.856022 80.080381 
L 55.008254 67.792286 
L 55.058998 86.380372 
L 55.109743 83.448717 
L 55.211231 67.355627 
L 55.261975 71.784342 
L 55.312719 85.94377 
L 55.363464 66.108129 
L 55.464952 67.729866 
L 55.515696 60.36949 
L 55.56644 76.680881 
L 55.667929 76.431375 
L 55.718673 77.772464 
L 55.769417 63.613076 
L 55.820161 69.320477 
L 55.972394 80.454642 
L 56.073882 73.84276 
L 56.175371 86.848212 
L 56.226115 71.846723 
L 56.276859 79.518996 
L 56.327603 80.329887 
L 56.378347 67.542775 
L 56.429092 82.045253 
L 56.479836 76.181868 
L 56.581324 91.963046 
L 56.632068 65.453142 
L 56.682812 70.224941 
L 56.784301 76.587313 
L 56.835045 75.308601 
L 56.885789 77.522959 
L 56.936533 66.919025 
L 56.987278 82.294764 
L 57.038022 65.609107 
L 57.088766 65.453142 
L 57.240999 76.275433 
L 57.291743 75.370978 
L 57.342487 64.299189 
L 57.443975 81.51505 
L 57.545464 59.153173 
L 57.596208 73.125431 
L 57.74844 61.273932 
L 57.799185 84.633852 
L 57.849929 72.314541 
L 57.900673 77.148698 
L 57.951417 60.650183 
L 58.002161 79.815285 
L 58.10365 65.531124 
L 58.255882 78.349441 
L 58.306626 81.826924 
L 58.357371 69.242494 
L 58.408115 80.48583 
L 58.458859 81.811305 
L 58.509603 67.792286 
L 58.560347 73.125431 
L 58.661836 93.1638 
L 58.71258 89.998197 
L 58.763324 71.004645 
L 58.864813 73.84276 
L 58.915557 75.604889 
L 59.017045 71.176179 
L 59.220022 89.109317 
L 59.32151 75.542512 
L 59.372254 76.649688 
L 59.422999 74.435333 
L 59.473743 95.253377 
L 59.524487 57.203887 
L 59.575231 65.702653 
L 59.727464 81.608595 
L 59.879696 71.004645 
L 59.93044 78.489787 
L 60.031929 60.135598 
L 60.133417 59.02839 
L 60.184161 95.081848 
L 60.387138 69.273676 
L 60.437882 80.064791 
L 60.488627 58.82568 
L 60.539371 80.92246 
L 60.590115 81.421448 
L 60.691603 91.916245 
L 60.742347 68.197706 
L 60.843836 70.27172 
L 60.945324 85.865788 
L 60.996068 77.117511 
L 61.046813 79.659342 
L 61.097557 75.792017 
L 61.148301 75.869988 
L 61.199045 52.2762 
L 61.249789 68.634364 
L 61.402022 84.088029 
L 61.50351 73.000682 
L 61.604999 84.493506 
L 61.706487 73.889544 
L 61.807975 84.60267 
L 61.85872 77.179886 
L 61.909464 83.503271 
L 61.960208 79.090158 
L 62.010952 83.978921 
L 62.061696 93.927895 
L 62.112441 79.175928 
L 62.163185 88.064529 
L 62.366161 69.788317 
L 62.416906 71.035832 
L 62.46765 86.333571 
L 62.518394 82.59102 
L 62.569138 56.806276 
L 62.619882 81.148576 
L 62.670627 75.160458 
L 62.772115 94.645246 
L 62.924348 73.858356 
L 62.975092 67.597329 
L 63.025836 67.784476 
L 63.178068 83.238198 
L 63.228813 72.681003 
L 63.279557 78.474196 
L 63.330301 75.121474 
L 63.482534 92.446449 
L 63.533278 71.589419 
L 63.584022 92.914289 
L 63.68551 68.291251 
L 63.837743 93.36651 
L 63.989975 66.14712 
L 64.091464 90.372435 
L 64.243696 69.406269 
L 64.294441 55.457366 
L 64.345185 75.082488 
L 64.446673 74.86417 
L 64.497417 76.470361 
L 64.64965 65.67928 
L 64.801882 80.602781 
L 64.852627 77.476175 
L 64.903371 63.605266 
L 65.004859 64.673483 
L 65.106348 58.927035 
L 65.207836 92.095583 
L 65.360069 65.328414 
L 65.410813 57.398843 
L 65.512301 78.505384 
L 65.563045 77.881623 
L 65.613789 80.158353 
L 65.664534 62.271976 
L 65.715278 65.952163 
L 65.766022 84.247871 
L 65.816766 82.672879 
L 65.86751 57.710718 
L 65.918255 88.703897 
L 65.968999 77.569737 
L 66.019743 72.092329 
L 66.070487 89.280902 
L 66.121231 78.981 
L 66.171976 79.733415 
L 66.374952 65.164696 
L 66.425696 60.923066 
L 66.476441 64.564319 
L 66.527185 93.639393 
L 66.577929 60.213581 
L 66.679417 76.17797 
L 66.730162 66.283534 
L 66.780906 68.544695 
L 66.83165 82.59102 
L 66.882394 76.70427 
L 66.933138 70.599196 
L 66.983883 83.826832 
L 67.034627 51.309338 
L 67.085371 61.749581 
L 67.186859 86.76242 
L 67.237603 74.673146 
L 67.288348 74.123453 
L 67.339092 65.862495 
L 67.389836 75.211139 
L 67.44058 94.208588 
L 67.542069 66.529168 
L 67.592813 81.678768 
L 67.643557 79.651544 
L 67.694301 77.597031 
L 67.745045 65.398587 
L 67.79579 73.378836 
L 67.846534 73.289173 
L 67.998766 83.265447 
L 68.04951 75.866089 
L 68.100255 80.988734 
L 68.201743 72.969494 
L 68.252487 88.879302 
L 68.303231 77.347526 
L 68.353976 75.273515 
L 68.40472 77.051237 
L 68.556952 87.861819 
L 68.607697 81.889288 
L 68.709185 82.540342 
L 68.759929 63.905455 
L 68.810673 64.092602 
L 68.962906 83.709914 
L 69.01365 65.948287 
L 69.064394 67.265958 
L 69.165883 76.170173 
L 69.216627 94.547768 
L 69.267371 80.076482 
L 69.368859 75.799814 
L 69.470348 75.051301 
L 69.521092 89.846164 
L 69.673324 67.125612 
L 69.825557 77.01615 
L 69.876301 76.302721 
L 69.927045 68.006682 
L 69.97779 87.234137 
L 70.028534 74.94994 
L 70.079278 69.696682 
L 70.180766 79.472212 
L 70.231511 72.975343 
L 70.282255 80.390312 
L 70.332999 85.294626 
L 70.383743 81.127131 
L 70.434487 63.344069 
L 70.485231 77.661356 
L 70.535976 67.946285 
L 70.58672 81.600786 
L 70.637464 72.815501 
L 70.688208 68.659703 
L 70.789697 87.460275 
L 70.840441 70.722002 
L 70.891185 86.327728 
L 70.992673 71.205416 
L 71.144906 73.963616 
L 71.19565 72.548455 
L 71.347883 89.984544 
L 71.500115 72.684902 
L 71.550859 84.754703 
L 71.601604 73.384685 
L 71.652348 79.723667 
L 71.703092 74.716026 
L 71.753836 64.252444 
L 71.80458 93.317799 
L 71.906069 88.7916 
L 71.956813 59.936765 
L 72.058301 64.985358 
L 72.109045 80.199288 
L 72.210534 79.066769 
L 72.261278 70.879889 
L 72.312022 74.815437 
L 72.362766 83.152405 
L 72.413511 76.15068 
L 72.464255 68.577843 
L 72.616487 89.146398 
L 72.717976 64.770905 
L 72.819464 68.497894 
L 72.971697 85.271254 
L 73.174673 66.182179 
L 73.225418 74.25795 
L 73.276162 56.956342 
L 73.326906 73.870048 
L 73.479139 65.375215 
L 73.580627 78.429362 
L 73.682115 59.952384 
L 73.732859 66.251397 
L 73.783604 62.295348 
L 73.935836 85.420365 
L 73.98658 60.665802 
L 74.037325 66.243587 
L 74.138813 82.438987 
L 74.189557 76.931358 
L 74.240301 68.580765 
L 74.291046 70.606017 
L 74.34179 72.150805 
L 74.443278 66.58861 
L 74.544766 85.27322 
L 74.696999 70.0612 
L 74.798487 88.255553 
L 74.849232 80.241195 
L 74.899976 71.18982 
L 74.95072 81.517971 
L 75.153697 71.38572 
L 75.305929 93.38505 
L 75.356673 59.844174 
L 75.407418 88.128859 
L 75.55965 74.460677 
L 75.610394 79.242202 
L 75.661139 68.395584 
L 75.711883 74.337871 
L 75.762627 72.212208 
L 75.965604 79.876683 
L 76.016348 77.472276 
L 76.117836 81.739222 
L 76.16858 78.468348 
L 76.219325 79.104777 
L 76.270069 86.714664 
L 76.320813 79.513147 
L 76.371557 81.436112 
L 76.473046 66.014527 
L 76.52379 67.826389 
L 76.574534 89.111284 
L 76.676022 86.14648 
L 76.726766 59.485499 
L 76.777511 79.243174 
L 76.878999 70.608944 
L 76.929743 71.121596 
L 76.980487 85.1163 
L 77.031232 74.44898 
L 77.13272 79.033632 
L 77.183464 75.861703 
L 77.234208 70.282928 
L 77.335697 70.712743 
L 77.386441 68.970116 
L 77.487929 83.99836 
L 77.589418 85.556835 
L 77.640162 63.126246 
L 77.792394 82.565681 
L 77.843139 66.041327 
L 77.893883 75.024012 
L 77.944627 73.372015 
L 77.995371 77.014201 
L 78.046115 67.833187 
L 78.09686 85.011012 
L 78.198348 83.592435 
L 78.299836 81.876647 
L 78.401325 69.32632 
L 78.452069 80.480953 
L 78.502813 66.180718 
L 78.553557 68.357042 
L 78.604301 79.081388 
L 78.70579 78.239799 
L 78.807278 66.25724 
L 79.010255 87.202955 
L 79.060999 86.357955 
L 79.111743 64.452682 
L 79.162487 73.402231 
L 79.31472 80.258742 
L 79.365464 70.982227 
L 79.466953 90.279844 
L 79.517697 89.621037 
L 79.619185 65.215373 
L 79.771418 79.058971 
L 79.822162 76.39044 
L 79.872906 62.514183 
L 80.025139 89.198031 
L 80.177371 67.933081 
L 80.228115 81.521342 
L 80.27886 68.947699 
L 80.329604 71.535815 
L 80.380348 91.964001 
L 80.431092 67.989602 
L 80.481836 63.698812 
L 80.634069 79.649594 
L 80.786301 70.762449 
L 80.837046 83.256682 
L 80.88779 67.923867 
L 80.938534 71.184218 
L 80.989278 87.007043 
L 81.040022 81.087903 
L 81.090767 79.435665 
L 81.141511 82.958235 
L 81.192255 60.164364 
L 81.242999 64.682473 
L 81.344488 83.111223 
L 81.395232 56.483895 
L 81.445976 84.177979 
L 81.547464 62.066793 
L 81.598208 70.318745 
L 81.699697 84.70498 
L 81.750441 65.104242 
L 81.801185 76.881652 
L 81.851929 75.843185 
L 81.953418 90.000612 
L 82.10565 80.500932 
L 82.156395 79.216375 
L 82.207139 62.105054 
L 82.257883 79.374509 
L 82.308627 81.974574 
L 82.359371 79.043622 
L 82.46086 61.387254 
L 82.613092 93.37505 
L 82.663836 71.38767 
L 82.765325 74.097625 
L 82.816069 80.884204 
L 82.866813 76.429909 
L 82.917557 78.705183 
L 82.968302 69.593641 
L 83.019046 80.697321 
L 83.06979 72.151047 
L 83.171278 61.302192 
L 83.323511 84.690597 
L 83.475743 62.769537 
L 83.526488 85.156246 
L 83.577232 73.8374 
L 83.627976 77.464966 
L 83.67872 93.075367 
L 83.830953 68.299342 
L 83.881697 64.246545 
L 84.135418 85.358956 
L 84.186162 69.076079 
L 84.236906 75.316155 
L 84.28765 85.313391 
L 84.439883 66.914137 
L 84.490627 85.335809 
L 84.541371 73.769665 
L 84.592116 70.011759 
L 84.693604 83.042061 
L 84.744348 74.879643 
L 84.845836 88.053461 
L 85.048813 65.914408 
L 85.099557 74.485651 
L 85.150302 68.677457 
L 85.201046 66.640748 
L 85.302534 81.116658 
L 85.353278 69.622238 
L 85.404023 88.997512 
L 85.454767 72.723158 
L 85.505511 69.486668 
L 85.556255 82.991833 
L 85.606999 68.307095 
L 85.657743 66.282073 
L 85.708488 66.8452 
L 85.86072 81.331807 
L 85.911464 60.43455 
L 85.962209 67.423104 
L 86.012953 80.556486 
L 86.063697 74.108468 
L 86.165185 70.48992 
L 86.21593 97.688763 
L 86.368162 57.028482 
L 86.418906 77.303546 
L 86.46965 73.042589 
L 86.621883 64.737195 
L 86.672627 82.494665 
L 86.723371 75.614148 
L 86.82486 65.09632 
L 86.875604 82.709904 
L 86.926348 73.007749 
L 86.977092 77.326811 
L 87.027837 60.458541 
L 87.078581 88.711089 
L 87.129325 72.668699 
L 87.230813 83.037398 
L 87.281557 79.022665 
L 87.332302 66.552428 
L 87.383046 90.113317 
L 87.43379 74.721509 
L 87.484534 80.248994 
L 87.586023 59.792261 
L 87.636767 72.256065 
L 87.687511 79.085164 
L 87.839744 56.497042 
L 87.941232 80.272018 
L 87.991976 77.913541 
L 88.04272 69.072202 
L 88.093464 75.961603 
L 88.144209 71.425437 
L 88.194953 73.869565 
L 88.245697 82.575345 
L 88.296441 57.353616 
L 88.347185 74.899498 
L 88.448674 72.376797 
L 88.600906 90.477723 
L 88.753139 66.417307 
L 88.854627 81.385884 
L 88.905371 67.816894 
L 89.00686 70.388312 
L 89.057604 62.082637 
L 89.108348 68.679929 
L 89.159092 77.874494 
L 89.209837 72.193813 
L 89.260581 75.397658 
L 89.311325 69.570662 
L 89.362069 75.69492 
L 89.412813 74.845776 
L 89.463558 59.644048 
L 89.514302 90.630092 
L 89.565046 81.899401 
L 89.717278 62.573512 
L 89.768023 73.155888 
L 89.818767 69.306543 
L 89.869511 63.82309 
L 89.970999 78.896207 
L 90.021744 74.51099 
L 90.072488 99.348142 
L 90.123232 85.214508 
L 90.173976 87.416284 
L 90.22472 63.602289 
L 90.275465 73.584361 
L 90.427697 78.776025 
L 90.681418 46.481659 
L 90.732162 94.537262 
L 90.782906 82.081941 
L 90.935139 74.476145 
L 90.985883 80.79521 
L 91.036627 78.806544 
L 91.087372 78.937446 
L 91.138116 90.995622 
L 91.18886 88.101217 
L 91.341092 64.083669 
L 91.442581 79.662814 
L 91.493325 62.85016 
L 91.544069 89.084372 
L 91.594813 76.299496 
L 91.645558 67.049315 
L 91.696302 69.954114 
L 91.79779 88.437756 
L 91.848534 86.318627 
L 91.899279 61.589571 
L 91.950023 81.655003 
L 92.102255 71.104696 
L 92.152999 87.518538 
L 92.203744 65.567419 
L 92.254488 85.955906 
L 92.305232 90.846567 
L 92.457465 63.270413 
L 92.609697 83.641146 
L 92.660441 74.081697 
L 92.711186 73.624627 
L 92.863418 92.395266 
L 92.964906 68.389572 
L 93.066395 83.908692 
L 93.167883 86.942882 
L 93.218627 67.097745 
L 93.269372 78.287307 
L 93.320116 73.380724 
L 93.37086 74.774777 
L 93.421604 89.502658 
L 93.472348 78.516469 
L 93.523093 79.908241 
L 93.573837 62.257705 
L 93.624581 80.024338 
L 93.726069 76.677195 
L 93.776813 86.481559 
L 93.827558 81.116624 
L 93.97979 70.005915 
L 94.030534 72.589694 
L 94.081279 83.454504 
L 94.132023 72.201089 
L 94.182767 81.552187 
L 94.284255 70.570082 
L 94.335 71.840447 
L 94.436488 78.759423 
L 94.487232 72.865206 
L 94.537976 90.61762 
L 94.58872 76.871663 
L 94.639465 67.267082 
L 94.690209 77.301293 
L 94.740953 74.769113 
L 94.791697 78.84985 
L 94.842441 76.323402 
L 94.893186 76.709781 
L 95.045418 68.425417 
L 95.096162 82.463146 
L 95.146907 78.731528 
L 95.299139 69.807138 
L 95.349883 87.302905 
L 95.400627 69.792362 
L 95.705093 88.167963 
L 95.755837 70.66724 
L 95.806581 78.00753 
L 95.857325 83.592884 
L 95.908069 77.566372 
L 96.060302 84.385577 
L 96.212534 73.946711 
L 96.263279 84.730431 
L 96.364767 71.13226 
L 96.415511 82.365836 
L 96.466255 78.75399 
L 96.517 76.072025 
L 96.567744 78.936963 
L 96.618488 76.791073 
L 96.669232 66.36382 
L 96.719976 77.005582 
L 96.770721 82.745918 
L 96.872209 65.073734 
L 96.922953 93.955425 
L 96.973697 80.721671 
L 97.024441 65.883058 
L 97.075186 75.145442 
L 97.12593 73.609171 
L 97.176674 66.799579 
L 97.227418 78.329232 
L 97.278162 66.224316 
L 97.328907 77.364381 
L 97.379651 72.155221 
L 97.430395 72.735265 
L 97.481139 82.77401 
L 97.531883 63.386094 
L 97.582628 89.741944 
L 97.633372 73.936586 
L 97.785604 87.628264 
L 97.887093 70.082775 
L 97.937837 79.626587 
L 98.090069 65.429095 
L 98.191558 84.918028 
L 98.242302 68.451037 
L 98.293046 73.253962 
L 98.34379 77.413188 
L 98.394535 70.206637 
L 98.496023 99.630858 
L 98.546767 80.973935 
L 98.597511 70.550603 
L 98.648255 85.667235 
L 98.699 77.615819 
L 98.851232 68.515592 
L 98.901976 78.512603 
L 98.952721 77.547629 
L 99.054209 63.431547 
L 99.104953 87.454545 
L 99.155697 81.053643 
L 99.30793 70.28494 
L 99.358674 74.742421 
L 99.409418 80.372041 
L 99.510907 67.702617 
L 99.561651 71.679083 
L 99.663139 89.901505 
L 99.713883 86.022315 
L 99.764628 71.231744 
L 99.815372 74.290025 
L 99.91686 91.437056 
L 100.221325 71.640681 
L 100.373558 86.767027 
L 100.475046 56.444848 
L 100.52579 67.677503 
L 100.678023 94.165664 
L 100.779511 75.36714 
L 100.830256 77.894871 
L 100.881 78.828231 
L 101.033232 90.477667 
L 101.083976 68.284846 
L 101.134721 78.812983 
L 101.185465 81.333127 
L 101.236209 78.50176 
L 101.286953 73.207942 
L 101.337697 82.239143 
L 101.388442 69.058605 
L 101.439186 81.489655 
L 101.48993 90.642003 
L 101.540674 56.055327 
L 101.591418 73.818151 
L 101.642163 88.845423 
L 101.692907 80.323369 
L 101.743651 72.517829 
L 101.794395 90.388391 
L 101.845139 75.721448 
L 101.946628 70.996661 
L 102.048116 68.888538 
L 102.09886 88.064697 
L 102.200349 58.83568 
L 102.301837 78.072282 
L 102.352581 75.044811 
L 102.45407 79.379627 
L 102.504814 68.032358 
L 102.555558 72.084744 
L 102.606302 74.09449 
L 102.758535 62.162642 
L 102.860023 84.057578 
L 102.910767 69.169287 
L 102.961511 79.396375 
L 103.012256 89.960722 
L 103.063 68.585428 
L 103.113744 79.408927 
L 103.215232 60.466968 
L 103.265977 70.278209 
L 103.367465 70.151599 
L 103.418209 81.172285 
L 103.519697 66.241902 
L 103.621186 67.376921 
L 103.773418 79.040178 
L 103.874907 83.360397 
L 103.925651 61.870713 
L 103.976395 80.897059 
L 104.027139 83.943694 
L 104.077884 73.722909 
L 104.128628 74.132375 
L 104.179372 84.702396 
L 104.28086 71.041619 
L 104.331604 84.27821 
L 104.382349 78.170429 
L 104.534581 67.477433 
L 104.585325 70.721042 
L 104.63607 58.774159 
L 104.686814 86.270871 
L 104.737558 80.081994 
L 104.788302 78.250271 
L 104.839046 69.89338 
L 104.889791 84.003305 
L 104.940535 68.41508 
L 104.991279 66.068744 
L 105.092767 65.384148 
L 105.143511 73.403186 
L 105.194256 63.987033 
L 105.245 68.768024 
L 105.295744 70.889025 
L 105.346488 91.456439 
L 105.397232 66.087847 
L 105.447977 67.928193 
L 105.498721 87.165761 
L 105.549465 59.879008 
L 105.600209 70.832757 
L 105.650953 76.591611 
L 105.701698 66.320671 
L 105.803186 89.723347 
L 105.85393 56.643344 
L 105.904674 73.871526 
L 106.056907 76.431269 
L 106.107651 83.607829 
L 106.158395 75.379293 
L 106.209139 77.219343 
L 106.259884 87.457298 
L 106.310628 66.415003 
L 106.361372 72.285471 
L 106.412116 81.119383 
L 106.46286 78.358913 
L 106.513605 70.487082 
L 106.564349 80.236824 
L 106.615093 60.86868 
L 106.665837 71.158177 
L 106.716581 87.99149 
L 106.767325 70.05384 
L 106.81807 71.890321 
L 106.919558 87.857437 
L 107.021046 69.638925 
L 107.122535 85.287772 
L 107.173279 62.399793 
L 107.224023 74.246989 
L 107.325512 65.772882 
L 107.376256 87.951937 
L 107.427 58.757192 
L 107.477744 64.620558 
L 107.528488 98.63641 
L 107.579232 78.775357 
L 107.629977 77.684318 
L 107.680721 98.065923 
L 107.731465 76.363303 
L 107.782209 76.333453 
L 107.832953 84.67318 
L 107.934442 59.083056 
L 108.086674 89.70593 
L 108.289651 76.218234 
L 108.340395 86.097601 
L 108.391139 84.175114 
L 108.441884 70.778927 
L 108.492628 83.002901 
L 108.594116 61.145328 
L 108.695605 82.386512 
L 108.746349 80.989739 
L 108.797093 61.772167 
L 108.847837 72.524852 
L 108.898581 75.032507 
L 108.949326 73.487354 
L 109.00007 72.709162 
L 109.101558 81.752425 
L 109.152302 69.969958 
L 109.203046 99.014806 
L 109.253791 85.850674 
L 109.304535 82.668104 
L 109.355279 90.903762 
L 109.406023 82.050478 
L 109.456767 65.056542 
L 109.507512 80.857405 
L 109.558256 73.640067 
L 109.609 87.574216 
L 109.659744 60.062335 
L 109.710488 70.196782 
L 109.761233 65.657874 
L 109.811977 80.203036 
L 109.862721 77.527223 
L 109.913465 68.290015 
L 110.014953 69.958384 
L 110.065698 89.604743 
L 110.116442 79.819516 
L 110.167186 74.301217 
L 110.21793 79.113154 
L 110.268674 84.136909 
L 110.319419 78.662237 
L 110.420907 55.199653 
L 110.471651 68.014716 
L 110.623884 93.220714 
L 110.674628 74.171697 
L 110.725372 77.963887 
L 110.776116 81.569379 
L 110.82686 71.385782 
L 110.877605 71.502161 
L 110.928349 78.130331 
L 111.029837 77.08684 
L 111.080581 78.276925 
L 111.131326 72.832586 
L 111.18207 75.481354 
L 111.334302 95.892408 
L 111.486535 66.991502 
L 111.588023 71.136187 
L 111.638767 84.562274 
L 111.689512 67.490131 
L 111.740256 83.075996 
L 111.791 71.599195 
L 111.841744 85.117817 
L 111.892488 73.193413 
L 111.943233 65.709451 
L 111.993977 68.194672 
L 112.044721 77.921396 
L 112.095465 74.740578 
L 112.196954 59.457744 
L 112.247698 83.382308 
L 112.349186 80.564953 
L 112.39993 76.635041 
L 112.450674 84.047858 
L 112.501419 65.869574 
L 112.602907 68.235236 
L 112.704395 86.457793 
L 112.75514 69.04102 
L 112.805884 102.869949 
L 112.856628 72.38618 
L 113.008861 66.861887 
L 113.211837 81.55421 
L 113.262581 79.660196 
L 113.313326 66.222125 
L 113.36407 83.524733 
L 113.414814 68.5988 
L 113.465558 62.402771 
L 113.516302 95.964323 
L 113.567047 90.613293 
L 113.719279 64.130694 
L 113.770023 91.420988 
L 113.871512 87.574159 
L 114.023744 66.236227 
L 114.074488 78.029858 
L 114.125233 70.645312 
L 114.175977 71.737137 
L 114.226721 92.61219 
L 114.277465 66.843964 
L 114.378954 69.400201 
L 114.480442 84.926568 
L 114.531186 72.884668 
L 114.58193 87.986659 
L 114.632675 80.525973 
L 114.784907 91.587684 
L 114.886395 69.766405 
L 114.93714 73.924872 
L 114.987884 69.277721 
L 115.038628 72.497407 
L 115.089372 84.955671 
L 115.140116 78.523626 
L 115.241605 70.550407 
L 115.292349 85.652964 
L 115.343093 72.320665 
L 115.393837 67.256632 
L 115.444582 84.17399 
L 115.495326 77.847936 
L 115.54607 76.556035 
L 115.647558 76.751661 
L 115.698302 81.875916 
L 115.799791 81.199253 
L 115.901279 64.912151 
L 116.002768 94.705419 
L 116.104256 63.660045 
L 116.155 94.988303 
L 116.205744 85.249736 
L 116.256489 76.342987 
L 116.307233 88.076047 
L 116.357977 68.346536 
L 116.408721 75.183118 
L 116.459465 81.881197 
L 116.510209 79.296813 
L 116.560954 75.354988 
L 116.611698 82.150429 
L 116.662442 65.727823 
L 116.713186 81.070026 
L 116.76393 75.561213 
L 116.814675 79.802279 
L 116.865419 85.229903 
L 116.916163 66.08942 
L 116.966907 71.973057 
L 117.017651 73.645033 
L 117.068396 66.567766 
L 117.169884 88.117791 
L 117.220628 82.55922 
L 117.271372 72.533134 
L 117.322116 87.019797 
L 117.372861 71.381979 
L 117.423605 74.418186 
L 117.474349 90.43109 
L 117.525093 78.237726 
L 117.677326 85.293165 
L 117.72807 76.881681 
L 117.778814 77.714927 
L 117.880303 85.449805 
L 117.981791 60.147958 
L 118.083279 84.766276 
L 118.134023 61.852397 
L 118.184768 78.377066 
L 118.337 66.951556 
L 118.489233 79.871598 
L 118.641465 64.617805 
L 118.69221 84.200115 
L 118.742954 80.000005 
L 118.793698 70.668729 
L 118.895186 70.786265 
L 118.94593 87.621185 
L 118.996675 58.045516 
L 119.047419 74.188479 
L 119.098163 72.569984 
L 119.148907 63.9463 
L 119.199651 83.459617 
L 119.30114 79.927972 
L 119.402628 56.483221 
L 119.453372 66.485513 
L 119.605605 87.813052 
L 119.707093 63.158327 
L 119.757837 79.927338 
L 119.808582 73.229112 
L 119.859326 70.316616 
L 119.91007 83.769356 
L 120.011558 82.331171 
L 120.163791 66.433937 
L 120.316024 87.464152 
L 120.468256 70.56929 
L 120.519 72.483703 
L 120.569744 78.649781 
L 120.671233 57.016458 
L 120.721977 67.315906 
L 120.772721 66.803287 
L 120.823465 86.854842 
L 120.87421 73.16131 
L 120.924954 78.639213 
L 120.975698 73.285302 
L 121.026442 62.068423 
L 121.077186 67.353942 
L 121.127931 83.214432 
L 121.178675 60.862163 
L 121.229419 88.052 
L 121.280163 85.39379 
L 121.330907 64.722588 
L 121.381651 81.85732 
L 121.432396 77.807 
L 121.48314 78.992483 
L 121.584628 80.659616 
L 121.635372 65.979806 
L 121.686117 70.281316 
L 121.736861 71.301872 
L 121.787605 68.434912 
L 121.838349 90.098372 
L 121.889093 66.469389 
L 121.990582 75.583355 
L 122.041326 72.200297 
L 122.09207 72.570659 
L 122.193558 80.237268 
L 122.244303 67.44024 
L 122.345791 83.425008 
L 122.396535 60.546861 
L 122.447279 74.377677 
L 122.498024 76.27668 
L 122.548768 74.035795 
L 122.599512 76.201666 
L 122.701 63.495371 
L 122.751745 68.62515 
L 122.903977 80.744802 
L 122.954721 70.497044 
L 123.005465 89.099429 
L 123.05621 88.595856 
L 123.106954 60.602651 
L 123.157698 68.140679 
L 123.208442 71.24547 
L 123.259186 68.767575 
L 123.309931 88.315164 
L 123.360675 56.617612 
L 123.411419 65.421005 
L 123.563652 86.489312 
L 123.614396 66.029528 
L 123.715884 69.850905 
L 123.817372 82.871263 
L 123.969605 57.051573 
L 124.121838 83.438548 
L 124.172582 74.276407 
L 124.223326 66.932004 
L 124.27407 73.451902 
L 124.324814 74.393605 
L 124.375559 92.695173 
L 124.426303 62.662619 
L 124.477047 72.549247 
L 124.527791 83.116055 
L 124.578535 75.20456 
L 124.629279 76.260539 
L 124.730768 87.073677 
L 124.832256 77.498469 
L 124.984489 84.615705 
L 125.035233 68.835276 
L 125.136721 70.996419 
L 125.187466 73.406096 
L 125.23821 62.740995 
L 125.288954 63.240692 
L 125.441186 78.027571 
L 125.491931 68.749203 
L 125.542675 90.024097 
L 125.644163 89.869873 
L 125.745652 59.627362 
L 125.84714 57.41126 
L 125.897884 93.196218 
L 126.100861 58.542346 
L 126.151605 81.884288 
L 126.202349 71.385844 
L 126.303838 81.964911 
L 126.354582 79.644813 
L 126.405326 89.597721 
L 126.557559 74.855248 
L 126.608303 78.27388 
L 126.659047 66.911441 
L 126.709791 86.433185 
L 126.760535 61.64508 
L 126.81128 77.413401 
L 126.862024 90.077303 
L 126.912768 77.506997 
L 127.115745 67.927351 
L 127.217233 96.160066 
L 127.267977 69.883042 
L 127.369466 74.792295 
L 127.42021 85.779377 
L 127.470954 71.913907 
L 127.521698 94.034756 
L 127.572442 68.39609 
L 127.623187 47.888494 
L 127.673931 74.361019 
L 127.775419 72.897399 
L 127.826163 63.092592 
L 127.876907 70.497774 
L 127.927652 74.850254 
L 127.978396 69.979734 
L 128.02914 61.976956 
L 128.130628 81.470271 
L 128.181373 76.067319 
L 128.232117 81.343915 
L 128.282861 75.96078 
L 128.333605 77.751171 
L 128.384349 76.073136 
L 128.435094 88.262801 
L 128.485838 59.108788 
L 128.536582 77.513762 
L 128.587326 75.404298 
L 128.63807 66.783848 
L 128.688814 80.485706 
L 128.739559 72.359622 
L 128.841047 81.828666 
L 128.99328 66.673841 
L 129.094768 88.909697 
L 129.145512 67.944543 
L 129.196256 71.821839 
L 129.247001 75.545801 
L 129.297745 64.911083 
L 129.348489 66.19982 
L 129.399233 73.514648 
L 129.449977 57.953262 
L 129.500721 70.624018 
L 129.551466 71.739575 
L 129.60221 92.234075 
L 129.652954 75.524269 
L 129.703698 76.715203 
L 129.754442 85.658976 
L 129.855931 74.44353 
L 129.906675 95.628345 
L 129.957419 88.400506 
L 130.008163 74.582595 
L 130.058908 78.000131 
L 130.109652 79.285087 
L 130.160396 57.067248 
L 130.21114 87.339088 
L 130.261884 73.42903 
L 130.312628 79.316185 
L 130.363373 76.324745 
L 130.464861 79.464689 
L 130.566349 81.226604 
L 130.617094 60.44927 
L 130.667838 88.809691 
L 130.718582 83.03088 
L 130.769326 72.684385 
L 130.82007 85.704541 
L 130.870815 82.552647 
L 130.921559 60.603269 
L 130.972303 75.736402 
L 131.023047 74.930383 
L 131.124535 64.752365 
L 131.17528 89.647218 
L 131.226024 78.298516 
L 131.276768 77.630225 
L 131.327512 81.429089 
L 131.429001 65.193911 
L 131.479745 75.528654 
L 131.530489 84.039206 
L 131.682722 72.5197 
L 131.733466 71.206484 
L 131.78421 73.44779 
L 131.936442 57.327659 
L 132.139419 86.419588 
L 132.240908 80.159359 
L 132.291652 89.330287 
L 132.342396 79.9076 
L 132.39314 86.154346 
L 132.443884 71.414537 
L 132.494629 78.770205 
L 132.596117 74.572971 
L 132.646861 74.8773 
L 132.697605 67.111847 
L 132.799094 77.410508 
L 132.849838 66.939701 
L 132.900582 75.137526 
L 132.951326 80.218964 
L 133.00207 79.96775 
L 133.052815 77.096133 
L 133.103559 66.919531 
L 133.154303 79.162219 
L 133.205047 71.789371 
L 133.255791 66.276511 
L 133.306536 74.274215 
L 133.35728 63.545038 
L 133.509512 82.044523 
L 133.560256 87.012493 
L 133.611001 81.62736 
L 133.712489 83.187913 
L 133.763233 69.194963 
L 133.915466 81.55067 
L 134.067698 70.960631 
L 134.118443 83.995888 
L 134.169187 81.765797 
L 134.219931 63.637347 
L 134.270675 85.757859 
L 134.321419 75.33647 
L 134.372163 80.656538 
L 134.422908 78.222741 
L 134.473652 72.560546 
L 134.524396 87.961264 
L 134.57514 78.865874 
L 134.625884 78.851165 
L 134.778117 67.247249 
L 134.93035 80.715901 
L 134.981094 72.102684 
L 135.031838 73.67671 
L 135.082582 80.345697 
L 135.133326 69.851523 
L 135.18407 86.473525 
L 135.234815 81.438977 
L 135.285559 65.992897 
L 135.336303 93.110369 
L 135.387047 76.56557 
L 135.437791 81.107551 
L 135.488536 58.970015 
L 135.590024 88.806151 
L 135.691512 60.9997 
L 135.742257 66.716147 
L 135.894489 83.79419 
L 136.046722 64.725846 
L 136.097466 59.056088 
L 136.198954 80.501207 
L 136.249698 61.198309 
L 136.300443 82.842778 
L 136.351187 87.849852 
L 136.401931 69.571505 
L 136.452675 85.087084 
L 136.655652 63.638527 
L 136.807884 82.478035 
L 136.858629 76.282955 
L 136.909373 70.879799 
L 136.960117 82.534836 
L 137.010861 67.929486 
L 137.061605 83.940323 
L 137.163094 71.225609 
L 137.264582 77.753334 
L 137.366071 68.564134 
L 137.416815 100.168365 
L 137.518303 95.679023 
L 137.569047 70.162319 
L 137.619791 89.282643 
L 137.670536 89.15432 
L 137.822768 72.903462 
L 137.924257 77.410755 
L 137.975001 91.286091 
L 138.025745 59.510051 
L 138.076489 87.219248 
L 138.127233 80.600039 
L 138.177978 90.838646 
L 138.279466 63.391319 
L 138.33021 76.924015 
L 138.380954 70.327336 
L 138.431698 70.993071 
L 138.482443 87.884854 
L 138.533187 70.660262 
L 138.583931 71.012347 
L 138.634675 77.512998 
L 138.685419 65.807716 
L 138.837652 83.325788 
L 138.888396 85.604029 
L 139.040629 65.61113 
L 139.192861 89.935102 
L 139.29435 62.802966 
L 139.345094 75.99212 
L 139.395838 67.867459 
L 139.446582 70.726598 
L 139.548071 82.064974 
L 139.649559 67.714584 
L 139.700303 88.755024 
L 139.751047 83.566309 
L 139.90328 70.74865 
L 139.954024 79.470206 
L 140.004768 69.215245 
L 140.055512 79.207453 
L 140.106257 80.488841 
L 140.157001 76.156102 
L 140.207745 82.447246 
L 140.410722 61.546815 
L 140.461466 80.192923 
L 140.51221 62.253716 
L 140.562954 60.527759 
L 140.715187 92.171936 
L 140.765931 91.489925 
L 140.918164 76.280551 
L 140.968908 77.446235 
L 141.019652 82.09211 
L 141.070396 61.436358 
L 141.12114 62.642506 
L 141.222629 84.392207 
L 141.273373 67.817793 
L 141.324117 91.610832 
L 141.374861 75.965105 
L 141.425606 70.092438 
L 141.47635 72.92725 
L 141.527094 73.941227 
L 141.679326 83.954425 
L 141.730071 85.905959 
L 141.780815 66.293591 
L 141.882303 67.845098 
L 141.983792 71.025567 
L 142.034536 64.212217 
L 142.136024 84.059376 
L 142.186768 78.698453 
L 142.237513 62.558118 
L 142.288257 79.323129 
L 142.339001 67.567327 
L 142.440489 68.362829 
L 142.541978 85.590039 
L 142.592722 81.656576 
L 142.795699 67.505132 
L 142.947931 91.843319 
L 142.998675 80.100877 
L 143.04942 74.420411 
L 143.100164 53.211712 
L 143.150908 72.040949 
L 143.201652 83.868352 
L 143.30314 83.847845 
L 143.353885 77.498559 
L 143.404629 94.081164 
L 143.455373 77.349745 
L 143.506117 81.303541 
L 143.556861 61.59738 
L 143.607606 67.715876 
L 143.65835 68.627453 
L 143.709094 77.439262 
L 143.759838 59.706468 
L 143.810582 74.940192 
L 143.861327 66.585689 
L 143.912071 67.560866 
L 143.962815 78.556123 
L 144.013559 74.964194 
L 144.064303 63.266817 
L 144.115047 73.043718 
L 144.165792 84.020721 
L 144.216536 81.84288 
L 144.318024 76.692971 
L 144.419513 64.765568 
L 144.521001 78.702077 
L 144.571745 72.81331 
L 144.622489 75.754585 
L 144.673234 66.183134 
L 144.723978 72.18924 
L 144.774722 76.348257 
L 144.825466 59.740235 
L 144.977699 82.645574 
L 145.028443 72.349357 
L 145.079187 83.649068 
L 145.129931 74.203891 
L 145.180675 76.246864 
L 145.332908 65.579723 
L 145.383652 77.97427 
L 145.485141 75.983014 
L 145.586629 92.190982 
L 145.738861 57.965735 
L 145.789606 68.492894 
L 145.84035 90.328668 
L 145.891094 90.255461 
L 145.941838 65.362518 
L 145.992582 83.621706 
L 146.094071 68.400584 
L 146.195559 87.036596 
L 146.347792 64.971087 
L 146.398536 64.026755 
L 146.44928 67.918305 
L 146.500024 92.3238 
L 146.550768 66.738676 
L 146.601513 67.629129 
L 146.753745 85.277378 
L 146.804489 78.398905 
L 146.855234 81.885018 
L 146.905978 93.298247 
L 147.007466 60.572649 
L 147.05821 67.274217 
L 147.159699 79.654499 
L 147.261187 63.263614 
L 147.41342 81.923335 
L 147.464164 75.506116 
L 147.514908 84.608064 
L 147.667141 65.542417 
L 147.717885 72.277813 
L 147.768629 63.442784 
L 147.819373 91.960742 
L 147.920861 89.884481 
L 148.02235 63.924726 
L 148.073094 71.604954 
L 148.123838 68.137477 
L 148.174582 81.352286 
L 148.225327 52.815056 
L 148.276071 82.353813 
L 148.326815 56.959826 
L 148.479048 82.10256 
L 148.63128 58.686513 
L 148.682024 80.446417 
L 148.732768 74.251467 
L 148.783513 74.563072 
L 148.834257 78.056017 
L 148.885001 74.937361 
L 148.935745 76.556552 
L 148.986489 83.593053 
L 149.087978 61.874309 
L 149.138722 65.879687 
L 149.189466 96.232149 
L 149.24021 68.771676 
L 149.290955 83.272076 
L 149.341699 51.855049 
L 149.392443 74.498624 
L 149.443187 71.235902 
L 149.493931 71.403935 
L 149.747652 84.872576 
L 149.798396 68.640994 
L 149.849141 77.734327 
L 149.899885 90.371255 
L 149.950629 76.030557 
L 150.052117 83.454279 
L 150.102862 64.8708 
L 150.153606 78.383921 
L 150.20435 69.515546 
L 150.255094 74.795278 
L 150.305838 88.836434 
L 150.356582 84.753298 
L 150.407327 81.165268 
L 150.458071 61.550467 
L 150.508815 73.202431 
L 150.559559 76.273331 
L 150.610303 63.546442 
L 150.661048 86.282782 
L 150.711792 60.735975 
L 150.81328 90.579752 
L 150.914769 61.559737 
L 150.965513 87.088509 
L 151.016257 62.116741 
L 151.168489 91.127204 
L 151.219234 82.785696 
L 151.320722 83.104649 
L 151.371466 72.280977 
L 151.472955 92.880916 
L 151.574443 67.538111 
L 151.625187 79.006007 
L 151.675931 75.845896 
L 151.77742 51.304619 
L 151.878908 76.482452 
L 151.929652 72.73863 
L 152.031141 61.7284 
L 152.132629 87.972894 
L 152.234117 73.8692 
L 152.284862 74.266176 
L 152.487838 92.578143 
L 152.538583 61.413604 
L 152.589327 66.250947 
L 152.640071 67.706156 
L 152.792303 82.803169 
L 152.944536 67.652276 
L 153.096769 79.671006 
L 153.147513 62.422884 
L 153.198257 80.078252 
L 153.249001 82.856543 
L 153.401234 70.423005 
L 153.451978 90.251977 
L 153.502722 81.06716 
L 153.60421 77.039815 
L 153.654955 56.420857 
L 153.705699 77.975489 
L 153.756443 67.535077 
L 153.807187 89.484792 
L 153.857931 64.991763 
L 153.95942 91.57229 
L 154.010164 86.888215 
L 154.111652 70.780692 
L 154.213141 87.845526 
L 154.365373 72.808315 
L 154.466862 87.351223 
L 154.517606 78.341064 
L 154.56835 66.665525 
L 154.619094 67.779195 
L 154.771327 88.997456 
L 154.822071 65.359371 
L 154.872815 67.14258 
L 154.923559 76.788635 
L 154.974304 76.315913 
L 155.025048 72.296697 
L 155.126536 85.780838 
L 155.278769 67.599464 
L 155.431001 83.637044 
L 155.481745 69.018266 
L 155.53249 86.640951 
L 155.583234 72.148063 
L 155.633978 71.995901 
L 155.684722 82.329205 
L 155.735466 72.705066 
L 155.786211 69.216481 
L 155.887699 69.11743 
L 155.938443 86.657806 
L 156.090676 66.170886 
L 156.192164 76.907238 
L 156.242908 75.119738 
L 156.293652 72.140299 
L 156.445885 78.290324 
L 156.598118 60.288192 
L 156.648862 88.013458 
L 156.699606 82.61928 
L 156.75035 77.164171 
L 156.801094 89.234831 
L 156.953327 64.578645 
L 157.105559 88.109026 
L 157.156304 66.791433 
L 157.207048 72.537033 
L 157.257792 76.312497 
L 157.308536 64.340315 
L 157.410025 84.51935 
L 157.460769 71.485075 
L 157.511513 77.342958 
L 157.562257 85.466098 
L 157.663745 65.794681 
L 157.71449 68.021964 
L 157.765234 87.317288 
L 157.815978 71.121658 
L 157.917466 82.190319 
L 158.069699 53.055465 
L 158.120443 86.475997 
L 158.221932 84.259782 
L 158.272676 67.892742 
L 158.32342 76.793051 
L 158.374164 76.104781 
L 158.424908 76.378894 
L 158.475652 92.346555 
L 158.526397 86.299693 
L 158.729373 63.656337 
L 158.780118 83.554848 
L 158.830862 69.128385 
L 158.93235 91.900177 
L 158.983094 80.443125 
L 159.033839 67.467152 
L 159.084583 79.267513 
L 159.135327 85.903431 
L 159.236815 70.079516 
L 159.287559 71.143648 
L 159.338304 82.618999 
L 159.389048 72.281802 
L 159.439792 74.285879 
L 159.490536 70.755533 
L 159.642769 91.486217 
L 159.795001 74.974728 
L 159.845746 89.409843 
L 159.89649 81.77664 
L 159.997978 66.53209 
L 160.048722 67.010829 
L 160.200955 87.462579 
L 160.302443 71.556254 
L 160.353187 75.117176 
L 160.403932 76.099147 
L 160.454676 74.926152 
L 160.50542 70.733026 
L 160.556164 72.829693 
L 160.606908 80.491156 
L 160.708397 62.66335 
L 160.809885 93.711252 
L 160.860629 58.261934 
L 160.911373 70.917229 
L 160.962118 75.165879 
L 161.012862 71.905137 
L 161.063606 69.111643 
L 161.165094 84.351193 
L 161.317327 69.328005 
L 161.368071 73.924906 
L 161.46956 73.139168 
L 161.520304 63.472224 
L 161.672536 76.174924 
L 161.72328 74.55747 
L 161.824769 81.624383 
L 161.875513 65.201383 
L 161.926257 107.214844 
L 161.977001 66.987232 
L 162.027746 81.622192 
L 162.07849 79.763872 
L 162.230722 58.095294 
L 162.281467 59.561234 
L 162.382955 94.291796 
L 162.433699 70.964681 
L 162.484443 79.698328 
L 162.535187 77.90367 
L 162.585932 64.83973 
L 162.636676 83.909703 
L 162.68742 77.43597 
L 162.738164 74.83423 
L 162.839653 74.930017 
L 162.890397 88.94588 
L 163.042629 67.778577 
L 163.144118 91.258673 
L 163.397839 53.556622 
L 163.448583 75.634462 
L 163.499327 72.597492 
L 163.550071 70.301115 
L 163.702304 89.011389 
L 163.803792 68.856233 
L 163.854536 81.681072 
L 163.956025 80.844337 
L 164.057513 76.10402 
L 164.108257 62.801898 
L 164.159001 86.3361 
L 164.209746 81.132828 
L 164.361978 54.90997 
L 164.463467 86.319301 
L 164.514211 64.6064 
L 164.564955 87.458365 
L 164.615699 76.450259 
L 164.666443 88.342132 
L 164.717188 94.18943 
L 164.818676 63.734657 
L 164.86942 90.2749 
L 164.920164 73.084502 
L 164.970908 84.618064 
L 165.021653 61.513779 
L 165.072397 80.552132 
L 165.123141 72.8035 
L 165.173885 81.913896 
L 165.224629 73.152815 
L 165.275374 93.742995 
L 165.326118 93.553713 
L 165.47835 61.145384 
L 165.579839 75.248601 
L 165.630583 72.333272 
L 165.681327 72.978023 
L 165.782815 84.794256 
L 165.83356 68.47778 
L 165.884304 87.925531 
L 165.935048 78.877448 
L 165.985792 80.848236 
L 166.036536 87.916654 
L 166.087281 70.717586 
L 166.138025 72.641377 
L 166.290257 86.48566 
L 166.391746 73.102711 
L 166.44249 75.599772 
L 166.493234 76.122508 
L 166.543978 79.363115 
L 166.594722 72.370095 
L 166.645467 96.170179 
L 166.696211 54.031541 
L 166.746955 70.307143 
L 166.797699 84.376925 
L 166.848443 69.832702 
L 167.000676 92.946988 
L 167.152909 59.280541 
L 167.203653 82.062221 
L 167.254397 65.590735 
L 167.305141 62.998091 
L 167.355885 86.886192 
L 167.457374 82.959977 
L 167.508118 82.122337 
L 167.609606 88.349098 
L 167.66035 85.718081 
L 167.711095 76.999188 
L 167.812583 93.289426 
L 168.01556 63.836742 
L 168.066304 66.790758 
L 168.117048 81.650452 
L 168.167792 71.312227 
L 168.218536 63.816348 
L 168.370769 82.061715 
L 168.523002 70.857354 
L 168.573746 71.920975 
L 168.725978 96.963827 
L 168.776723 61.812114 
L 168.827467 88.458151 
L 168.979699 72.051394 
L 169.030443 82.699342 
L 169.081188 61.288764 
L 169.131932 72.360594 
L 169.182676 66.840762 
L 169.334909 83.143416 
L 169.385653 77.737591 
L 169.436397 90.780945 
L 169.487141 72.059951 
L 169.537885 75.805023 
L 169.58863 84.84499 
L 169.639374 70.046255 
L 169.690118 77.67448 
L 169.740862 74.083034 
L 169.791606 75.18589 
L 169.84235 88.141781 
L 169.893095 78.159692 
L 169.943839 70.005297 
L 169.994583 85.48183 
L 170.045327 62.672058 
L 170.096071 86.021865 
L 170.19756 76.104203 
L 170.248304 92.113562 
L 170.299048 81.749166 
L 170.349792 80.918077 
L 170.400537 75.003663 
L 170.451281 85.039104 
L 170.502025 60.222345 
L 170.552769 76.671987 
L 170.603513 85.284457 
L 170.654257 71.914761 
L 170.705002 84.940614 
L 170.755746 83.276346 
L 170.80649 90.284508 
L 170.857234 62.90595 
L 170.907978 76.792293 
L 170.958723 77.636225 
L 171.060211 67.122915 
L 171.212444 89.069146 
L 171.364676 66.551192 
L 171.41542 100.416528 
L 171.466164 75.239342 
L 171.516909 86.855797 
L 171.567653 70.423275 
L 171.618397 78.778582 
L 171.669141 78.443222 
L 171.719885 85.236083 
L 171.77063 82.369769 
L 171.821374 69.666118 
L 171.872118 80.321482 
L 171.973606 76.042101 
L 172.024351 82.356903 
L 172.075095 63.945457 
L 172.125839 72.477883 
L 172.176583 68.638802 
L 172.227327 69.446665 
L 172.328816 84.033925 
L 172.430304 70.02131 
L 172.481048 71.53868 
L 172.531792 71.618809 
L 172.633281 80.379227 
L 172.684025 75.273576 
L 172.734769 82.826597 
L 172.785513 70.514859 
L 172.887002 72.714904 
L 172.937746 63.16136 
L 172.98849 68.428901 
L 173.089978 77.788145 
L 173.191467 67.903136 
L 173.242211 70.090584 
L 173.292955 89.388212 
L 173.343699 60.913796 
L 173.394444 67.209269 
L 173.445188 85.577903 
L 173.495932 63.949671 
L 173.698909 92.856251 
L 173.749653 56.987131 
L 173.800397 87.907271 
L 173.95263 68.776677 
L 174.003374 80.979081 
L 174.054118 70.07328 
L 174.104862 69.742921 
L 174.155606 66.967287 
L 174.206351 86.102994 
L 174.257095 85.983661 
L 174.358583 86.127603 
L 174.409327 72.141271 
L 174.460072 66.91852 
L 174.56156 78.949205 
L 174.612304 68.053764 
L 174.663048 85.577173 
L 174.713792 79.834168 
L 174.764537 77.472124 
L 174.815281 68.373785 
L 174.866025 71.978052 
L 174.967513 71.671256 
L 175.018258 86.734722 
L 175.17049 62.788077 
L 175.221234 83.871217 
L 175.322723 81.635058 
L 175.373467 75.417821 
L 175.424211 79.215094 
L 175.525699 94.386128 
L 175.576444 67.777622 
L 175.627188 69.873154 
L 175.677932 81.482688 
L 175.728676 60.09464 
L 175.880909 92.840014 
L 176.033141 76.498318 
L 176.083886 86.688539 
L 176.13463 81.681297 
L 176.185374 75.674331 
L 176.236118 87.863617 
L 176.286862 65.426679 
L 176.337606 77.685812 
L 176.388351 83.858744 
L 176.439095 79.644386 
L 176.489839 59.092495 
L 176.540583 98.006256 
L 176.591327 63.161417 
L 176.642072 62.864599 
L 176.794304 81.101123 
L 176.845048 76.345791 
L 176.895793 83.339216 
L 176.997281 65.52427 
L 177.149513 78.675181 
L 177.200258 83.323316 
L 177.301746 56.839256 
L 177.35249 59.995645 
L 177.453979 93.990315 
L 177.504723 77.820861 
L 177.555467 76.719468 
L 177.606211 71.30081 
L 177.656955 75.918445 
L 177.7077 74.735701 
L 177.758444 87.425891 
L 177.809188 78.940738 
L 177.910676 75.935896 
L 177.96142 77.353341 
L 178.012165 66.140603 
L 178.062909 68.92708 
L 178.113653 90.223268 
L 178.164397 70.18245 
L 178.215141 72.666873 
L 178.265886 85.325808 
L 178.31663 79.009479 
L 178.468862 54.690686 
L 178.519607 85.881519 
L 178.570351 74.80938 
L 178.621095 73.3697 
L 178.722583 72.728849 
L 178.773327 83.082232 
L 178.92556 60.258584 
L 178.976304 79.248933 
L 179.027048 63.213892 
L 179.077793 59.522748 
L 179.179281 83.53642 
L 179.230025 83.122066 
L 179.280769 67.539404 
L 179.331514 82.080705 
L 179.433002 69.812644 
L 179.483746 72.699184 
L 179.53449 81.849285 
L 179.585234 74.77758 
L 179.635979 69.394808 
L 179.686723 84.23141 
L 179.737467 68.468454 
L 179.838955 76.532736 
L 179.8897 96.652851 
L 179.940444 88.133691 
L 179.991188 66.061384 
L 180.092676 67.632781 
L 180.143421 87.505896 
L 180.194165 76.797591 
L 180.295653 70.747004 
L 180.346397 72.670193 
L 180.397141 86.467063 
L 180.447886 79.081265 
L 180.49863 69.303116 
L 180.549374 76.813918 
L 180.650862 62.330687 
L 180.803095 76.355809 
L 180.955328 66.576306 
L 181.056816 81.7731 
L 181.10756 73.682098 
L 181.158304 78.586855 
L 181.209048 83.317866 
L 181.310537 67.572608 
L 181.361281 72.125798 
L 181.412025 72.360201 
L 181.462769 74.422911 
L 181.513514 83.548836 
L 181.564258 72.113437 
L 181.615002 78.275127 
L 181.665746 86.122659 
L 181.767235 70.252106 
L 181.817979 80.249539 
L 181.868723 77.941436 
L 181.919467 72.15985 
L 181.970211 74.433142 
L 182.0717 89.476645 
L 182.122444 83.459167 
L 182.173188 85.614423 
L 182.223932 76.55835 
L 182.274676 79.828044 
L 182.325421 79.27126 
L 182.426909 72.478282 
L 182.579142 84.642111 
L 182.68063 61.576873 
L 182.731374 74.738898 
L 182.782118 71.574649 
L 182.883607 71.442191 
L 182.934351 77.282561 
L 182.985095 76.523994 
L 183.035839 80.82847 
L 183.086583 69.596394 
L 183.137328 88.088856 
L 183.188072 85.484077 
L 183.238816 68.447104 
L 183.28956 84.201745 
L 183.340304 73.804353 
L 183.391049 76.3178 
L 183.441793 84.650651 
L 183.492537 78.687761 
L 183.543281 69.584371 
L 183.594025 72.392029 
L 183.644769 71.928683 
L 183.797002 86.766128 
L 183.847746 72.811512 
L 183.89849 85.320751 
L 184.101467 67.835154 
L 184.152211 90.524524 
L 184.202956 71.680032 
L 184.304444 77.754036 
L 184.355188 60.496858 
L 184.456676 61.344611 
L 184.608909 93.759963 
L 184.659653 67.002739 
L 184.761142 68.310915 
L 184.86263 83.103638 
L 184.964118 66.50647 
L 185.014863 71.827806 
L 185.065607 69.815116 
L 185.116351 86.611567 
L 185.167095 72.315243 
L 185.217839 75.179219 
L 185.268583 72.072317 
L 185.319328 65.704844 
L 185.370072 85.179169 
L 185.420816 65.978289 
L 185.573049 82.684734 
L 185.674537 76.651794 
L 185.725281 65.608264 
L 185.82677 94.152629 
L 185.877514 88.958746 
L 185.979002 68.989219 
L 186.029746 89.227584 
L 186.08049 74.138532 
L 186.131235 69.548863 
L 186.181979 75.57699 
L 186.283467 75.551528 
L 186.334211 77.159418 
L 186.384956 82.406963 
L 186.486444 60.603213 
L 186.537188 61.726265 
L 186.689421 79.117177 
L 186.790909 67.291747 
L 186.790909 67.291747 
" clip-path="url(#p1c44c10a75)" style="fill: none; stroke: #000000; stroke-width: 1.5; stroke-linecap: square"/>
   </g>
   <g id="patch_3">
    <path d="M 27 128.16 
L 27 17.28 
" style="fill: none; stroke: #000000; stroke-width: 0.8; stroke-linejoin: miter; stroke-linecap: square"/>
   </g>
   <g id="patch_4">
    <path d="M 194.4 128.16 
L 194.4 17.28 
" style="fill: none; stroke: #000000; stroke-width: 0.8; stroke-linejoin: miter; stroke-linecap: square"/>
   </g>
   <g id="patch_5">
    <path d="M 27 128.16 
L 194.4 128.16 
" style="fill: none; stroke: #000000; stroke-width: 0.8; stroke-linejoin: miter; stroke-linecap: square"/>
   </g>
   <g id="patch_6">
    <path d="M 27 17.28 
L 194.4 17.28 
" style="fill: none; stroke: #000000; stroke-width: 0.8; stroke-linejoin: miter; stroke-linecap: square"/>
   </g>
   <g id="PathCollection_1">
    <defs>
     <path id="ma30a8e0f55" d="M 0 1.581139 
C 0.419323 1.581139 0.821528 1.41454 1.118034 1.118034 
C 1.41454 0.821528 1.581139 0.419323 1.581139 0 
C 1.581139 -0.419323 1.41454 -0.821528 1.118034 -1.118034 
C 0.821528 -1.41454 0.419323 -1.581139 0 -1.581139 
C -0.419323 -1.581139 -0.821528 -1.41454 -1.118034 -1.118034 
C -1.41454 -0.821528 -1.581139 -0.419323 -1.581139 0 
C -1.581139 0.419323 -1.41454 0.821528 -1.118034 1.118034 
C -0.821528 1.41454 -0.419323 1.581139 0 1.581139 
z
" style="stroke: #eef30d"/>
    </defs>
    <g clip-path="url(#p1c44c10a75)">
     <use xlink:href="#ma30a8e0f55" x="34.609091" y="84.696216" style="fill: #eef30d; stroke: #eef30d"/>
     <use xlink:href="#ma30a8e0f55" x="35.116533" y="75.215037" style="fill: #eef30d; stroke: #eef30d"/>
     <use xlink:href="#ma30a8e0f55" x="35.623975" y="63.238781" style="fill: #eef30d; stroke: #eef30d"/>
     <use xlink:href="#ma30a8e0f55" x="36.131417" y="74.716026" style="fill: #eef30d; stroke: #eef30d"/>
     <use xlink:href="#ma30a8e0f55" x="38.871603" y="72.719989" style="fill: #eef30d; stroke: #eef30d"/>
     <use xlink:href="#ma30a8e0f55" x="39.379045" y="61.492261" style="fill: #eef30d; stroke: #eef30d"/>
     <use xlink:href="#ma30a8e0f55" x="39.886486" y="57.250688" style="fill: #eef30d; stroke: #eef30d"/>
     <use xlink:href="#ma30a8e0f55" x="40.393928" y="71.659593" style="fill: #eef30d; stroke: #eef30d"/>
     <use xlink:href="#ma30a8e0f55" x="43.286347" y="91.432842" style="fill: #eef30d; stroke: #eef30d"/>
     <use xlink:href="#ma30a8e0f55" x="43.793789" y="80.329887" style="fill: #eef30d; stroke: #eef30d"/>
     <use xlink:href="#ma30a8e0f55" x="44.301231" y="75.090286" style="fill: #eef30d; stroke: #eef30d"/>
     <use xlink:href="#ma30a8e0f55" x="44.808673" y="65.359596" style="fill: #eef30d; stroke: #eef30d"/>
     <use xlink:href="#ma30a8e0f55" x="45.316114" y="82.949695" style="fill: #eef30d; stroke: #eef30d"/>
     <use xlink:href="#ma30a8e0f55" x="45.823556" y="84.072466" style="fill: #eef30d; stroke: #eef30d"/>
     <use xlink:href="#ma30a8e0f55" x="46.330998" y="81.452686" style="fill: #eef30d; stroke: #eef30d"/>
     <use xlink:href="#ma30a8e0f55" x="46.83844" y="82.700184" style="fill: #eef30d; stroke: #eef30d"/>
     <use xlink:href="#ma30a8e0f55" x="47.345882" y="81.078403" style="fill: #eef30d; stroke: #eef30d"/>
     <use xlink:href="#ma30a8e0f55" x="47.853324" y="75.215037" style="fill: #eef30d; stroke: #eef30d"/>
     <use xlink:href="#ma30a8e0f55" x="48.360766" y="70.599196" style="fill: #eef30d; stroke: #eef30d"/>
     <use xlink:href="#ma30a8e0f55" x="48.868208" y="74.840781" style="fill: #eef30d; stroke: #eef30d"/>
     <use xlink:href="#ma30a8e0f55" x="49.375649" y="65.234869" style="fill: #eef30d; stroke: #eef30d"/>
     <use xlink:href="#ma30a8e0f55" x="69.673324" y="67.125612" style="fill: #eef30d; stroke: #eef30d"/>
     <use xlink:href="#ma30a8e0f55" x="89.970999" y="78.896207" style="fill: #eef30d; stroke: #eef30d"/>
     <use xlink:href="#ma30a8e0f55" x="110.268674" y="84.136909" style="fill: #eef30d; stroke: #eef30d"/>
     <use xlink:href="#ma30a8e0f55" x="130.566349" y="81.226604" style="fill: #eef30d; stroke: #eef30d"/>
     <use xlink:href="#ma30a8e0f55" x="150.864024" y="68.135511" style="fill: #eef30d; stroke: #eef30d"/>
     <use xlink:href="#ma30a8e0f55" x="171.161699" y="71.827323" style="fill: #eef30d; stroke: #eef30d"/>
     <use xlink:href="#ma30a8e0f55" x="186.790909" y="67.291747" style="fill: #eef30d; stroke: #eef30d"/>
    </g>
   </g>
  </g>
 </g>
 <defs>
  <clipPath id="p1c44c10a75">
   <rect x="27" y="17.28" width="167.4" height="110.88"/>
  </clipPath>
 </defs>
</svg>
