<?xml version="1.0" encoding="utf-8" standalone="no"?>
<!DOCTYPE svg PUBLIC "-//W3C//DTD SVG 1.1//EN"
  "http://www.w3.org/Graphics/SVG/1.1/DTD/svg11.dtd">
<svg xmlns:xlink="http://www.w3.org/1999/xlink" width="216pt" height="144pt" viewBox="0 0 216 144" xmlns="http://www.w3.org/2000/svg" version="1.1">
 <metadata>
  <rdf:RDF xmlns:dc="http://purl.org/dc/elements/1.1/" xmlns:cc="http://creativecommons.org/ns#" xmlns:rdf="http://www.w3.org/1999/02/22-rdf-syntax-ns#">
   <cc:Work>
    <dc:type rdf:resource="http://purl.org/dc/dcmitype/StillImage"/>
    <dc:date>2023-04-11T14:02:55.745766</dc:date>
    <dc:format>image/svg+xml</dc:format>
    <dc:creator>
     <cc:Agent>
      <dc:title>Matplotlib v3.7.0, https://matplotlib.org/</dc:title>
     </cc:Agent>
    </dc:creator>
   </cc:Work>
  </rdf:RDF>
 </metadata>
 <defs>
  <style type="text/css">*{stroke-linejoin: round; stroke-linecap: butt}</style>
 </defs>
 <g id="figure_1">
  <g id="patch_1">
   <path d="M 0 144 
L 216 144 
L 216 0 
L 0 0 
L 0 144 
z
" style="fill: none"/>
  </g>
  <g id="axes_1">
   <g id="patch_2">
    <path d="M 27 128.16 
L 194.4 128.16 
L 194.4 17.28 
L 27 17.28 
L 27 128.16 
z
" style="fill: none"/>
   </g>
   <g id="line2d_1">
    <path d="M 34.609091 22.32 
L 34.659835 123.12 
L 34.710579 64.162345 
L 34.812068 44.642001 
L 34.862812 45.229306 
L 35.674719 69.561146 
L 35.826951 70.029214 
L 35.92844 69.934675 
L 36.131417 69.246849 
L 36.689603 66.154627 
L 37.50151 61.915578 
L 37.856719 60.921367 
L 38.11044 60.743671 
L 38.262672 60.894741 
L 38.465649 61.436705 
L 38.770114 63.067034 
L 38.820858 63.010117 
L 38.973091 59.990825 
L 39.023835 60.096363 
L 39.226812 52.167369 
L 39.480533 50.214061 
L 39.582021 50.182419 
L 39.734254 50.656083 
L 39.886486 51.989672 
L 39.937231 51.842075 
L 40.089463 51.492084 
L 40.241696 51.809854 
L 40.495417 52.821622 
L 40.952114 55.867154 
L 42.068486 65.432651 
L 43.337091 75.827012 
L 43.43858 75.582173 
L 43.540068 75.9694 
L 43.895277 79.134746 
L 44.199742 81.173912 
L 44.453463 83.463704 
L 45.417603 92.393469 
L 46.077277 96.514632 
L 46.635463 98.733809 
L 46.889184 99.388642 
L 46.939928 99.326323 
L 47.142905 91.970741 
L 47.396626 89.900127 
L 47.599603 89.505182 
L 47.80258 89.54049 
L 48.259277 90.060652 
L 48.817463 90.573289 
L 49.274161 90.697541 
L 49.730859 90.575411 
L 50.289045 90.156349 
L 50.999463 89.304912 
L 52.014347 87.695035 
L 54.094859 83.859614 
L 56.226115 80.123555 
L 57.849929 77.705652 
L 59.422999 75.763149 
L 60.945324 74.23527 
L 62.46765 73.010112 
L 64.091464 71.982908 
L 65.86751 71.125683 
L 67.846534 70.423387 
L 70.180766 69.845923 
L 72.920952 69.405445 
L 76.676022 69.059313 
L 81.293743 68.852869 
L 90.376953 68.72225 
L 128.02914 68.690029 
L 186.790909 68.690029 
L 186.790909 68.690029 
" clip-path="url(#p08c327ccec)" style="fill: none; stroke: #000000; stroke-width: 1.5; stroke-linecap: square"/>
   </g>
   <g id="patch_3">
    <path d="M 27 128.16 
L 27 17.28 
" style="fill: none; stroke: #000000; stroke-width: 0.8; stroke-linejoin: miter; stroke-linecap: square"/>
   </g>
   <g id="patch_4">
    <path d="M 194.4 128.16 
L 194.4 17.28 
" style="fill: none; stroke: #000000; stroke-width: 0.8; stroke-linejoin: miter; stroke-linecap: square"/>
   </g>
   <g id="patch_5">
    <path d="M 27 128.16 
L 194.4 128.16 
" style="fill: none; stroke: #000000; stroke-width: 0.8; stroke-linejoin: miter; stroke-linecap: square"/>
   </g>
   <g id="patch_6">
    <path d="M 27 17.28 
L 194.4 17.28 
" style="fill: none; stroke: #000000; stroke-width: 0.8; stroke-linejoin: miter; stroke-linecap: square"/>
   </g>
   <g id="PathCollection_1">
    <defs>
     <path id="mfaf3dfd4f5" d="M 0 1.581139 
C 0.419323 1.581139 0.821528 1.41454 1.118034 1.118034 
C 1.41454 0.821528 1.581139 0.419323 1.581139 0 
C 1.581139 -0.419323 1.41454 -0.821528 1.118034 -1.118034 
C 0.821528 -1.41454 0.419323 -1.581139 0 -1.581139 
C -0.419323 -1.581139 -0.821528 -1.41454 -1.118034 -1.118034 
C -1.41454 -0.821528 -1.581139 -0.419323 -1.581139 0 
C -1.581139 0.419323 -1.41454 0.821528 -1.118034 1.118034 
C -0.821528 1.41454 -0.419323 1.581139 0 1.581139 
z
" style="stroke: #eef30d"/>
    </defs>
    <g clip-path="url(#p08c327ccec)">
     <use xlink:href="#mfaf3dfd4f5" x="34.609091" y="22.32" style="fill: #eef30d; stroke: #eef30d"/>
     <use xlink:href="#mfaf3dfd4f5" x="35.116533" y="54.040993" style="fill: #eef30d; stroke: #eef30d"/>
     <use xlink:href="#mfaf3dfd4f5" x="35.623975" y="69.148065" style="fill: #eef30d; stroke: #eef30d"/>
     <use xlink:href="#mfaf3dfd4f5" x="36.131417" y="69.246849" style="fill: #eef30d; stroke: #eef30d"/>
     <use xlink:href="#mfaf3dfd4f5" x="38.871603" y="61.195918" style="fill: #eef30d; stroke: #eef30d"/>
     <use xlink:href="#mfaf3dfd4f5" x="39.379045" y="50.612864" style="fill: #eef30d; stroke: #eef30d"/>
     <use xlink:href="#mfaf3dfd4f5" x="39.886486" y="51.989672" style="fill: #eef30d; stroke: #eef30d"/>
     <use xlink:href="#mfaf3dfd4f5" x="40.393928" y="52.341592" style="fill: #eef30d; stroke: #eef30d"/>
     <use xlink:href="#mfaf3dfd4f5" x="43.286347" y="75.771252" style="fill: #eef30d; stroke: #eef30d"/>
     <use xlink:href="#mfaf3dfd4f5" x="43.793789" y="78.126258" style="fill: #eef30d; stroke: #eef30d"/>
     <use xlink:href="#mfaf3dfd4f5" x="44.301231" y="81.940456" style="fill: #eef30d; stroke: #eef30d"/>
     <use xlink:href="#mfaf3dfd4f5" x="44.808673" y="87.089594" style="fill: #eef30d; stroke: #eef30d"/>
     <use xlink:href="#mfaf3dfd4f5" x="45.316114" y="91.609175" style="fill: #eef30d; stroke: #eef30d"/>
     <use xlink:href="#mfaf3dfd4f5" x="45.823556" y="95.129721" style="fill: #eef30d; stroke: #eef30d"/>
     <use xlink:href="#mfaf3dfd4f5" x="46.330998" y="97.660493" style="fill: #eef30d; stroke: #eef30d"/>
     <use xlink:href="#mfaf3dfd4f5" x="46.83844" y="99.274615" style="fill: #eef30d; stroke: #eef30d"/>
     <use xlink:href="#mfaf3dfd4f5" x="47.345882" y="90.121234" style="fill: #eef30d; stroke: #eef30d"/>
     <use xlink:href="#mfaf3dfd4f5" x="47.853324" y="89.582551" style="fill: #eef30d; stroke: #eef30d"/>
     <use xlink:href="#mfaf3dfd4f5" x="48.360766" y="90.179502" style="fill: #eef30d; stroke: #eef30d"/>
     <use xlink:href="#mfaf3dfd4f5" x="48.868208" y="90.600493" style="fill: #eef30d; stroke: #eef30d"/>
     <use xlink:href="#mfaf3dfd4f5" x="49.375649" y="90.69021" style="fill: #eef30d; stroke: #eef30d"/>
     <use xlink:href="#mfaf3dfd4f5" x="69.673324" y="69.952618" style="fill: #eef30d; stroke: #eef30d"/>
     <use xlink:href="#mfaf3dfd4f5" x="89.970999" y="68.724758" style="fill: #eef30d; stroke: #eef30d"/>
     <use xlink:href="#mfaf3dfd4f5" x="110.268674" y="68.690801" style="fill: #eef30d; stroke: #eef30d"/>
     <use xlink:href="#mfaf3dfd4f5" x="130.566349" y="68.690029" style="fill: #eef30d; stroke: #eef30d"/>
     <use xlink:href="#mfaf3dfd4f5" x="150.864024" y="68.690029" style="fill: #eef30d; stroke: #eef30d"/>
     <use xlink:href="#mfaf3dfd4f5" x="171.161699" y="68.690029" style="fill: #eef30d; stroke: #eef30d"/>
     <use xlink:href="#mfaf3dfd4f5" x="186.790909" y="68.690029" style="fill: #eef30d; stroke: #eef30d"/>
    </g>
   </g>
  </g>
 </g>
 <defs>
  <clipPath id="p08c327ccec">
   <rect x="27" y="17.28" width="167.4" height="110.88"/>
  </clipPath>
 </defs>
</svg>
