<?xml version="1.0" encoding="utf-8" standalone="no"?>
<!DOCTYPE svg PUBLIC "-//W3C//DTD SVG 1.1//EN"
  "http://www.w3.org/Graphics/SVG/1.1/DTD/svg11.dtd">
<svg xmlns:xlink="http://www.w3.org/1999/xlink" width="216pt" height="144pt" viewBox="0 0 216 144" xmlns="http://www.w3.org/2000/svg" version="1.1">
 <metadata>
  <rdf:RDF xmlns:dc="http://purl.org/dc/elements/1.1/" xmlns:cc="http://creativecommons.org/ns#" xmlns:rdf="http://www.w3.org/1999/02/22-rdf-syntax-ns#">
   <cc:Work>
    <dc:type rdf:resource="http://purl.org/dc/dcmitype/StillImage"/>
    <dc:date>2023-04-11T14:02:59.160829</dc:date>
    <dc:format>image/svg+xml</dc:format>
    <dc:creator>
     <cc:Agent>
      <dc:title>Matplotlib v3.7.0, https://matplotlib.org/</dc:title>
     </cc:Agent>
    </dc:creator>
   </cc:Work>
  </rdf:RDF>
 </metadata>
 <defs>
  <style type="text/css">*{stroke-linejoin: round; stroke-linecap: butt}</style>
 </defs>
 <g id="figure_1">
  <g id="patch_1">
   <path d="M 0 144 
L 216 144 
L 216 0 
L 0 0 
L 0 144 
z
" style="fill: none"/>
  </g>
  <g id="axes_1">
   <g id="patch_2">
    <path d="M 27 128.16 
L 194.4 128.16 
L 194.4 17.28 
L 27 17.28 
L 27 128.16 
z
" style="fill: none"/>
   </g>
   <g id="line2d_1">
    <path d="M 34.609091 93.371672 
L 34.710579 123.12 
L 34.761323 121.41574 
L 34.9643 118.172194 
L 35.167277 117.691183 
L 35.218021 117.648918 
L 35.370254 94.937 
L 35.522486 93.346476 
L 35.623975 93.315909 
L 35.776207 93.808344 
L 36.232905 96.513972 
L 37.400021 103.402071 
L 38.008951 105.893726 
L 38.414905 106.836277 
L 38.668626 107.033971 
L 38.770114 107.013793 
L 38.820858 107.322741 
L 39.023835 112.908895 
L 39.074579 112.841815 
L 39.429789 108.875117 
L 39.835742 102.156789 
L 41.358068 69.380278 
L 42.626673 46.840887 
L 43.540068 34.136381 
L 44.04751 30.440183 
L 45.011649 27.102289 
L 45.519091 26.27879 
L 46.026533 25.849044 
L 46.533975 25.689526 
L 46.939928 25.656259 
L 47.142905 23.094961 
L 47.396626 22.349722 
L 47.599603 22.371809 
L 47.904068 22.762017 
L 48.969696 24.74632 
L 50.492022 27.337067 
L 51.912859 29.33446 
L 53.38444 31.025903 
L 54.906766 32.432122 
L 56.479836 33.581475 
L 58.205138 34.555493 
L 60.031929 35.330727 
L 62.163185 35.984617 
L 64.700394 36.512256 
L 67.745045 36.907371 
L 71.500115 37.180598 
L 76.929743 37.362477 
L 90.22472 37.466096 
L 112.958116 37.477276 
L 186.790909 37.477276 
L 186.790909 37.477276 
" clip-path="url(#p4083eac4e3)" style="fill: none; stroke: #000000; stroke-width: 1.5; stroke-linecap: square"/>
   </g>
   <g id="patch_3">
    <path d="M 27 128.16 
L 27 17.28 
" style="fill: none; stroke: #000000; stroke-width: 0.8; stroke-linejoin: miter; stroke-linecap: square"/>
   </g>
   <g id="patch_4">
    <path d="M 194.4 128.16 
L 194.4 17.28 
" style="fill: none; stroke: #000000; stroke-width: 0.8; stroke-linejoin: miter; stroke-linecap: square"/>
   </g>
   <g id="patch_5">
    <path d="M 27 128.16 
L 194.4 128.16 
" style="fill: none; stroke: #000000; stroke-width: 0.8; stroke-linejoin: miter; stroke-linecap: square"/>
   </g>
   <g id="patch_6">
    <path d="M 27 17.28 
L 194.4 17.28 
" style="fill: none; stroke: #000000; stroke-width: 0.8; stroke-linejoin: miter; stroke-linecap: square"/>
   </g>
   <g id="PathCollection_1">
    <defs>
     <path id="m43dd7ecd3a" d="M 0 1.581139 
C 0.419323 1.581139 0.821528 1.41454 1.118034 1.118034 
C 1.41454 0.821528 1.581139 0.419323 1.581139 0 
C 1.581139 -0.419323 1.41454 -0.821528 1.118034 -1.118034 
C 0.821528 -1.41454 0.419323 -1.581139 0 -1.581139 
C -0.419323 -1.581139 -0.821528 -1.41454 -1.118034 -1.118034 
C -1.41454 -0.821528 -1.581139 -0.419323 -1.581139 0 
C -1.581139 0.419323 -1.41454 0.821528 -1.118034 1.118034 
C -0.821528 1.41454 -0.419323 1.581139 0 1.581139 
z
" style="stroke: #eef30d"/>
    </defs>
    <g clip-path="url(#p4083eac4e3)">
     <use xlink:href="#m43dd7ecd3a" x="34.609091" y="93.371672" style="fill: #eef30d; stroke: #eef30d"/>
     <use xlink:href="#m43dd7ecd3a" x="35.116533" y="117.74981" style="fill: #eef30d; stroke: #eef30d"/>
     <use xlink:href="#m43dd7ecd3a" x="35.623975" y="93.315909" style="fill: #eef30d; stroke: #eef30d"/>
     <use xlink:href="#m43dd7ecd3a" x="36.131417" y="95.86" style="fill: #eef30d; stroke: #eef30d"/>
     <use xlink:href="#m43dd7ecd3a" x="38.871603" y="109.179975" style="fill: #eef30d; stroke: #eef30d"/>
     <use xlink:href="#m43dd7ecd3a" x="39.379045" y="109.543187" style="fill: #eef30d; stroke: #eef30d"/>
     <use xlink:href="#m43dd7ecd3a" x="39.886486" y="100.978151" style="fill: #eef30d; stroke: #eef30d"/>
     <use xlink:href="#m43dd7ecd3a" x="40.393928" y="88.987498" style="fill: #eef30d; stroke: #eef30d"/>
     <use xlink:href="#m43dd7ecd3a" x="43.286347" y="37.375293" style="fill: #eef30d; stroke: #eef30d"/>
     <use xlink:href="#m43dd7ecd3a" x="43.793789" y="32.057185" style="fill: #eef30d; stroke: #eef30d"/>
     <use xlink:href="#m43dd7ecd3a" x="44.301231" y="29.516884" style="fill: #eef30d; stroke: #eef30d"/>
     <use xlink:href="#m43dd7ecd3a" x="44.808673" y="27.599114" style="fill: #eef30d; stroke: #eef30d"/>
     <use xlink:href="#m43dd7ecd3a" x="45.316114" y="26.547382" style="fill: #eef30d; stroke: #eef30d"/>
     <use xlink:href="#m43dd7ecd3a" x="45.823556" y="25.981568" style="fill: #eef30d; stroke: #eef30d"/>
     <use xlink:href="#m43dd7ecd3a" x="46.330998" y="25.726338" style="fill: #eef30d; stroke: #eef30d"/>
     <use xlink:href="#m43dd7ecd3a" x="46.83844" y="25.693616" style="fill: #eef30d; stroke: #eef30d"/>
     <use xlink:href="#m43dd7ecd3a" x="47.345882" y="22.400986" style="fill: #eef30d; stroke: #eef30d"/>
     <use xlink:href="#m43dd7ecd3a" x="47.853324" y="22.681303" style="fill: #eef30d; stroke: #eef30d"/>
     <use xlink:href="#m43dd7ecd3a" x="48.360766" y="23.591514" style="fill: #eef30d; stroke: #eef30d"/>
     <use xlink:href="#m43dd7ecd3a" x="48.868208" y="24.556807" style="fill: #eef30d; stroke: #eef30d"/>
     <use xlink:href="#m43dd7ecd3a" x="49.375649" y="25.484196" style="fill: #eef30d; stroke: #eef30d"/>
     <use xlink:href="#m43dd7ecd3a" x="69.673324" y="37.069617" style="fill: #eef30d; stroke: #eef30d"/>
     <use xlink:href="#m43dd7ecd3a" x="89.970999" y="37.465823" style="fill: #eef30d; stroke: #eef30d"/>
     <use xlink:href="#m43dd7ecd3a" x="110.268674" y="37.477003" style="fill: #eef30d; stroke: #eef30d"/>
     <use xlink:href="#m43dd7ecd3a" x="130.566349" y="37.477276" style="fill: #eef30d; stroke: #eef30d"/>
     <use xlink:href="#m43dd7ecd3a" x="150.864024" y="37.477276" style="fill: #eef30d; stroke: #eef30d"/>
     <use xlink:href="#m43dd7ecd3a" x="171.161699" y="37.477276" style="fill: #eef30d; stroke: #eef30d"/>
     <use xlink:href="#m43dd7ecd3a" x="186.790909" y="37.477276" style="fill: #eef30d; stroke: #eef30d"/>
    </g>
   </g>
  </g>
 </g>
 <defs>
  <clipPath id="p4083eac4e3">
   <rect x="27" y="17.28" width="167.4" height="110.88"/>
  </clipPath>
 </defs>
</svg>
