<?xml version="1.0" encoding="utf-8" standalone="no"?>
<!DOCTYPE svg PUBLIC "-//W3C//DTD SVG 1.1//EN"
  "http://www.w3.org/Graphics/SVG/1.1/DTD/svg11.dtd">
<svg xmlns:xlink="http://www.w3.org/1999/xlink" width="216pt" height="144pt" viewBox="0 0 216 144" xmlns="http://www.w3.org/2000/svg" version="1.1">
 <metadata>
  <rdf:RDF xmlns:dc="http://purl.org/dc/elements/1.1/" xmlns:cc="http://creativecommons.org/ns#" xmlns:rdf="http://www.w3.org/1999/02/22-rdf-syntax-ns#">
   <cc:Work>
    <dc:type rdf:resource="http://purl.org/dc/dcmitype/StillImage"/>
    <dc:date>2023-04-11T13:58:46.132601</dc:date>
    <dc:format>image/svg+xml</dc:format>
    <dc:creator>
     <cc:Agent>
      <dc:title>Matplotlib v3.7.0, https://matplotlib.org/</dc:title>
     </cc:Agent>
    </dc:creator>
   </cc:Work>
  </rdf:RDF>
 </metadata>
 <defs>
  <style type="text/css">*{stroke-linejoin: round; stroke-linecap: butt}</style>
 </defs>
 <g id="figure_1">
  <g id="patch_1">
   <path d="M 0 144 
L 216 144 
L 216 0 
L 0 0 
L 0 144 
z
" style="fill: none"/>
  </g>
  <g id="axes_1">
   <g id="patch_2">
    <path d="M 27 128.16 
L 194.4 128.16 
L 194.4 17.28 
L 27 17.28 
L 27 128.16 
z
" style="fill: none"/>
   </g>
   <g id="line2d_1">
    <path d="M 34.609091 52.562466 
L 34.659835 123.12 
L 34.710579 102.111544 
L 34.761323 96.780353 
L 34.812068 97.140799 
L 35.218021 116.849397 
L 35.31951 108.547875 
L 35.370254 108.598501 
L 35.674719 110.939241 
L 35.776207 110.986406 
L 35.92844 110.600213 
L 36.232905 108.78673 
L 36.689603 104.482357 
L 37.400021 95.426017 
L 38.770114 74.855084 
L 38.871603 69.573621 
L 39.125324 62.456813 
L 39.480533 53.571739 
L 39.886486 48.865617 
L 40.089463 47.24404 
L 40.140207 47.265243 
L 40.799882 43.853548 
L 43.235603 35.068041 
L 43.540068 22.445269 
L 43.641556 22.32 
L 43.793789 22.643883 
L 44.098254 23.84941 
L 44.910161 30.206122 
L 45.925045 38.247154 
L 46.939928 47.203149 
L 46.990673 46.543268 
L 47.193649 44.498934 
L 47.295138 44.726755 
L 47.650347 47.066196 
L 50.745743 69.429551 
L 52.115836 77.352323 
L 53.38444 83.456809 
L 54.653045 88.48584 
L 55.870905 92.435413 
L 57.088766 95.657884 
L 58.306626 98.275362 
L 59.575231 100.474173 
L 60.843836 102.235732 
L 62.163185 103.695692 
L 63.584022 104.93086 
L 65.055603 105.92198 
L 66.679417 106.754296 
L 68.556952 107.461126 
L 70.738952 108.035331 
L 73.428394 108.496382 
L 76.878999 108.841684 
L 81.598208 109.0734 
L 89.818767 109.208189 
L 107.274767 109.246267 
L 186.790909 109.247998 
L 186.790909 109.247998 
" clip-path="url(#pb495b586af)" style="fill: none; stroke: #000000; stroke-width: 1.5; stroke-linecap: square"/>
   </g>
   <g id="patch_3">
    <path d="M 27 128.16 
L 27 17.28 
" style="fill: none; stroke: #000000; stroke-width: 0.8; stroke-linejoin: miter; stroke-linecap: square"/>
   </g>
   <g id="patch_4">
    <path d="M 194.4 128.16 
L 194.4 17.28 
" style="fill: none; stroke: #000000; stroke-width: 0.8; stroke-linejoin: miter; stroke-linecap: square"/>
   </g>
   <g id="patch_5">
    <path d="M 27 128.16 
L 194.4 128.16 
" style="fill: none; stroke: #000000; stroke-width: 0.8; stroke-linejoin: miter; stroke-linecap: square"/>
   </g>
   <g id="patch_6">
    <path d="M 27 17.28 
L 194.4 17.28 
" style="fill: none; stroke: #000000; stroke-width: 0.8; stroke-linejoin: miter; stroke-linecap: square"/>
   </g>
   <g id="PathCollection_1">
    <defs>
     <path id="m2971cd54b7" d="M 0 1.581139 
C 0.419323 1.581139 0.821528 1.41454 1.118034 1.118034 
C 1.41454 0.821528 1.581139 0.419323 1.581139 0 
C 1.581139 -0.419323 1.41454 -0.821528 1.118034 -1.118034 
C 0.821528 -1.41454 0.419323 -1.581139 0 -1.581139 
C -0.419323 -1.581139 -0.821528 -1.41454 -1.118034 -1.118034 
C -1.41454 -0.821528 -1.581139 -0.419323 -1.581139 0 
C -1.581139 0.419323 -1.41454 0.821528 -1.118034 1.118034 
C -0.821528 1.41454 -0.419323 1.581139 0 1.581139 
z
" style="stroke: #eef30d"/>
    </defs>
    <g clip-path="url(#pb495b586af)">
     <use xlink:href="#m2971cd54b7" x="34.609091" y="52.562466" style="fill: #eef30d; stroke: #eef30d"/>
     <use xlink:href="#m2971cd54b7" x="35.116533" y="112.490286" style="fill: #eef30d; stroke: #eef30d"/>
     <use xlink:href="#m2971cd54b7" x="35.623975" y="110.791904" style="fill: #eef30d; stroke: #eef30d"/>
     <use xlink:href="#m2971cd54b7" x="36.131417" y="109.510436" style="fill: #eef30d; stroke: #eef30d"/>
     <use xlink:href="#m2971cd54b7" x="38.871603" y="69.573621" style="fill: #eef30d; stroke: #eef30d"/>
     <use xlink:href="#m2971cd54b7" x="39.379045" y="55.388359" style="fill: #eef30d; stroke: #eef30d"/>
     <use xlink:href="#m2971cd54b7" x="39.886486" y="48.865617" style="fill: #eef30d; stroke: #eef30d"/>
     <use xlink:href="#m2971cd54b7" x="40.393928" y="45.662705" style="fill: #eef30d; stroke: #eef30d"/>
     <use xlink:href="#m2971cd54b7" x="43.286347" y="32.292861" style="fill: #eef30d; stroke: #eef30d"/>
     <use xlink:href="#m2971cd54b7" x="43.793789" y="22.643883" style="fill: #eef30d; stroke: #eef30d"/>
     <use xlink:href="#m2971cd54b7" x="44.301231" y="25.691236" style="fill: #eef30d; stroke: #eef30d"/>
     <use xlink:href="#m2971cd54b7" x="44.808673" y="29.456237" style="fill: #eef30d; stroke: #eef30d"/>
     <use xlink:href="#m2971cd54b7" x="45.316114" y="33.274462" style="fill: #eef30d; stroke: #eef30d"/>
     <use xlink:href="#m2971cd54b7" x="45.823556" y="37.388659" style="fill: #eef30d; stroke: #eef30d"/>
     <use xlink:href="#m2971cd54b7" x="46.330998" y="41.754909" style="fill: #eef30d; stroke: #eef30d"/>
     <use xlink:href="#m2971cd54b7" x="46.83844" y="46.32237" style="fill: #eef30d; stroke: #eef30d"/>
     <use xlink:href="#m2971cd54b7" x="47.345882" y="44.98638" style="fill: #eef30d; stroke: #eef30d"/>
     <use xlink:href="#m2971cd54b7" x="47.853324" y="48.599068" style="fill: #eef30d; stroke: #eef30d"/>
     <use xlink:href="#m2971cd54b7" x="48.360766" y="52.505998" style="fill: #eef30d; stroke: #eef30d"/>
     <use xlink:href="#m2971cd54b7" x="48.868208" y="56.37407" style="fill: #eef30d; stroke: #eef30d"/>
     <use xlink:href="#m2971cd54b7" x="49.375649" y="60.125312" style="fill: #eef30d; stroke: #eef30d"/>
     <use xlink:href="#m2971cd54b7" x="69.673324" y="107.782412" style="fill: #eef30d; stroke: #eef30d"/>
     <use xlink:href="#m2971cd54b7" x="89.970999" y="109.20927" style="fill: #eef30d; stroke: #eef30d"/>
     <use xlink:href="#m2971cd54b7" x="110.268674" y="109.246916" style="fill: #eef30d; stroke: #eef30d"/>
     <use xlink:href="#m2971cd54b7" x="130.566349" y="109.247781" style="fill: #eef30d; stroke: #eef30d"/>
     <use xlink:href="#m2971cd54b7" x="150.864024" y="109.247998" style="fill: #eef30d; stroke: #eef30d"/>
     <use xlink:href="#m2971cd54b7" x="171.161699" y="109.247998" style="fill: #eef30d; stroke: #eef30d"/>
     <use xlink:href="#m2971cd54b7" x="186.790909" y="109.247998" style="fill: #eef30d; stroke: #eef30d"/>
    </g>
   </g>
  </g>
 </g>
 <defs>
  <clipPath id="pb495b586af">
   <rect x="27" y="17.28" width="167.4" height="110.88"/>
  </clipPath>
 </defs>
</svg>
