<?xml version="1.0" encoding="utf-8" standalone="no"?>
<!DOCTYPE svg PUBLIC "-//W3C//DTD SVG 1.1//EN"
  "http://www.w3.org/Graphics/SVG/1.1/DTD/svg11.dtd">
<svg xmlns:xlink="http://www.w3.org/1999/xlink" width="216pt" height="144pt" viewBox="0 0 216 144" xmlns="http://www.w3.org/2000/svg" version="1.1">
 <metadata>
  <rdf:RDF xmlns:dc="http://purl.org/dc/elements/1.1/" xmlns:cc="http://creativecommons.org/ns#" xmlns:rdf="http://www.w3.org/1999/02/22-rdf-syntax-ns#">
   <cc:Work>
    <dc:type rdf:resource="http://purl.org/dc/dcmitype/StillImage"/>
    <dc:date>2023-04-11T13:58:49.544137</dc:date>
    <dc:format>image/svg+xml</dc:format>
    <dc:creator>
     <cc:Agent>
      <dc:title>Matplotlib v3.7.0, https://matplotlib.org/</dc:title>
     </cc:Agent>
    </dc:creator>
   </cc:Work>
  </rdf:RDF>
 </metadata>
 <defs>
  <style type="text/css">*{stroke-linejoin: round; stroke-linecap: butt}</style>
 </defs>
 <g id="figure_1">
  <g id="patch_1">
   <path d="M 0 144 
L 216 144 
L 216 0 
L 0 0 
L 0 144 
z
" style="fill: none"/>
  </g>
  <g id="axes_1">
   <g id="patch_2">
    <path d="M 27 128.16 
L 194.4 128.16 
L 194.4 17.28 
L 27 17.28 
L 27 128.16 
z
" style="fill: none"/>
   </g>
   <g id="line2d_1">
    <path d="M 34.609091 52.701867 
L 34.659835 57.634144 
L 34.710579 54.12813 
L 34.913556 50.69927 
L 35.116533 50.046025 
L 35.218021 50.064641 
L 35.370254 44.789208 
L 35.471742 44.681926 
L 35.522486 44.722096 
L 35.776207 45.142161 
L 36.182161 46.358023 
L 36.689603 48.735863 
L 37.247789 52.510327 
L 37.856719 58.238401 
L 38.516393 66.638679 
L 38.820858 71.746894 
L 39.3283 96.219972 
L 39.886486 112.235287 
L 40.190952 117.50925 
L 40.698393 122.052079 
L 41.002859 123.054357 
L 41.155091 123.105304 
L 41.307324 122.877268 
L 41.561045 121.910261 
L 41.916254 119.40481 
L 42.372952 114.384111 
L 42.981882 104.970117 
L 43.946021 85.791548 
L 44.098254 83.58519 
L 44.199742 85.237177 
L 44.250487 85.131225 
L 44.453463 82.789963 
L 46.83844 47.572906 
L 46.939928 46.443751 
L 47.193649 40.867782 
L 47.498115 36.623285 
L 48.056301 32.312166 
L 48.715975 28.913433 
L 49.426394 26.391572 
L 50.136812 24.681183 
L 50.796487 23.625264 
L 51.456161 22.948751 
L 52.16658 22.53187 
L 52.927743 22.342044 
L 53.841138 22.350127 
L 55.109743 22.613188 
L 57.342487 23.35265 
L 61.046813 24.523445 
L 63.888487 25.15293 
L 67.034627 25.605327 
L 70.891185 25.923254 
L 76.422301 26.132674 
L 85.150302 26.232853 
L 113.414814 26.258327 
L 186.790909 26.258327 
L 186.790909 26.258327 
" clip-path="url(#p1199bba8c4)" style="fill: none; stroke: #000000; stroke-width: 1.5; stroke-linecap: square"/>
   </g>
   <g id="patch_3">
    <path d="M 27 128.16 
L 27 17.28 
" style="fill: none; stroke: #000000; stroke-width: 0.8; stroke-linejoin: miter; stroke-linecap: square"/>
   </g>
   <g id="patch_4">
    <path d="M 194.4 128.16 
L 194.4 17.28 
" style="fill: none; stroke: #000000; stroke-width: 0.8; stroke-linejoin: miter; stroke-linecap: square"/>
   </g>
   <g id="patch_5">
    <path d="M 27 128.16 
L 194.4 128.16 
" style="fill: none; stroke: #000000; stroke-width: 0.8; stroke-linejoin: miter; stroke-linecap: square"/>
   </g>
   <g id="patch_6">
    <path d="M 27 17.28 
L 194.4 17.28 
" style="fill: none; stroke: #000000; stroke-width: 0.8; stroke-linejoin: miter; stroke-linecap: square"/>
   </g>
   <g id="PathCollection_1">
    <defs>
     <path id="m14af3d5e07" d="M 0 1.581139 
C 0.419323 1.581139 0.821528 1.41454 1.118034 1.118034 
C 1.41454 0.821528 1.581139 0.419323 1.581139 0 
C 1.581139 -0.419323 1.41454 -0.821528 1.118034 -1.118034 
C 0.821528 -1.41454 0.419323 -1.581139 0 -1.581139 
C -0.419323 -1.581139 -0.821528 -1.41454 -1.118034 -1.118034 
C -1.41454 -0.821528 -1.581139 -0.419323 -1.581139 0 
C -1.581139 0.419323 -1.41454 0.821528 -1.118034 1.118034 
C -0.821528 1.41454 -0.419323 1.581139 0 1.581139 
z
" style="stroke: #eef30d"/>
    </defs>
    <g clip-path="url(#p1199bba8c4)">
     <use xlink:href="#m14af3d5e07" x="34.609091" y="52.701867" style="fill: #eef30d; stroke: #eef30d"/>
     <use xlink:href="#m14af3d5e07" x="35.116533" y="50.046025" style="fill: #eef30d; stroke: #eef30d"/>
     <use xlink:href="#m14af3d5e07" x="35.623975" y="44.855341" style="fill: #eef30d; stroke: #eef30d"/>
     <use xlink:href="#m14af3d5e07" x="36.131417" y="46.172117" style="fill: #eef30d; stroke: #eef30d"/>
     <use xlink:href="#m14af3d5e07" x="38.871603" y="74.879185" style="fill: #eef30d; stroke: #eef30d"/>
     <use xlink:href="#m14af3d5e07" x="39.379045" y="98.03632" style="fill: #eef30d; stroke: #eef30d"/>
     <use xlink:href="#m14af3d5e07" x="39.886486" y="112.235287" style="fill: #eef30d; stroke: #eef30d"/>
     <use xlink:href="#m14af3d5e07" x="40.393928" y="119.734494" style="fill: #eef30d; stroke: #eef30d"/>
     <use xlink:href="#m14af3d5e07" x="43.286347" y="99.179755" style="fill: #eef30d; stroke: #eef30d"/>
     <use xlink:href="#m14af3d5e07" x="43.793789" y="88.763139" style="fill: #eef30d; stroke: #eef30d"/>
     <use xlink:href="#m14af3d5e07" x="44.301231" y="84.744746" style="fill: #eef30d; stroke: #eef30d"/>
     <use xlink:href="#m14af3d5e07" x="44.808673" y="76.821307" style="fill: #eef30d; stroke: #eef30d"/>
     <use xlink:href="#m14af3d5e07" x="45.316114" y="68.114076" style="fill: #eef30d; stroke: #eef30d"/>
     <use xlink:href="#m14af3d5e07" x="45.823556" y="60.270905" style="fill: #eef30d; stroke: #eef30d"/>
     <use xlink:href="#m14af3d5e07" x="46.330998" y="53.431776" style="fill: #eef30d; stroke: #eef30d"/>
     <use xlink:href="#m14af3d5e07" x="46.83844" y="47.572906" style="fill: #eef30d; stroke: #eef30d"/>
     <use xlink:href="#m14af3d5e07" x="47.345882" y="38.246231" style="fill: #eef30d; stroke: #eef30d"/>
     <use xlink:href="#m14af3d5e07" x="47.853324" y="33.668622" style="fill: #eef30d; stroke: #eef30d"/>
     <use xlink:href="#m14af3d5e07" x="48.360766" y="30.583652" style="fill: #eef30d; stroke: #eef30d"/>
     <use xlink:href="#m14af3d5e07" x="48.868208" y="28.290071" style="fill: #eef30d; stroke: #eef30d"/>
     <use xlink:href="#m14af3d5e07" x="49.375649" y="26.541718" style="fill: #eef30d; stroke: #eef30d"/>
     <use xlink:href="#m14af3d5e07" x="69.673324" y="25.843895" style="fill: #eef30d; stroke: #eef30d"/>
     <use xlink:href="#m14af3d5e07" x="89.970999" y="26.248284" style="fill: #eef30d; stroke: #eef30d"/>
     <use xlink:href="#m14af3d5e07" x="110.268674" y="26.258327" style="fill: #eef30d; stroke: #eef30d"/>
     <use xlink:href="#m14af3d5e07" x="130.566349" y="26.258327" style="fill: #eef30d; stroke: #eef30d"/>
     <use xlink:href="#m14af3d5e07" x="150.864024" y="26.258327" style="fill: #eef30d; stroke: #eef30d"/>
     <use xlink:href="#m14af3d5e07" x="171.161699" y="26.258327" style="fill: #eef30d; stroke: #eef30d"/>
     <use xlink:href="#m14af3d5e07" x="186.790909" y="26.258327" style="fill: #eef30d; stroke: #eef30d"/>
    </g>
   </g>
  </g>
 </g>
 <defs>
  <clipPath id="p1199bba8c4">
   <rect x="27" y="17.28" width="167.4" height="110.88"/>
  </clipPath>
 </defs>
</svg>
