<?xml version="1.0" encoding="utf-8" standalone="no"?>
<!DOCTYPE svg PUBLIC "-//W3C//DTD SVG 1.1//EN"
  "http://www.w3.org/Graphics/SVG/1.1/DTD/svg11.dtd">
<svg xmlns:xlink="http://www.w3.org/1999/xlink" width="216pt" height="144pt" viewBox="0 0 216 144" xmlns="http://www.w3.org/2000/svg" version="1.1">
 <metadata>
  <rdf:RDF xmlns:dc="http://purl.org/dc/elements/1.1/" xmlns:cc="http://creativecommons.org/ns#" xmlns:rdf="http://www.w3.org/1999/02/22-rdf-syntax-ns#">
   <cc:Work>
    <dc:type rdf:resource="http://purl.org/dc/dcmitype/StillImage"/>
    <dc:date>2023-04-11T14:02:26.233979</dc:date>
    <dc:format>image/svg+xml</dc:format>
    <dc:creator>
     <cc:Agent>
      <dc:title>Matplotlib v3.7.0, https://matplotlib.org/</dc:title>
     </cc:Agent>
    </dc:creator>
   </cc:Work>
  </rdf:RDF>
 </metadata>
 <defs>
  <style type="text/css">*{stroke-linejoin: round; stroke-linecap: butt}</style>
 </defs>
 <g id="figure_1">
  <g id="patch_1">
   <path d="M 0 144 
L 216 144 
L 216 0 
L 0 0 
L 0 144 
z
" style="fill: none"/>
  </g>
  <g id="axes_1">
   <g id="patch_2">
    <path d="M 27 128.16 
L 194.4 128.16 
L 194.4 17.28 
L 27 17.28 
L 27 128.16 
z
" style="fill: none"/>
   </g>
   <g id="line2d_1">
    <path d="M 34.609091 91.218702 
L 34.659835 22.32 
L 34.710579 30.134185 
L 34.862812 40.703534 
L 34.913556 40.724684 
L 35.065789 38.178128 
L 35.218021 33.972273 
L 35.370254 73.634444 
L 35.57323 78.163738 
L 35.826951 79.659144 
L 37.298533 84.96128 
L 38.364161 90.735976 
L 38.922347 94.413777 
L 39.023835 95.429599 
L 39.176068 93.243315 
L 39.277556 93.287451 
L 39.734254 94.455991 
L 39.784998 96.463374 
L 39.835742 96.081256 
L 40.29244 93.732055 
L 40.444672 93.658927 
L 40.749138 93.870123 
L 41.408812 94.661884 
L 43.235603 97.229891 
L 43.540068 83.732852 
L 43.6923 84.570334 
L 44.04751 87.819878 
L 44.148998 79.341597 
L 44.301231 74.836255 
L 44.351975 74.75484 
L 44.65644 76.375218 
L 46.939928 94.4199 
L 47.092161 97.727902 
L 47.193649 98.204039 
L 47.498115 103.54837 
L 48.208533 111.795125 
L 48.817463 116.528873 
L 49.426394 119.635869 
L 49.98458 121.42207 
L 50.492022 122.398856 
L 50.999463 122.922209 
L 51.506905 123.113143 
L 52.014347 123.064082 
L 52.674022 122.754357 
L 53.587417 122.050018 
L 55.515696 120.196888 
L 57.697696 118.224775 
L 59.422999 116.962699 
L 61.148301 115.973263 
L 62.975092 115.18181 
L 65.004859 114.547585 
L 67.389836 114.045478 
L 70.332999 113.669599 
L 74.240301 113.416179 
L 80.025139 113.283675 
L 93.726069 113.263973 
L 164.311234 113.287248 
L 186.790909 113.287248 
L 186.790909 113.287248 
" clip-path="url(#p8bf34bec77)" style="fill: none; stroke: #000000; stroke-width: 1.5; stroke-linecap: square"/>
   </g>
   <g id="patch_3">
    <path d="M 27 128.16 
L 27 17.28 
" style="fill: none; stroke: #000000; stroke-width: 0.8; stroke-linejoin: miter; stroke-linecap: square"/>
   </g>
   <g id="patch_4">
    <path d="M 194.4 128.16 
L 194.4 17.28 
" style="fill: none; stroke: #000000; stroke-width: 0.8; stroke-linejoin: miter; stroke-linecap: square"/>
   </g>
   <g id="patch_5">
    <path d="M 27 128.16 
L 194.4 128.16 
" style="fill: none; stroke: #000000; stroke-width: 0.8; stroke-linejoin: miter; stroke-linecap: square"/>
   </g>
   <g id="patch_6">
    <path d="M 27 17.28 
L 194.4 17.28 
" style="fill: none; stroke: #000000; stroke-width: 0.8; stroke-linejoin: miter; stroke-linecap: square"/>
   </g>
   <g id="PathCollection_1">
    <defs>
     <path id="m4ac1e99f24" d="M 0 1.581139 
C 0.419323 1.581139 0.821528 1.41454 1.118034 1.118034 
C 1.41454 0.821528 1.581139 0.419323 1.581139 0 
C 1.581139 -0.419323 1.41454 -0.821528 1.118034 -1.118034 
C 0.821528 -1.41454 0.419323 -1.581139 0 -1.581139 
C -0.419323 -1.581139 -0.821528 -1.41454 -1.118034 -1.118034 
C -1.41454 -0.821528 -1.581139 -0.419323 -1.581139 0 
C -1.581139 0.419323 -1.41454 0.821528 -1.118034 1.118034 
C -0.821528 1.41454 -0.419323 1.581139 0 1.581139 
z
" style="stroke: #eef30d"/>
    </defs>
    <g clip-path="url(#p8bf34bec77)">
     <use xlink:href="#m4ac1e99f24" x="34.609091" y="91.218702" style="fill: #eef30d; stroke: #eef30d"/>
     <use xlink:href="#m4ac1e99f24" x="35.116533" y="36.900214" style="fill: #eef30d; stroke: #eef30d"/>
     <use xlink:href="#m4ac1e99f24" x="35.623975" y="78.608284" style="fill: #eef30d; stroke: #eef30d"/>
     <use xlink:href="#m4ac1e99f24" x="36.131417" y="80.539468" style="fill: #eef30d; stroke: #eef30d"/>
     <use xlink:href="#m4ac1e99f24" x="38.871603" y="93.911545" style="fill: #eef30d; stroke: #eef30d"/>
     <use xlink:href="#m4ac1e99f24" x="39.379045" y="93.554391" style="fill: #eef30d; stroke: #eef30d"/>
     <use xlink:href="#m4ac1e99f24" x="39.886486" y="95.76085" style="fill: #eef30d; stroke: #eef30d"/>
     <use xlink:href="#m4ac1e99f24" x="40.393928" y="93.655073" style="fill: #eef30d; stroke: #eef30d"/>
     <use xlink:href="#m4ac1e99f24" x="43.286347" y="93.909092" style="fill: #eef30d; stroke: #eef30d"/>
     <use xlink:href="#m4ac1e99f24" x="43.793789" y="85.427614" style="fill: #eef30d; stroke: #eef30d"/>
     <use xlink:href="#m4ac1e99f24" x="44.301231" y="74.836255" style="fill: #eef30d; stroke: #eef30d"/>
     <use xlink:href="#m4ac1e99f24" x="44.808673" y="77.601463" style="fill: #eef30d; stroke: #eef30d"/>
     <use xlink:href="#m4ac1e99f24" x="45.316114" y="81.85157" style="fill: #eef30d; stroke: #eef30d"/>
     <use xlink:href="#m4ac1e99f24" x="45.823556" y="86.107607" style="fill: #eef30d; stroke: #eef30d"/>
     <use xlink:href="#m4ac1e99f24" x="46.330998" y="90.125506" style="fill: #eef30d; stroke: #eef30d"/>
     <use xlink:href="#m4ac1e99f24" x="46.83844" y="93.65742" style="fill: #eef30d; stroke: #eef30d"/>
     <use xlink:href="#m4ac1e99f24" x="47.345882" y="101.564764" style="fill: #eef30d; stroke: #eef30d"/>
     <use xlink:href="#m4ac1e99f24" x="47.853324" y="108.089059" style="fill: #eef30d; stroke: #eef30d"/>
     <use xlink:href="#m4ac1e99f24" x="48.360766" y="113.156772" style="fill: #eef30d; stroke: #eef30d"/>
     <use xlink:href="#m4ac1e99f24" x="48.868208" y="116.843523" style="fill: #eef30d; stroke: #eef30d"/>
     <use xlink:href="#m4ac1e99f24" x="49.375649" y="119.428131" style="fill: #eef30d; stroke: #eef30d"/>
     <use xlink:href="#m4ac1e99f24" x="69.673324" y="113.736141" style="fill: #eef30d; stroke: #eef30d"/>
     <use xlink:href="#m4ac1e99f24" x="89.970999" y="113.259144" style="fill: #eef30d; stroke: #eef30d"/>
     <use xlink:href="#m4ac1e99f24" x="110.268674" y="113.28126" style="fill: #eef30d; stroke: #eef30d"/>
     <use xlink:href="#m4ac1e99f24" x="130.566349" y="113.286476" style="fill: #eef30d; stroke: #eef30d"/>
     <use xlink:href="#m4ac1e99f24" x="150.864024" y="113.287152" style="fill: #eef30d; stroke: #eef30d"/>
     <use xlink:href="#m4ac1e99f24" x="171.161699" y="113.287248" style="fill: #eef30d; stroke: #eef30d"/>
     <use xlink:href="#m4ac1e99f24" x="186.790909" y="113.287248" style="fill: #eef30d; stroke: #eef30d"/>
    </g>
   </g>
  </g>
 </g>
 <defs>
  <clipPath id="p8bf34bec77">
   <rect x="27" y="17.28" width="167.4" height="110.88"/>
  </clipPath>
 </defs>
</svg>
