<?xml version="1.0" encoding="utf-8" standalone="no"?>
<!DOCTYPE svg PUBLIC "-//W3C//DTD SVG 1.1//EN"
  "http://www.w3.org/Graphics/SVG/1.1/DTD/svg11.dtd">
<svg xmlns:xlink="http://www.w3.org/1999/xlink" width="216pt" height="144pt" viewBox="0 0 216 144" xmlns="http://www.w3.org/2000/svg" version="1.1">
 <metadata>
  <rdf:RDF xmlns:dc="http://purl.org/dc/elements/1.1/" xmlns:cc="http://creativecommons.org/ns#" xmlns:rdf="http://www.w3.org/1999/02/22-rdf-syntax-ns#">
   <cc:Work>
    <dc:type rdf:resource="http://purl.org/dc/dcmitype/StillImage"/>
    <dc:date>2023-04-11T14:02:29.098405</dc:date>
    <dc:format>image/svg+xml</dc:format>
    <dc:creator>
     <cc:Agent>
      <dc:title>Matplotlib v3.7.0, https://matplotlib.org/</dc:title>
     </cc:Agent>
    </dc:creator>
   </cc:Work>
  </rdf:RDF>
 </metadata>
 <defs>
  <style type="text/css">*{stroke-linejoin: round; stroke-linecap: butt}</style>
 </defs>
 <g id="figure_1">
  <g id="patch_1">
   <path d="M 0 144 
L 216 144 
L 216 0 
L 0 0 
L 0 144 
z
" style="fill: none"/>
  </g>
  <g id="axes_1">
   <g id="patch_2">
    <path d="M 27 128.16 
L 194.4 128.16 
L 194.4 17.28 
L 27 17.28 
L 27 128.16 
z
" style="fill: none"/>
   </g>
   <g id="line2d_1">
    <path d="M 34.609091 29.340337 
L 34.761323 28.415827 
L 35.57323 22.731898 
L 35.776207 22.327747 
L 35.877696 22.349698 
L 36.029928 22.668628 
L 36.283649 23.963717 
L 36.638858 27.362195 
L 37.095556 34.317971 
L 37.704486 47.591662 
L 38.617882 73.45341 
L 39.835742 107.438192 
L 40.393928 117.223021 
L 40.799882 121.245156 
L 41.155091 122.874669 
L 41.358068 123.12 
L 41.5103 123.017994 
L 41.713277 122.537662 
L 42.017742 121.180595 
L 42.47444 118.014535 
L 43.184859 111.331206 
L 44.250487 99.126641 
L 46.584719 71.792908 
L 47.498115 63.660835 
L 48.259277 58.794245 
L 48.969696 55.602361 
L 49.62937 53.572571 
L 50.238301 52.33946 
L 50.796487 51.638331 
L 51.354673 51.267752 
L 51.912859 51.157999 
L 52.521789 51.269043 
L 53.282952 51.657699 
L 54.297836 52.45567 
L 56.327603 54.464801 
L 59.118533 57.154402 
L 60.996068 58.632843 
L 63.025836 59.893069 
L 64.954115 60.802084 
L 66.983883 61.513544 
L 69.115138 62.053272 
L 72.15979 62.560719 
L 75.762627 62.908056 
L 84.033929 63.217948 
L 91.18886 63.288965 
L 186.790909 63.317371 
L 186.790909 63.317371 
" clip-path="url(#p5efc425d28)" style="fill: none; stroke: #000000; stroke-width: 1.5; stroke-linecap: square"/>
   </g>
   <g id="patch_3">
    <path d="M 27 128.16 
L 27 17.28 
" style="fill: none; stroke: #000000; stroke-width: 0.8; stroke-linejoin: miter; stroke-linecap: square"/>
   </g>
   <g id="patch_4">
    <path d="M 194.4 128.16 
L 194.4 17.28 
" style="fill: none; stroke: #000000; stroke-width: 0.8; stroke-linejoin: miter; stroke-linecap: square"/>
   </g>
   <g id="patch_5">
    <path d="M 27 128.16 
L 194.4 128.16 
" style="fill: none; stroke: #000000; stroke-width: 0.8; stroke-linejoin: miter; stroke-linecap: square"/>
   </g>
   <g id="patch_6">
    <path d="M 27 17.28 
L 194.4 17.28 
" style="fill: none; stroke: #000000; stroke-width: 0.8; stroke-linejoin: miter; stroke-linecap: square"/>
   </g>
   <g id="PathCollection_1">
    <defs>
     <path id="m52ca811a9b" d="M 0 1.581139 
C 0.419323 1.581139 0.821528 1.41454 1.118034 1.118034 
C 1.41454 0.821528 1.581139 0.419323 1.581139 0 
C 1.581139 -0.419323 1.41454 -0.821528 1.118034 -1.118034 
C 0.821528 -1.41454 0.419323 -1.581139 0 -1.581139 
C -0.419323 -1.581139 -0.821528 -1.41454 -1.118034 -1.118034 
C -1.41454 -0.821528 -1.581139 -0.419323 -1.581139 0 
C -1.581139 0.419323 -1.41454 0.821528 -1.118034 1.118034 
C -0.821528 1.41454 -0.419323 1.581139 0 1.581139 
z
" style="stroke: #eef30d"/>
    </defs>
    <g clip-path="url(#p5efc425d28)">
     <use xlink:href="#m52ca811a9b" x="34.609091" y="29.340337" style="fill: #eef30d; stroke: #eef30d"/>
     <use xlink:href="#m52ca811a9b" x="35.116533" y="25.510593" style="fill: #eef30d; stroke: #eef30d"/>
     <use xlink:href="#m52ca811a9b" x="35.623975" y="22.575661" style="fill: #eef30d; stroke: #eef30d"/>
     <use xlink:href="#m52ca811a9b" x="36.131417" y="23.072778" style="fill: #eef30d; stroke: #eef30d"/>
     <use xlink:href="#m52ca811a9b" x="38.871603" y="81.18908" style="fill: #eef30d; stroke: #eef30d"/>
     <use xlink:href="#m52ca811a9b" x="39.379045" y="96.105197" style="fill: #eef30d; stroke: #eef30d"/>
     <use xlink:href="#m52ca811a9b" x="39.886486" y="108.533143" style="fill: #eef30d; stroke: #eef30d"/>
     <use xlink:href="#m52ca811a9b" x="40.393928" y="117.223021" style="fill: #eef30d; stroke: #eef30d"/>
     <use xlink:href="#m52ca811a9b" x="43.286347" y="110.269827" style="fill: #eef30d; stroke: #eef30d"/>
     <use xlink:href="#m52ca811a9b" x="43.793789" y="104.613014" style="fill: #eef30d; stroke: #eef30d"/>
     <use xlink:href="#m52ca811a9b" x="44.301231" y="98.502984" style="fill: #eef30d; stroke: #eef30d"/>
     <use xlink:href="#m52ca811a9b" x="44.808673" y="92.216057" style="fill: #eef30d; stroke: #eef30d"/>
     <use xlink:href="#m52ca811a9b" x="45.316114" y="85.996274" style="fill: #eef30d; stroke: #eef30d"/>
     <use xlink:href="#m52ca811a9b" x="45.823556" y="80.016657" style="fill: #eef30d; stroke: #eef30d"/>
     <use xlink:href="#m52ca811a9b" x="46.330998" y="74.416657" style="fill: #eef30d; stroke: #eef30d"/>
     <use xlink:href="#m52ca811a9b" x="46.83844" y="69.302154" style="fill: #eef30d; stroke: #eef30d"/>
     <use xlink:href="#m52ca811a9b" x="47.345882" y="64.839714" style="fill: #eef30d; stroke: #eef30d"/>
     <use xlink:href="#m52ca811a9b" x="47.853324" y="61.184284" style="fill: #eef30d; stroke: #eef30d"/>
     <use xlink:href="#m52ca811a9b" x="48.360766" y="58.266138" style="fill: #eef30d; stroke: #eef30d"/>
     <use xlink:href="#m52ca811a9b" x="48.868208" y="55.988434" style="fill: #eef30d; stroke: #eef30d"/>
     <use xlink:href="#m52ca811a9b" x="49.375649" y="54.259497" style="fill: #eef30d; stroke: #eef30d"/>
     <use xlink:href="#m52ca811a9b" x="69.673324" y="62.165608" style="fill: #eef30d; stroke: #eef30d"/>
     <use xlink:href="#m52ca811a9b" x="89.970999" y="63.281217" style="fill: #eef30d; stroke: #eef30d"/>
     <use xlink:href="#m52ca811a9b" x="110.268674" y="63.317371" style="fill: #eef30d; stroke: #eef30d"/>
     <use xlink:href="#m52ca811a9b" x="130.566349" y="63.317371" style="fill: #eef30d; stroke: #eef30d"/>
     <use xlink:href="#m52ca811a9b" x="150.864024" y="63.317371" style="fill: #eef30d; stroke: #eef30d"/>
     <use xlink:href="#m52ca811a9b" x="171.161699" y="63.317371" style="fill: #eef30d; stroke: #eef30d"/>
     <use xlink:href="#m52ca811a9b" x="186.790909" y="63.317371" style="fill: #eef30d; stroke: #eef30d"/>
    </g>
   </g>
  </g>
 </g>
 <defs>
  <clipPath id="p5efc425d28">
   <rect x="27" y="17.28" width="167.4" height="110.88"/>
  </clipPath>
 </defs>
</svg>
