<?xml version="1.0" encoding="utf-8" standalone="no"?>
<!DOCTYPE svg PUBLIC "-//W3C//DTD SVG 1.1//EN"
  "http://www.w3.org/Graphics/SVG/1.1/DTD/svg11.dtd">
<svg xmlns:xlink="http://www.w3.org/1999/xlink" width="216pt" height="144pt" viewBox="0 0 216 144" xmlns="http://www.w3.org/2000/svg" version="1.1">
 <metadata>
  <rdf:RDF xmlns:dc="http://purl.org/dc/elements/1.1/" xmlns:cc="http://creativecommons.org/ns#" xmlns:rdf="http://www.w3.org/1999/02/22-rdf-syntax-ns#">
   <cc:Work>
    <dc:type rdf:resource="http://purl.org/dc/dcmitype/StillImage"/>
    <dc:date>2023-04-11T14:02:31.289760</dc:date>
    <dc:format>image/svg+xml</dc:format>
    <dc:creator>
     <cc:Agent>
      <dc:title>Matplotlib v3.7.0, https://matplotlib.org/</dc:title>
     </cc:Agent>
    </dc:creator>
   </cc:Work>
  </rdf:RDF>
 </metadata>
 <defs>
  <style type="text/css">*{stroke-linejoin: round; stroke-linecap: butt}</style>
 </defs>
 <g id="figure_1">
  <g id="patch_1">
   <path d="M 0 144 
L 216 144 
L 216 0 
L 0 0 
L 0 144 
z
" style="fill: none"/>
  </g>
  <g id="axes_1">
   <g id="patch_2">
    <path d="M 27 128.16 
L 194.4 128.16 
L 194.4 17.28 
L 27 17.28 
L 27 128.16 
z
" style="fill: none"/>
   </g>
   <g id="line2d_1">
    <path d="M 34.609091 123.12 
L 35.065789 122.954747 
L 35.623975 122.702287 
L 35.979184 122.179168 
L 36.385137 121.082853 
L 36.841835 119.105554 
L 37.349277 115.798045 
L 37.907463 110.50603 
L 38.516393 102.332037 
L 39.379045 86.873586 
L 40.952114 59.619235 
L 41.966998 45.875522 
L 42.829649 37.076156 
L 43.590812 31.37339 
L 44.351975 27.300439 
L 45.011649 24.855716 
L 45.62058 23.406421 
L 46.128021 22.695942 
L 46.584719 22.381558 
L 47.041417 22.333069 
L 47.548859 22.54449 
L 48.360766 23.162511 
L 49.781603 24.58005 
L 52.572533 27.362363 
L 54.247091 28.698436 
L 55.92165 29.748826 
L 57.646952 30.571429 
L 59.575231 31.243068 
L 61.807975 31.779378 
L 64.548162 32.196847 
L 68.100255 32.497918 
L 73.073185 32.686744 
L 82.511604 32.780791 
L 133.96621 32.793616 
L 186.790909 32.793493 
L 186.790909 32.793493 
" clip-path="url(#peb9463fd20)" style="fill: none; stroke: #000000; stroke-width: 1.5; stroke-linecap: square"/>
   </g>
   <g id="patch_3">
    <path d="M 27 128.16 
L 27 17.28 
" style="fill: none; stroke: #000000; stroke-width: 0.8; stroke-linejoin: miter; stroke-linecap: square"/>
   </g>
   <g id="patch_4">
    <path d="M 194.4 128.16 
L 194.4 17.28 
" style="fill: none; stroke: #000000; stroke-width: 0.8; stroke-linejoin: miter; stroke-linecap: square"/>
   </g>
   <g id="patch_5">
    <path d="M 27 128.16 
L 194.4 128.16 
" style="fill: none; stroke: #000000; stroke-width: 0.8; stroke-linejoin: miter; stroke-linecap: square"/>
   </g>
   <g id="patch_6">
    <path d="M 27 17.28 
L 194.4 17.28 
" style="fill: none; stroke: #000000; stroke-width: 0.8; stroke-linejoin: miter; stroke-linecap: square"/>
   </g>
   <g id="PathCollection_1">
    <defs>
     <path id="m4e66047f54" d="M 0 1.581139 
C 0.419323 1.581139 0.821528 1.41454 1.118034 1.118034 
C 1.41454 0.821528 1.581139 0.419323 1.581139 0 
C 1.581139 -0.419323 1.41454 -0.821528 1.118034 -1.118034 
C 0.821528 -1.41454 0.419323 -1.581139 0 -1.581139 
C -0.419323 -1.581139 -0.821528 -1.41454 -1.118034 -1.118034 
C -1.41454 -0.821528 -1.581139 -0.419323 -1.581139 0 
C -1.581139 0.419323 -1.41454 0.821528 -1.118034 1.118034 
C -0.821528 1.41454 -0.419323 1.581139 0 1.581139 
z
" style="stroke: #eef30d"/>
    </defs>
    <g clip-path="url(#peb9463fd20)">
     <use xlink:href="#m4e66047f54" x="34.609091" y="123.12" style="fill: #eef30d; stroke: #eef30d"/>
     <use xlink:href="#m4e66047f54" x="35.116533" y="122.940945" style="fill: #eef30d; stroke: #eef30d"/>
     <use xlink:href="#m4e66047f54" x="35.623975" y="122.702287" style="fill: #eef30d; stroke: #eef30d"/>
     <use xlink:href="#m4e66047f54" x="36.131417" y="121.834493" style="fill: #eef30d; stroke: #eef30d"/>
     <use xlink:href="#m4e66047f54" x="38.871603" y="96.251742" style="fill: #eef30d; stroke: #eef30d"/>
     <use xlink:href="#m4e66047f54" x="39.379045" y="86.873586" style="fill: #eef30d; stroke: #eef30d"/>
     <use xlink:href="#m4e66047f54" x="39.886486" y="77.532804" style="fill: #eef30d; stroke: #eef30d"/>
     <use xlink:href="#m4e66047f54" x="40.393928" y="68.620777" style="fill: #eef30d; stroke: #eef30d"/>
     <use xlink:href="#m4e66047f54" x="43.286347" y="33.435209" style="fill: #eef30d; stroke: #eef30d"/>
     <use xlink:href="#m4e66047f54" x="43.793789" y="30.145898" style="fill: #eef30d; stroke: #eef30d"/>
     <use xlink:href="#m4e66047f54" x="44.301231" y="27.529815" style="fill: #eef30d; stroke: #eef30d"/>
     <use xlink:href="#m4e66047f54" x="44.808673" y="25.504271" style="fill: #eef30d; stroke: #eef30d"/>
     <use xlink:href="#m4e66047f54" x="45.316114" y="24.042641" style="fill: #eef30d; stroke: #eef30d"/>
     <use xlink:href="#m4e66047f54" x="45.823556" y="23.072617" style="fill: #eef30d; stroke: #eef30d"/>
     <use xlink:href="#m4e66047f54" x="46.330998" y="22.521162" style="fill: #eef30d; stroke: #eef30d"/>
     <use xlink:href="#m4e66047f54" x="46.83844" y="22.322687" style="fill: #eef30d; stroke: #eef30d"/>
     <use xlink:href="#m4e66047f54" x="47.345882" y="22.436398" style="fill: #eef30d; stroke: #eef30d"/>
     <use xlink:href="#m4e66047f54" x="47.853324" y="22.747362" style="fill: #eef30d; stroke: #eef30d"/>
     <use xlink:href="#m4e66047f54" x="48.360766" y="23.162511" style="fill: #eef30d; stroke: #eef30d"/>
     <use xlink:href="#m4e66047f54" x="48.868208" y="23.640561" style="fill: #eef30d; stroke: #eef30d"/>
     <use xlink:href="#m4e66047f54" x="49.375649" y="24.155008" style="fill: #eef30d; stroke: #eef30d"/>
     <use xlink:href="#m4e66047f54" x="69.673324" y="32.578285" style="fill: #eef30d; stroke: #eef30d"/>
     <use xlink:href="#m4e66047f54" x="89.970999" y="32.792272" style="fill: #eef30d; stroke: #eef30d"/>
     <use xlink:href="#m4e66047f54" x="110.268674" y="32.793738" style="fill: #eef30d; stroke: #eef30d"/>
     <use xlink:href="#m4e66047f54" x="130.566349" y="32.793616" style="fill: #eef30d; stroke: #eef30d"/>
     <use xlink:href="#m4e66047f54" x="150.864024" y="32.793493" style="fill: #eef30d; stroke: #eef30d"/>
     <use xlink:href="#m4e66047f54" x="171.161699" y="32.793493" style="fill: #eef30d; stroke: #eef30d"/>
     <use xlink:href="#m4e66047f54" x="186.790909" y="32.793493" style="fill: #eef30d; stroke: #eef30d"/>
    </g>
   </g>
  </g>
 </g>
 <defs>
  <clipPath id="peb9463fd20">
   <rect x="27" y="17.28" width="167.4" height="110.88"/>
  </clipPath>
 </defs>
</svg>
