<?xml version="1.0" encoding="utf-8" standalone="no"?>
<!DOCTYPE svg PUBLIC "-//W3C//DTD SVG 1.1//EN"
  "http://www.w3.org/Graphics/SVG/1.1/DTD/svg11.dtd">
<svg xmlns:xlink="http://www.w3.org/1999/xlink" width="216pt" height="144pt" viewBox="0 0 216 144" xmlns="http://www.w3.org/2000/svg" version="1.1">
 <metadata>
  <rdf:RDF xmlns:dc="http://purl.org/dc/elements/1.1/" xmlns:cc="http://creativecommons.org/ns#" xmlns:rdf="http://www.w3.org/1999/02/22-rdf-syntax-ns#">
   <cc:Work>
    <dc:type rdf:resource="http://purl.org/dc/dcmitype/StillImage"/>
    <dc:date>2023-04-11T14:02:34.881466</dc:date>
    <dc:format>image/svg+xml</dc:format>
    <dc:creator>
     <cc:Agent>
      <dc:title>Matplotlib v3.7.0, https://matplotlib.org/</dc:title>
     </cc:Agent>
    </dc:creator>
   </cc:Work>
  </rdf:RDF>
 </metadata>
 <defs>
  <style type="text/css">*{stroke-linejoin: round; stroke-linecap: butt}</style>
 </defs>
 <g id="figure_1">
  <g id="patch_1">
   <path d="M 0 144 
L 216 144 
L 216 0 
L 0 0 
L 0 144 
z
" style="fill: none"/>
  </g>
  <g id="axes_1">
   <g id="patch_2">
    <path d="M 27 128.16 
L 194.4 128.16 
L 194.4 17.28 
L 27 17.28 
L 27 128.16 
z
" style="fill: none"/>
   </g>
   <g id="line2d_1">
    <path d="M 34.609091 122.809425 
L 35.116533 123.12 
L 35.370254 123.008871 
L 35.674719 122.621273 
L 36.080672 121.673737 
L 36.53737 119.988704 
L 37.095556 116.968537 
L 37.704486 112.352285 
L 38.414905 105.051152 
L 39.226812 94.061721 
L 41.764021 57.344504 
L 42.728161 47.409266 
L 43.641556 40.217252 
L 44.554952 34.735095 
L 45.468347 30.596881 
L 46.330998 27.699611 
L 47.142905 25.721643 
L 47.904068 24.410678 
L 48.665231 23.517803 
L 49.477138 22.907947 
L 50.339789 22.53616 
L 51.354673 22.345975 
L 52.623277 22.343491 
L 54.551557 22.590821 
L 62.670627 23.852095 
L 66.933138 24.178933 
L 73.022441 24.393963 
L 85.454767 24.504641 
L 186.790909 24.521356 
L 186.790909 24.521356 
" clip-path="url(#pce14e5334e)" style="fill: none; stroke: #000000; stroke-width: 1.5; stroke-linecap: square"/>
   </g>
   <g id="patch_3">
    <path d="M 27 128.16 
L 27 17.28 
" style="fill: none; stroke: #000000; stroke-width: 0.8; stroke-linejoin: miter; stroke-linecap: square"/>
   </g>
   <g id="patch_4">
    <path d="M 194.4 128.16 
L 194.4 17.28 
" style="fill: none; stroke: #000000; stroke-width: 0.8; stroke-linejoin: miter; stroke-linecap: square"/>
   </g>
   <g id="patch_5">
    <path d="M 27 128.16 
L 194.4 128.16 
" style="fill: none; stroke: #000000; stroke-width: 0.8; stroke-linejoin: miter; stroke-linecap: square"/>
   </g>
   <g id="patch_6">
    <path d="M 27 17.28 
L 194.4 17.28 
" style="fill: none; stroke: #000000; stroke-width: 0.8; stroke-linejoin: miter; stroke-linecap: square"/>
   </g>
   <g id="PathCollection_1">
    <defs>
     <path id="m4d66b4d1b3" d="M 0 1.581139 
C 0.419323 1.581139 0.821528 1.41454 1.118034 1.118034 
C 1.41454 0.821528 1.581139 0.419323 1.581139 0 
C 1.581139 -0.419323 1.41454 -0.821528 1.118034 -1.118034 
C 0.821528 -1.41454 0.419323 -1.581139 0 -1.581139 
C -0.419323 -1.581139 -0.821528 -1.41454 -1.118034 -1.118034 
C -1.41454 -0.821528 -1.581139 -0.419323 -1.581139 0 
C -1.581139 0.419323 -1.41454 0.821528 -1.118034 1.118034 
C -0.821528 1.41454 -0.419323 1.581139 0 1.581139 
z
" style="stroke: #eef30d"/>
    </defs>
    <g clip-path="url(#pce14e5334e)">
     <use xlink:href="#m4d66b4d1b3" x="34.609091" y="122.809425" style="fill: #eef30d; stroke: #eef30d"/>
     <use xlink:href="#m4d66b4d1b3" x="35.116533" y="123.12" style="fill: #eef30d; stroke: #eef30d"/>
     <use xlink:href="#m4d66b4d1b3" x="35.623975" y="122.70462" style="fill: #eef30d; stroke: #eef30d"/>
     <use xlink:href="#m4d66b4d1b3" x="36.131417" y="121.519692" style="fill: #eef30d; stroke: #eef30d"/>
     <use xlink:href="#m4d66b4d1b3" x="38.871603" y="99.208234" style="fill: #eef30d; stroke: #eef30d"/>
     <use xlink:href="#m4d66b4d1b3" x="39.379045" y="91.742776" style="fill: #eef30d; stroke: #eef30d"/>
     <use xlink:href="#m4d66b4d1b3" x="39.886486" y="83.772789" style="fill: #eef30d; stroke: #eef30d"/>
     <use xlink:href="#m4d66b4d1b3" x="40.393928" y="75.867198" style="fill: #eef30d; stroke: #eef30d"/>
     <use xlink:href="#m4d66b4d1b3" x="43.286347" y="42.779778" style="fill: #eef30d; stroke: #eef30d"/>
     <use xlink:href="#m4d66b4d1b3" x="43.793789" y="39.196985" style="fill: #eef30d; stroke: #eef30d"/>
     <use xlink:href="#m4d66b4d1b3" x="44.301231" y="36.111338" style="fill: #eef30d; stroke: #eef30d"/>
     <use xlink:href="#m4d66b4d1b3" x="44.808673" y="33.462076" style="fill: #eef30d; stroke: #eef30d"/>
     <use xlink:href="#m4d66b4d1b3" x="45.316114" y="31.204252" style="fill: #eef30d; stroke: #eef30d"/>
     <use xlink:href="#m4d66b4d1b3" x="45.823556" y="29.295628" style="fill: #eef30d; stroke: #eef30d"/>
     <use xlink:href="#m4d66b4d1b3" x="46.330998" y="27.699611" style="fill: #eef30d; stroke: #eef30d"/>
     <use xlink:href="#m4d66b4d1b3" x="46.83844" y="26.384806" style="fill: #eef30d; stroke: #eef30d"/>
     <use xlink:href="#m4d66b4d1b3" x="47.345882" y="25.325688" style="fill: #eef30d; stroke: #eef30d"/>
     <use xlink:href="#m4d66b4d1b3" x="47.853324" y="24.483861" style="fill: #eef30d; stroke: #eef30d"/>
     <use xlink:href="#m4d66b4d1b3" x="48.360766" y="23.831766" style="fill: #eef30d; stroke: #eef30d"/>
     <use xlink:href="#m4d66b4d1b3" x="48.868208" y="23.336427" style="fill: #eef30d; stroke: #eef30d"/>
     <use xlink:href="#m4d66b4d1b3" x="49.375649" y="22.968481" style="fill: #eef30d; stroke: #eef30d"/>
     <use xlink:href="#m4d66b4d1b3" x="69.673324" y="24.301356" style="fill: #eef30d; stroke: #eef30d"/>
     <use xlink:href="#m4d66b4d1b3" x="89.970999" y="24.513224" style="fill: #eef30d; stroke: #eef30d"/>
     <use xlink:href="#m4d66b4d1b3" x="110.268674" y="24.520904" style="fill: #eef30d; stroke: #eef30d"/>
     <use xlink:href="#m4d66b4d1b3" x="130.566349" y="24.521356" style="fill: #eef30d; stroke: #eef30d"/>
     <use xlink:href="#m4d66b4d1b3" x="150.864024" y="24.521356" style="fill: #eef30d; stroke: #eef30d"/>
     <use xlink:href="#m4d66b4d1b3" x="171.161699" y="24.521356" style="fill: #eef30d; stroke: #eef30d"/>
     <use xlink:href="#m4d66b4d1b3" x="186.790909" y="24.521356" style="fill: #eef30d; stroke: #eef30d"/>
    </g>
   </g>
  </g>
 </g>
 <defs>
  <clipPath id="pce14e5334e">
   <rect x="27" y="17.28" width="167.4" height="110.88"/>
  </clipPath>
 </defs>
</svg>
