<?xml version="1.0" encoding="utf-8" standalone="no"?>
<!DOCTYPE svg PUBLIC "-//W3C//DTD SVG 1.1//EN"
  "http://www.w3.org/Graphics/SVG/1.1/DTD/svg11.dtd">
<svg xmlns:xlink="http://www.w3.org/1999/xlink" width="460.8pt" height="345.6pt" viewBox="0 0 460.8 345.6" xmlns="http://www.w3.org/2000/svg" version="1.1">
 <metadata>
  <rdf:RDF xmlns:dc="http://purl.org/dc/elements/1.1/" xmlns:cc="http://creativecommons.org/ns#" xmlns:rdf="http://www.w3.org/1999/02/22-rdf-syntax-ns#">
   <cc:Work>
    <dc:type rdf:resource="http://purl.org/dc/dcmitype/StillImage"/>
    <dc:date>2022-09-16T15:41:09.356911</dc:date>
    <dc:format>image/svg+xml</dc:format>
    <dc:creator>
     <cc:Agent>
      <dc:title>Matplotlib v3.5.1, https://matplotlib.org/</dc:title>
     </cc:Agent>
    </dc:creator>
   </cc:Work>
  </rdf:RDF>
 </metadata>
 <defs>
  <style type="text/css">*{stroke-linejoin: round; stroke-linecap: butt}</style>
 </defs>
 <g id="figure_1">
  <g id="patch_1">
   <path d="M 0 345.6 
L 460.8 345.6 
L 460.8 0 
L 0 0 
z
" style="fill: #ffffff"/>
  </g>
  <g id="axes_1">
   <g id="patch_2">
    <path d="M 57.6 307.584 
L 414.72 307.584 
L 414.72 41.472 
L 57.6 41.472 
z
" style="fill: #ffffff"/>
   </g>
   <g id="matplotlib.axis_1">
    <g id="xtick_1">
     <g id="line2d_1">
      <defs>
       <path id="mb93e3fb0f8" d="M 0 0 
L 0 3.5 
" style="stroke: #000000; stroke-width: 0.8"/>
      </defs>
      <g>
       <use xlink:href="#mb93e3fb0f8" x="73.832727" y="307.584" style="stroke: #000000; stroke-width: 0.8"/>
      </g>
     </g>
     <g id="text_1">
      <text style="font: 10px 'sans-serif'; text-anchor: middle" x="73.832727" y="322.182437" transform="rotate(-0, 73.832727, 322.182437)">0</text>
     </g>
    </g>
    <g id="xtick_2">
     <g id="line2d_2">
      <g>
       <use xlink:href="#mb93e3fb0f8" x="127.995981" y="307.584" style="stroke: #000000; stroke-width: 0.8"/>
      </g>
     </g>
     <g id="text_2">
      <text style="font: 10px 'sans-serif'; text-anchor: middle" x="127.995981" y="322.182437" transform="rotate(-0, 127.995981, 322.182437)">500</text>
     </g>
    </g>
    <g id="xtick_3">
     <g id="line2d_3">
      <g>
       <use xlink:href="#mb93e3fb0f8" x="182.159236" y="307.584" style="stroke: #000000; stroke-width: 0.8"/>
      </g>
     </g>
     <g id="text_3">
      <text style="font: 10px 'sans-serif'; text-anchor: middle" x="182.159236" y="322.182437" transform="rotate(-0, 182.159236, 322.182437)">1000</text>
     </g>
    </g>
    <g id="xtick_4">
     <g id="line2d_4">
      <g>
       <use xlink:href="#mb93e3fb0f8" x="236.32249" y="307.584" style="stroke: #000000; stroke-width: 0.8"/>
      </g>
     </g>
     <g id="text_4">
      <text style="font: 10px 'sans-serif'; text-anchor: middle" x="236.32249" y="322.182437" transform="rotate(-0, 236.32249, 322.182437)">1500</text>
     </g>
    </g>
    <g id="xtick_5">
     <g id="line2d_5">
      <g>
       <use xlink:href="#mb93e3fb0f8" x="290.485744" y="307.584" style="stroke: #000000; stroke-width: 0.8"/>
      </g>
     </g>
     <g id="text_5">
      <text style="font: 10px 'sans-serif'; text-anchor: middle" x="290.485744" y="322.182437" transform="rotate(-0, 290.485744, 322.182437)">2000</text>
     </g>
    </g>
    <g id="xtick_6">
     <g id="line2d_6">
      <g>
       <use xlink:href="#mb93e3fb0f8" x="344.648998" y="307.584" style="stroke: #000000; stroke-width: 0.8"/>
      </g>
     </g>
     <g id="text_6">
      <text style="font: 10px 'sans-serif'; text-anchor: middle" x="344.648998" y="322.182437" transform="rotate(-0, 344.648998, 322.182437)">2500</text>
     </g>
    </g>
    <g id="xtick_7">
     <g id="line2d_7">
      <g>
       <use xlink:href="#mb93e3fb0f8" x="398.812252" y="307.584" style="stroke: #000000; stroke-width: 0.8"/>
      </g>
     </g>
     <g id="text_7">
      <text style="font: 10px 'sans-serif'; text-anchor: middle" x="398.812252" y="322.182437" transform="rotate(-0, 398.812252, 322.182437)">3000</text>
     </g>
    </g>
   </g>
   <g id="matplotlib.axis_2">
    <g id="ytick_1">
     <g id="line2d_8">
      <defs>
       <path id="mbb818c8e26" d="M 0 0 
L -3.5 0 
" style="stroke: #000000; stroke-width: 0.8"/>
      </defs>
      <g>
       <use xlink:href="#mbb818c8e26" x="57.6" y="284.151985" style="stroke: #000000; stroke-width: 0.8"/>
      </g>
     </g>
     <g id="text_8">
      <text style="font: 10px 'sans-serif'; text-anchor: end" x="50.6" y="287.951204" transform="rotate(-0, 50.6, 287.951204)">−0.0050</text>
     </g>
    </g>
    <g id="ytick_2">
     <g id="line2d_9">
      <g>
       <use xlink:href="#mbb818c8e26" x="57.6" y="250.453961" style="stroke: #000000; stroke-width: 0.8"/>
      </g>
     </g>
     <g id="text_9">
      <text style="font: 10px 'sans-serif'; text-anchor: end" x="50.6" y="254.25318" transform="rotate(-0, 50.6, 254.25318)">−0.0025</text>
     </g>
    </g>
    <g id="ytick_3">
     <g id="line2d_10">
      <g>
       <use xlink:href="#mbb818c8e26" x="57.6" y="216.755937" style="stroke: #000000; stroke-width: 0.8"/>
      </g>
     </g>
     <g id="text_10">
      <text style="font: 10px 'sans-serif'; text-anchor: end" x="50.6" y="220.555156" transform="rotate(-0, 50.6, 220.555156)">0.0000</text>
     </g>
    </g>
    <g id="ytick_4">
     <g id="line2d_11">
      <g>
       <use xlink:href="#mbb818c8e26" x="57.6" y="183.057913" style="stroke: #000000; stroke-width: 0.8"/>
      </g>
     </g>
     <g id="text_11">
      <text style="font: 10px 'sans-serif'; text-anchor: end" x="50.6" y="186.857132" transform="rotate(-0, 50.6, 186.857132)">0.0025</text>
     </g>
    </g>
    <g id="ytick_5">
     <g id="line2d_12">
      <g>
       <use xlink:href="#mbb818c8e26" x="57.6" y="149.35989" style="stroke: #000000; stroke-width: 0.8"/>
      </g>
     </g>
     <g id="text_12">
      <text style="font: 10px 'sans-serif'; text-anchor: end" x="50.6" y="153.159108" transform="rotate(-0, 50.6, 153.159108)">0.0050</text>
     </g>
    </g>
    <g id="ytick_6">
     <g id="line2d_13">
      <g>
       <use xlink:href="#mbb818c8e26" x="57.6" y="115.661866" style="stroke: #000000; stroke-width: 0.8"/>
      </g>
     </g>
     <g id="text_13">
      <text style="font: 10px 'sans-serif'; text-anchor: end" x="50.6" y="119.461085" transform="rotate(-0, 50.6, 119.461085)">0.0075</text>
     </g>
    </g>
    <g id="ytick_7">
     <g id="line2d_14">
      <g>
       <use xlink:href="#mbb818c8e26" x="57.6" y="81.963842" style="stroke: #000000; stroke-width: 0.8"/>
      </g>
     </g>
     <g id="text_14">
      <text style="font: 10px 'sans-serif'; text-anchor: end" x="50.6" y="85.763061" transform="rotate(-0, 50.6, 85.763061)">0.0100</text>
     </g>
    </g>
    <g id="ytick_8">
     <g id="line2d_15">
      <g>
       <use xlink:href="#mbb818c8e26" x="57.6" y="48.265818" style="stroke: #000000; stroke-width: 0.8"/>
      </g>
     </g>
     <g id="text_15">
      <text style="font: 10px 'sans-serif'; text-anchor: end" x="50.6" y="52.065037" transform="rotate(-0, 50.6, 52.065037)">0.0125</text>
     </g>
    </g>
   </g>
   <g id="line2d_16">
    <path d="M 73.832727 53.568 
L 74.04938 116.888743 
L 74.157707 117.415376 
L 74.807666 99.164661 
L 74.915992 97.916486 
L 75.132645 176.209127 
L 75.782604 106.185981 
L 76.107584 92.868522 
L 76.432563 86.223272 
L 76.86587 81.788612 
L 77.407502 78.836665 
L 78.382441 75.264675 
L 82.173868 62.432467 
L 82.498848 61.408047 
L 82.607174 71.490496 
L 82.932154 194.070428 
L 83.257133 242.730374 
L 83.582113 267.761266 
L 83.907093 278.4368 
L 84.232072 283.275836 
L 84.557052 285.365114 
L 84.665378 285.472947 
L 84.773705 284.691153 
L 84.990358 285.068571 
L 85.207011 285.648177 
L 85.53199 295.488 
L 85.640317 295.285812 
L 87.156888 286.470409 
L 90.623336 270.133607 
L 92.031581 264.377984 
L 92.139907 264.62061 
L 92.248234 265.240654 
L 92.464887 264.202755 
L 93.114846 259.795053 
L 93.764805 257.11269 
L 93.873131 255.07733 
L 94.089784 247.138075 
L 94.198111 246.625865 
L 94.414764 248.270329 
L 94.84807 251.559256 
L 95.173049 252.543238 
L 95.389702 252.704989 
L 95.714682 252.556718 
L 96.147988 251.896236 
L 97.447906 249.065602 
L 98.964477 245.587966 
L 99.939416 243.458251 
L 100.047742 242.231643 
L 100.264395 242.528186 
L 100.481048 242.447311 
L 100.697701 242.366435 
L 100.806028 242.352956 
L 101.131007 241.732912 
L 102.322599 239.010112 
L 104.16415 235.788581 
L 106.222353 232.90403 
L 108.388883 230.383418 
L 109.797128 228.968101 
L 111.313699 227.612093 
L 113.480229 225.940671 
L 115.646759 224.529397 
L 118.029943 223.227306 
L 120.629779 222.054614 
L 123.337942 221.058501 
L 126.262757 220.191788 
L 129.837532 219.36686 
L 133.953939 218.659202 
L 138.287 218.118685 
L 147.386426 217.43475 
L 155.944221 217.108823 
L 167.535157 216.902052 
L 185.084051 216.794649 
L 239.463959 216.756615 
L 398.487273 216.755937 
L 398.487273 216.755937 
" clip-path="url(#pf4c4d5f2ae)" style="fill: none; stroke: #1f77b4; stroke-width: 1.5; stroke-linecap: square"/>
   </g>
   <g id="patch_3">
    <path d="M 57.6 307.584 
L 57.6 41.472 
" style="fill: none; stroke: #000000; stroke-width: 0.8; stroke-linejoin: miter; stroke-linecap: square"/>
   </g>
   <g id="patch_4">
    <path d="M 414.72 307.584 
L 414.72 41.472 
" style="fill: none; stroke: #000000; stroke-width: 0.8; stroke-linejoin: miter; stroke-linecap: square"/>
   </g>
   <g id="patch_5">
    <path d="M 57.6 307.584 
L 414.72 307.584 
" style="fill: none; stroke: #000000; stroke-width: 0.8; stroke-linejoin: miter; stroke-linecap: square"/>
   </g>
   <g id="patch_6">
    <path d="M 57.6 41.472 
L 414.72 41.472 
" style="fill: none; stroke: #000000; stroke-width: 0.8; stroke-linejoin: miter; stroke-linecap: square"/>
   </g>
  </g>
 </g>
 <defs>
  <clipPath id="pf4c4d5f2ae">
   <rect x="57.6" y="41.472" width="357.12" height="266.112"/>
  </clipPath>
 </defs>
</svg>
