<?xml version="1.0" encoding="utf-8" standalone="no"?>
<!DOCTYPE svg PUBLIC "-//W3C//DTD SVG 1.1//EN"
  "http://www.w3.org/Graphics/SVG/1.1/DTD/svg11.dtd">
<svg xmlns:xlink="http://www.w3.org/1999/xlink" width="504pt" height="360pt" viewBox="0 0 504 360" xmlns="http://www.w3.org/2000/svg" version="1.1">
 <metadata>
  <rdf:RDF xmlns:dc="http://purl.org/dc/elements/1.1/" xmlns:cc="http://creativecommons.org/ns#" xmlns:rdf="http://www.w3.org/1999/02/22-rdf-syntax-ns#">
   <cc:Work>
    <dc:type rdf:resource="http://purl.org/dc/dcmitype/StillImage"/>
    <dc:date>2023-04-11T14:40:43.329953</dc:date>
    <dc:format>image/svg+xml</dc:format>
    <dc:creator>
     <cc:Agent>
      <dc:title>Matplotlib v3.7.0, https://matplotlib.org/</dc:title>
     </cc:Agent>
    </dc:creator>
   </cc:Work>
  </rdf:RDF>
 </metadata>
 <defs>
  <style type="text/css">*{stroke-linejoin: round; stroke-linecap: butt}</style>
 </defs>
 <g id="figure_1">
  <g id="patch_1">
   <path d="M 0 360 
L 504 360 
L 504 0 
L 0 0 
L 0 360 
z
" style="fill: none"/>
  </g>
  <g id="axes_1">
   <g id="patch_2">
    <path d="M 63 320.4 
L 453.6 320.4 
L 453.6 43.2 
L 63 43.2 
L 63 320.4 
z
" style="fill: none"/>
   </g>
   <g id="line2d_1">
    <path d="M 80.754545 272.824744 
L 82.057849 78.960558 
L 82.294813 75.819349 
L 82.531777 75.20986 
L 83.005706 74.787907 
L 84.782937 74.881674 
L 85.256866 74.975442 
L 85.49383 74.975442 
L 85.849277 75.022326 
L 88.218919 74.928558 
L 90.114633 74.084651 
L 90.470079 73.522047 
L 91.180972 71.365395 
L 92.010347 67.52093 
L 93.432132 62.738791 
L 93.550614 62.645023 
L 95.209364 58.988093 
L 95.683292 58.284837 
L 96.394185 57.347163 
L 97.105078 56.643907 
L 97.579006 56.362605 
L 98.052935 56.081302 
L 98.289899 55.987535 
L 98.88231 55.846884 
L 100.067131 55.893767 
L 100.422577 56.081302 
L 100.659541 56.17507 
L 100.896506 56.362605 
L 101.13347 56.55014 
L 101.607398 56.831442 
L 102.555255 57.628465 
L 102.673737 58.547386 
L 103.029184 69.996391 
L 104.687933 130.101321 
L 105.872755 164.279553 
L 107.057576 192.039405 
L 108.242397 214.51546 
L 109.308736 231.041972 
L 111.085968 251.914605 
L 112.389271 263.916837 
L 113.692574 273.387349 
L 114.877396 280.279256 
L 116.536145 287.686884 
L 118.076413 292.797209 
L 119.379716 296.125953 
L 121.512394 300.11107 
L 122.460251 301.423814 
L 124.119001 303.252279 
L 126.725607 305.174512 
L 127.673464 305.643349 
L 128.028911 305.830884 
L 128.265875 305.924651 
L 130.280071 306.627907 
L 130.753999 306.721674 
L 131.464892 306.909209 
L 132.057303 307.002977 
L 132.531231 307.143628 
L 132.768195 307.143628 
L 133.242124 307.237395 
L 134.189981 307.331163 
L 134.663909 307.42493 
L 136.085695 307.518698 
L 136.322659 307.565581 
L 136.441141 307.518698 
L 136.678105 307.565581 
L 138.455337 307.659349 
L 138.810784 307.706233 
L 139.047748 307.706233 
L 164.995332 307.612465 
L 165.232296 307.612465 
L 435.845455 307.518698 
L 435.845455 307.518698 
" clip-path="url(#p65f76921d8)" style="fill: none; stroke: #000000; stroke-width: 1.5; stroke-linecap: square"/>
   </g>
   <g id="patch_3">
    <path d="M 63 320.4 
L 63 43.2 
" style="fill: none; stroke: #000000; stroke-width: 0.8; stroke-linejoin: miter; stroke-linecap: square"/>
   </g>
   <g id="patch_4">
    <path d="M 453.6 320.4 
L 453.6 43.2 
" style="fill: none; stroke: #000000; stroke-width: 0.8; stroke-linejoin: miter; stroke-linecap: square"/>
   </g>
   <g id="patch_5">
    <path d="M 63 320.4 
L 453.6 320.4 
" style="fill: none; stroke: #000000; stroke-width: 0.8; stroke-linejoin: miter; stroke-linecap: square"/>
   </g>
   <g id="patch_6">
    <path d="M 63 43.2 
L 453.6 43.2 
" style="fill: none; stroke: #000000; stroke-width: 0.8; stroke-linejoin: miter; stroke-linecap: square"/>
   </g>
  </g>
 </g>
 <defs>
  <clipPath id="p65f76921d8">
   <rect x="63" y="43.2" width="390.6" height="277.2"/>
  </clipPath>
 </defs>
</svg>
