<?xml version="1.0" encoding="utf-8" standalone="no"?>
<!DOCTYPE svg PUBLIC "-//W3C//DTD SVG 1.1//EN"
  "http://www.w3.org/Graphics/SVG/1.1/DTD/svg11.dtd">
<svg xmlns:xlink="http://www.w3.org/1999/xlink" width="460.8pt" height="345.6pt" viewBox="0 0 460.8 345.6" xmlns="http://www.w3.org/2000/svg" version="1.1">
 <metadata>
  <rdf:RDF xmlns:dc="http://purl.org/dc/elements/1.1/" xmlns:cc="http://creativecommons.org/ns#" xmlns:rdf="http://www.w3.org/1999/02/22-rdf-syntax-ns#">
   <cc:Work>
    <dc:type rdf:resource="http://purl.org/dc/dcmitype/StillImage"/>
    <dc:date>2022-09-16T15:41:00.857310</dc:date>
    <dc:format>image/svg+xml</dc:format>
    <dc:creator>
     <cc:Agent>
      <dc:title>Matplotlib v3.5.1, https://matplotlib.org/</dc:title>
     </cc:Agent>
    </dc:creator>
   </cc:Work>
  </rdf:RDF>
 </metadata>
 <defs>
  <style type="text/css">*{stroke-linejoin: round; stroke-linecap: butt}</style>
 </defs>
 <g id="figure_1">
  <g id="patch_1">
   <path d="M 0 345.6 
L 460.8 345.6 
L 460.8 0 
L 0 0 
z
" style="fill: #ffffff"/>
  </g>
  <g id="axes_1">
   <g id="patch_2">
    <path d="M 57.6 307.584 
L 414.72 307.584 
L 414.72 41.472 
L 57.6 41.472 
z
" style="fill: #ffffff"/>
   </g>
   <g id="matplotlib.axis_1">
    <g id="xtick_1">
     <g id="line2d_1">
      <defs>
       <path id="m46696e1af9" d="M 0 0 
L 0 3.5 
" style="stroke: #000000; stroke-width: 0.8"/>
      </defs>
      <g>
       <use xlink:href="#m46696e1af9" x="73.832727" y="307.584" style="stroke: #000000; stroke-width: 0.8"/>
      </g>
     </g>
     <g id="text_1">
      <text style="font: 10px 'sans-serif'; text-anchor: middle" x="73.832727" y="322.182437" transform="rotate(-0, 73.832727, 322.182437)">0</text>
     </g>
    </g>
    <g id="xtick_2">
     <g id="line2d_2">
      <g>
       <use xlink:href="#m46696e1af9" x="127.995981" y="307.584" style="stroke: #000000; stroke-width: 0.8"/>
      </g>
     </g>
     <g id="text_2">
      <text style="font: 10px 'sans-serif'; text-anchor: middle" x="127.995981" y="322.182437" transform="rotate(-0, 127.995981, 322.182437)">500</text>
     </g>
    </g>
    <g id="xtick_3">
     <g id="line2d_3">
      <g>
       <use xlink:href="#m46696e1af9" x="182.159236" y="307.584" style="stroke: #000000; stroke-width: 0.8"/>
      </g>
     </g>
     <g id="text_3">
      <text style="font: 10px 'sans-serif'; text-anchor: middle" x="182.159236" y="322.182437" transform="rotate(-0, 182.159236, 322.182437)">1000</text>
     </g>
    </g>
    <g id="xtick_4">
     <g id="line2d_4">
      <g>
       <use xlink:href="#m46696e1af9" x="236.32249" y="307.584" style="stroke: #000000; stroke-width: 0.8"/>
      </g>
     </g>
     <g id="text_4">
      <text style="font: 10px 'sans-serif'; text-anchor: middle" x="236.32249" y="322.182437" transform="rotate(-0, 236.32249, 322.182437)">1500</text>
     </g>
    </g>
    <g id="xtick_5">
     <g id="line2d_5">
      <g>
       <use xlink:href="#m46696e1af9" x="290.485744" y="307.584" style="stroke: #000000; stroke-width: 0.8"/>
      </g>
     </g>
     <g id="text_5">
      <text style="font: 10px 'sans-serif'; text-anchor: middle" x="290.485744" y="322.182437" transform="rotate(-0, 290.485744, 322.182437)">2000</text>
     </g>
    </g>
    <g id="xtick_6">
     <g id="line2d_6">
      <g>
       <use xlink:href="#m46696e1af9" x="344.648998" y="307.584" style="stroke: #000000; stroke-width: 0.8"/>
      </g>
     </g>
     <g id="text_6">
      <text style="font: 10px 'sans-serif'; text-anchor: middle" x="344.648998" y="322.182437" transform="rotate(-0, 344.648998, 322.182437)">2500</text>
     </g>
    </g>
    <g id="xtick_7">
     <g id="line2d_7">
      <g>
       <use xlink:href="#m46696e1af9" x="398.812252" y="307.584" style="stroke: #000000; stroke-width: 0.8"/>
      </g>
     </g>
     <g id="text_7">
      <text style="font: 10px 'sans-serif'; text-anchor: middle" x="398.812252" y="322.182437" transform="rotate(-0, 398.812252, 322.182437)">3000</text>
     </g>
    </g>
   </g>
   <g id="matplotlib.axis_2">
    <g id="ytick_1">
     <g id="line2d_8">
      <defs>
       <path id="mef25a582e5" d="M 0 0 
L -3.5 0 
" style="stroke: #000000; stroke-width: 0.8"/>
      </defs>
      <g>
       <use xlink:href="#mef25a582e5" x="57.6" y="273.729823" style="stroke: #000000; stroke-width: 0.8"/>
      </g>
     </g>
     <g id="text_8">
      <text style="font: 10px 'sans-serif'; text-anchor: end" x="50.6" y="277.529042" transform="rotate(-0, 50.6, 277.529042)">−0.010</text>
     </g>
    </g>
    <g id="ytick_2">
     <g id="line2d_9">
      <g>
       <use xlink:href="#mef25a582e5" x="57.6" y="231.709397" style="stroke: #000000; stroke-width: 0.8"/>
      </g>
     </g>
     <g id="text_9">
      <text style="font: 10px 'sans-serif'; text-anchor: end" x="50.6" y="235.508615" transform="rotate(-0, 50.6, 235.508615)">−0.005</text>
     </g>
    </g>
    <g id="ytick_3">
     <g id="line2d_10">
      <g>
       <use xlink:href="#mef25a582e5" x="57.6" y="189.68897" style="stroke: #000000; stroke-width: 0.8"/>
      </g>
     </g>
     <g id="text_10">
      <text style="font: 10px 'sans-serif'; text-anchor: end" x="50.6" y="193.488189" transform="rotate(-0, 50.6, 193.488189)">0.000</text>
     </g>
    </g>
    <g id="ytick_4">
     <g id="line2d_11">
      <g>
       <use xlink:href="#mef25a582e5" x="57.6" y="147.668543" style="stroke: #000000; stroke-width: 0.8"/>
      </g>
     </g>
     <g id="text_11">
      <text style="font: 10px 'sans-serif'; text-anchor: end" x="50.6" y="151.467762" transform="rotate(-0, 50.6, 151.467762)">0.005</text>
     </g>
    </g>
    <g id="ytick_5">
     <g id="line2d_12">
      <g>
       <use xlink:href="#mef25a582e5" x="57.6" y="105.648117" style="stroke: #000000; stroke-width: 0.8"/>
      </g>
     </g>
     <g id="text_12">
      <text style="font: 10px 'sans-serif'; text-anchor: end" x="50.6" y="109.447335" transform="rotate(-0, 50.6, 109.447335)">0.010</text>
     </g>
    </g>
    <g id="ytick_6">
     <g id="line2d_13">
      <g>
       <use xlink:href="#mef25a582e5" x="57.6" y="63.62769" style="stroke: #000000; stroke-width: 0.8"/>
      </g>
     </g>
     <g id="text_13">
      <text style="font: 10px 'sans-serif'; text-anchor: end" x="50.6" y="67.426909" transform="rotate(-0, 50.6, 67.426909)">0.015</text>
     </g>
    </g>
   </g>
   <g id="line2d_14">
    <path d="M 73.832727 53.568 
L 74.04938 177.141671 
L 74.37436 210.858861 
L 74.807666 230.877392 
L 75.024319 240.491666 
L 75.349298 259.75635 
L 75.674278 265.505585 
L 76.21591 270.339615 
L 76.86587 273.873533 
L 77.624155 276.74689 
L 78.815747 280.251393 
L 82.498848 290.000132 
L 82.607174 290.790116 
L 82.823827 294.899714 
L 83.04048 295.488 
L 83.148807 292.286043 
L 83.798766 253.795333 
L 84.340399 236.003884 
L 84.557052 231.238768 
L 85.423664 182.343799 
L 85.85697 173.158134 
L 86.398602 166.720605 
L 86.940235 163.056424 
L 87.481867 161.022635 
L 87.915173 160.089781 
L 88.456806 159.467879 
L 88.890112 159.224161 
L 89.540071 159.131716 
L 90.948316 159.459475 
L 91.598275 159.711598 
L 92.031581 159.904892 
L 92.248234 157.76185 
L 92.573213 160.879765 
L 92.789866 161.098272 
L 93.764805 160.047761 
L 93.873131 160.308288 
L 94.089784 161.745386 
L 94.198111 161.93868 
L 94.414764 161.661345 
L 94.84807 160.921786 
L 95.173049 160.753704 
L 95.498029 160.871361 
L 96.039661 161.417627 
L 97.989539 164.32544 
L 99.18113 165.981045 
L 99.831089 166.804646 
L 99.939416 167.476972 
L 100.156069 180.923509 
L 100.264395 180.494901 
L 101.131007 169.7965 
L 101.455987 168.224936 
L 101.780966 167.518993 
L 102.105946 167.325699 
L 102.430925 167.443356 
L 102.972558 167.998026 
L 104.380803 170.02341 
L 105.897374 172.18326 
L 108.280557 175.149902 
L 109.472149 176.46094 
L 112.071985 178.931741 
L 114.346841 180.730215 
L 117.163331 182.562306 
L 119.546514 183.824599 
L 122.14635 184.954108 
L 124.746186 185.870994 
L 128.104308 186.802167 
L 132.112389 187.624086 
L 136.445449 188.255233 
L 142.078428 188.798977 
L 149.76961 189.226745 
L 158.869036 189.477691 
L 172.734829 189.626023 
L 203.607884 189.685239 
L 398.487273 189.68897 
L 398.487273 189.68897 
" clip-path="url(#p3a2332cd79)" style="fill: none; stroke: #1f77b4; stroke-width: 1.5; stroke-linecap: square"/>
   </g>
   <g id="patch_3">
    <path d="M 57.6 307.584 
L 57.6 41.472 
" style="fill: none; stroke: #000000; stroke-width: 0.8; stroke-linejoin: miter; stroke-linecap: square"/>
   </g>
   <g id="patch_4">
    <path d="M 414.72 307.584 
L 414.72 41.472 
" style="fill: none; stroke: #000000; stroke-width: 0.8; stroke-linejoin: miter; stroke-linecap: square"/>
   </g>
   <g id="patch_5">
    <path d="M 57.6 307.584 
L 414.72 307.584 
" style="fill: none; stroke: #000000; stroke-width: 0.8; stroke-linejoin: miter; stroke-linecap: square"/>
   </g>
   <g id="patch_6">
    <path d="M 57.6 41.472 
L 414.72 41.472 
" style="fill: none; stroke: #000000; stroke-width: 0.8; stroke-linejoin: miter; stroke-linecap: square"/>
   </g>
  </g>
 </g>
 <defs>
  <clipPath id="p3a2332cd79">
   <rect x="57.6" y="41.472" width="357.12" height="266.112"/>
  </clipPath>
 </defs>
</svg>
