<?xml version="1.0" encoding="utf-8" standalone="no"?>
<!DOCTYPE svg PUBLIC "-//W3C//DTD SVG 1.1//EN"
  "http://www.w3.org/Graphics/SVG/1.1/DTD/svg11.dtd">
<svg xmlns:xlink="http://www.w3.org/1999/xlink" width="504pt" height="360pt" viewBox="0 0 504 360" xmlns="http://www.w3.org/2000/svg" version="1.1">
 <metadata>
  <rdf:RDF xmlns:dc="http://purl.org/dc/elements/1.1/" xmlns:cc="http://creativecommons.org/ns#" xmlns:rdf="http://www.w3.org/1999/02/22-rdf-syntax-ns#">
   <cc:Work>
    <dc:type rdf:resource="http://purl.org/dc/dcmitype/StillImage"/>
    <dc:date>2023-04-11T14:41:45.686721</dc:date>
    <dc:format>image/svg+xml</dc:format>
    <dc:creator>
     <cc:Agent>
      <dc:title>Matplotlib v3.7.0, https://matplotlib.org/</dc:title>
     </cc:Agent>
    </dc:creator>
   </cc:Work>
  </rdf:RDF>
 </metadata>
 <defs>
  <style type="text/css">*{stroke-linejoin: round; stroke-linecap: butt}</style>
 </defs>
 <g id="figure_1">
  <g id="patch_1">
   <path d="M 0 360 
L 504 360 
L 504 0 
L 0 0 
L 0 360 
z
" style="fill: none"/>
  </g>
  <g id="axes_1">
   <g id="patch_2">
    <path d="M 63 320.4 
L 453.6 320.4 
L 453.6 43.2 
L 63 43.2 
L 63 320.4 
z
" style="fill: none"/>
   </g>
   <g id="line2d_1">
    <path d="M 80.754545 268.369288 
L 82.057849 56.638951 
L 82.294813 56.27191 
L 82.650259 56.219476 
L 88.218919 56.324345 
L 88.455883 56.324345 
L 90.470079 56.429213 
L 90.825526 56.481648 
L 91.6549 56.586517 
L 92.010347 56.638951 
L 96.394185 56.528839 
L 109.901147 55.852434 
L 110.138111 63.5603 
L 111.322932 108.286891 
L 112.507753 144.833708 
L 113.692574 174.616479 
L 114.758913 196.848689 
L 116.180699 220.706367 
L 117.247038 235.230712 
L 118.313377 247.290637 
L 119.498198 258.406742 
L 121.038466 269.785019 
L 122.104805 276.129588 
L 123.408108 282.474157 
L 125.066858 288.713858 
L 126.488643 292.803745 
L 127.554982 295.320599 
L 130.280071 299.987266 
L 130.517035 300.249438 
L 130.990964 300.878652 
L 131.583374 301.507865 
L 132.175785 302.137079 
L 134.071499 303.710112 
L 134.663909 304.077154 
L 135.137838 304.39176 
L 139.403194 306.174532 
L 139.995605 306.279401 
L 140.706497 306.489139 
L 141.180426 306.541573 
L 141.298908 306.646442 
L 141.535872 306.646442 
L 142.009801 306.751311 
L 142.839176 306.85618 
L 143.313104 306.961049 
L 144.142479 307.065918 
L 144.497925 307.118352 
L 145.801229 307.223221 
L 146.156675 307.275655 
L 147.696942 307.380524 
L 148.052389 307.432959 
L 150.540513 307.537828 
L 150.777477 307.537828 
L 153.502566 307.642697 
L 153.73953 307.642697 
L 160.848458 307.747566 
L 161.085422 307.747566 
L 435.845455 307.8 
L 435.845455 307.8 
" clip-path="url(#pfe4e23a7a4)" style="fill: none; stroke: #000000; stroke-width: 1.5; stroke-linecap: square"/>
   </g>
   <g id="patch_3">
    <path d="M 63 320.4 
L 63 43.2 
" style="fill: none; stroke: #000000; stroke-width: 0.8; stroke-linejoin: miter; stroke-linecap: square"/>
   </g>
   <g id="patch_4">
    <path d="M 453.6 320.4 
L 453.6 43.2 
" style="fill: none; stroke: #000000; stroke-width: 0.8; stroke-linejoin: miter; stroke-linecap: square"/>
   </g>
   <g id="patch_5">
    <path d="M 63 320.4 
L 453.6 320.4 
" style="fill: none; stroke: #000000; stroke-width: 0.8; stroke-linejoin: miter; stroke-linecap: square"/>
   </g>
   <g id="patch_6">
    <path d="M 63 43.2 
L 453.6 43.2 
" style="fill: none; stroke: #000000; stroke-width: 0.8; stroke-linejoin: miter; stroke-linecap: square"/>
   </g>
  </g>
 </g>
 <defs>
  <clipPath id="pfe4e23a7a4">
   <rect x="63" y="43.2" width="390.6" height="277.2"/>
  </clipPath>
 </defs>
</svg>
