<?xml version="1.0" encoding="utf-8" standalone="no"?>
<!DOCTYPE svg PUBLIC "-//W3C//DTD SVG 1.1//EN"
  "http://www.w3.org/Graphics/SVG/1.1/DTD/svg11.dtd">
<svg xmlns:xlink="http://www.w3.org/1999/xlink" width="504pt" height="360pt" viewBox="0 0 504 360" xmlns="http://www.w3.org/2000/svg" version="1.1">
 <metadata>
  <rdf:RDF xmlns:dc="http://purl.org/dc/elements/1.1/" xmlns:cc="http://creativecommons.org/ns#" xmlns:rdf="http://www.w3.org/1999/02/22-rdf-syntax-ns#">
   <cc:Work>
    <dc:type rdf:resource="http://purl.org/dc/dcmitype/StillImage"/>
    <dc:date>2023-04-11T14:40:41.056222</dc:date>
    <dc:format>image/svg+xml</dc:format>
    <dc:creator>
     <cc:Agent>
      <dc:title>Matplotlib v3.7.0, https://matplotlib.org/</dc:title>
     </cc:Agent>
    </dc:creator>
   </cc:Work>
  </rdf:RDF>
 </metadata>
 <defs>
  <style type="text/css">*{stroke-linejoin: round; stroke-linecap: butt}</style>
 </defs>
 <g id="figure_1">
  <g id="patch_1">
   <path d="M 0 360 
L 504 360 
L 504 0 
L 0 0 
L 0 360 
z
" style="fill: none"/>
  </g>
  <g id="axes_1">
   <g id="patch_2">
    <path d="M 63 320.4 
L 453.6 320.4 
L 453.6 43.2 
L 63 43.2 
L 63 320.4 
z
" style="fill: none"/>
   </g>
   <g id="line2d_1">
    <path d="M 80.754545 300.199072 
L 81.109992 293.767517 
L 81.228474 293.182831 
L 82.176331 277.980974 
L 82.768741 265.117865 
L 83.124188 258.686311 
L 86.915616 182.092343 
L 87.508026 169.813921 
L 89.048294 137.656148 
L 89.759186 122.454292 
L 91.299454 93.80464 
L 91.536418 92.635267 
L 91.773382 90.29652 
L 92.010347 89.127146 
L 92.247311 87.373086 
L 92.484275 86.203712 
L 92.721239 84.449652 
L 92.839722 83.864965 
L 93.195168 80.941531 
L 93.31365 80.356845 
L 93.432132 79.187471 
L 93.550614 79.187471 
L 93.787578 77.433411 
L 93.906061 77.433411 
L 94.024543 76.264037 
L 94.143025 76.264037 
L 94.261507 75.094664 
L 94.379989 75.094664 
L 94.735435 73.340603 
L 94.853918 73.340603 
L 95.090882 72.17123 
L 95.209364 72.17123 
L 95.446328 71.001856 
L 95.56481 71.001856 
L 95.801775 69.832483 
L 96.038739 69.832483 
L 96.157221 68.663109 
L 96.275703 69.247796 
L 96.394185 68.078422 
L 96.631149 68.078422 
L 96.749631 67.493735 
L 96.868114 67.493735 
L 96.986596 66.909049 
L 97.105078 66.909049 
L 97.22356 66.324362 
L 97.342042 66.324362 
L 97.460524 65.739675 
L 97.697488 65.739675 
L 97.934453 64.570302 
L 98.171417 64.570302 
L 98.289899 63.985615 
L 98.526863 63.985615 
L 98.645345 63.400928 
L 98.88231 63.400928 
L 99.119274 62.231555 
L 99.237756 62.816241 
L 99.356238 62.231555 
L 99.47472 62.231555 
L 99.593202 61.646868 
L 99.830167 61.646868 
L 99.948649 61.062181 
L 100.067131 61.646868 
L 100.185613 60.477494 
L 100.304095 61.062181 
L 100.422577 60.477494 
L 100.659541 60.477494 
L 100.778023 59.892807 
L 100.896506 59.892807 
L 101.13347 58.723434 
L 101.370434 58.723434 
L 101.488916 58.138747 
L 101.962845 58.138747 
L 102.081327 57.55406 
L 102.792219 57.55406 
L 102.910702 56.969374 
L 103.029184 56.969374 
L 103.147666 56.384687 
L 103.266148 56.969374 
L 103.38463 56.969374 
L 103.503112 56.384687 
L 103.621594 56.969374 
L 103.740076 56.384687 
L 104.214005 56.384687 
L 104.332487 56.969374 
L 104.450969 56.384687 
L 104.687933 56.384687 
L 104.806416 55.8 
L 104.924898 56.384687 
L 106.465165 56.384687 
L 106.583647 55.8 
L 106.702129 56.384687 
L 107.057576 56.384687 
L 107.176058 56.969374 
L 107.29454 56.384687 
L 108.005433 56.384687 
L 108.123915 56.969374 
L 108.242397 56.384687 
L 108.360879 56.384687 
L 108.479361 56.969374 
L 108.597843 56.384687 
L 108.716325 56.384687 
L 108.834808 56.969374 
L 108.95329 56.384687 
L 109.071772 56.969374 
L 109.190254 56.384687 
L 109.308736 56.969374 
L 109.782664 62.231555 
L 111.441414 87.957773 
L 111.79686 93.80464 
L 111.915343 94.974014 
L 112.270789 100.820882 
L 112.389271 101.990255 
L 112.744717 107.837123 
L 113.100164 111.92993 
L 113.45561 117.192111 
L 114.403467 130.05522 
L 114.640431 132.393968 
L 114.877396 135.317401 
L 115.588288 144.67239 
L 115.70677 145.257077 
L 116.180699 151.103944 
L 116.773109 157.535499 
L 117.128556 161.628306 
L 119.61668 185.600464 
L 119.735162 186.185151 
L 119.972127 188.523898 
L 120.564537 193.786079 
L 120.683019 194.370766 
L 120.801502 196.124826 
L 120.919984 196.124826 
L 121.156948 198.463573 
L 121.27543 199.04826 
L 121.393912 200.80232 
L 121.512394 200.80232 
L 121.749358 203.141067 
L 121.867841 203.725754 
L 122.223287 206.649188 
L 122.341769 207.233875 
L 122.578733 209.572622 
L 122.697215 209.572622 
L 122.815698 211.326682 
L 122.93418 211.326682 
L 123.052662 213.080742 
L 123.171144 213.080742 
L 123.408108 215.41949 
L 123.52659 215.41949 
L 123.882037 218.342923 
L 124.119001 219.512297 
L 124.355965 221.266357 
L 124.592929 222.435731 
L 124.948376 225.359165 
L 125.066858 225.359165 
L 125.303822 227.113225 
L 125.540786 228.282599 
L 125.659268 229.451972 
L 125.77775 229.451972 
L 126.014715 231.206032 
L 126.251679 232.375406 
L 126.370161 233.54478 
L 126.488643 233.54478 
L 126.607125 234.714153 
L 126.725607 234.714153 
L 126.962572 236.468213 
L 127.081054 236.468213 
L 127.318018 238.222274 
L 128.621321 244.653828 
L 128.739803 244.653828 
L 128.976768 246.407889 
L 129.09525 246.407889 
L 129.213732 247.577262 
L 129.332214 247.577262 
L 129.924625 250.500696 
L 130.043107 250.500696 
L 130.161589 251.67007 
L 130.280071 251.67007 
L 130.635517 253.42413 
L 130.753999 253.42413 
L 130.872482 254.593503 
L 130.990964 254.593503 
L 131.227928 255.762877 
L 131.34641 255.762877 
L 131.820339 258.101624 
L 131.938821 258.101624 
L 132.175785 259.270998 
L 132.294267 259.270998 
L 132.412749 260.440371 
L 132.649713 260.440371 
L 132.768195 261.609745 
L 133.00516 261.609745 
L 133.123642 262.779118 
L 133.242124 262.779118 
L 133.360606 263.363805 
L 133.479088 263.363805 
L 133.716052 264.533179 
L 133.834535 264.533179 
L 134.071499 265.702552 
L 134.189981 265.702552 
L 134.426945 266.871926 
L 134.545427 266.871926 
L 134.663909 267.456613 
L 134.782391 267.456613 
L 135.019356 268.625986 
L 135.25632 268.625986 
L 135.374802 269.79536 
L 135.611766 269.79536 
L 135.848731 270.964733 
L 135.967213 270.964733 
L 136.085695 271.54942 
L 136.204177 271.54942 
L 136.322659 272.134107 
L 136.441141 272.134107 
L 136.559623 272.718794 
L 136.678105 272.718794 
L 136.796587 273.30348 
L 136.91507 273.30348 
L 137.152034 274.472854 
L 137.388998 274.472854 
L 137.625962 275.642227 
L 137.744444 275.057541 
L 137.862927 276.226914 
L 138.099891 276.226914 
L 138.218373 276.811601 
L 138.336855 276.811601 
L 138.455337 277.396288 
L 138.573819 277.396288 
L 138.692301 277.980974 
L 138.929266 277.980974 
L 139.16623 279.150348 
L 139.403194 279.150348 
L 139.521676 279.735035 
L 139.75864 279.735035 
L 139.995605 280.904408 
L 140.351051 280.904408 
L 140.588015 282.073782 
L 140.943462 282.073782 
L 141.180426 283.243155 
L 141.298908 282.658469 
L 141.535872 283.827842 
L 141.891319 283.827842 
L 142.009801 284.412529 
L 142.128283 284.412529 
L 142.246765 284.997216 
L 142.483729 284.997216 
L 142.602211 285.581903 
L 142.957658 285.581903 
L 143.194622 286.751276 
L 143.313104 286.166589 
L 143.431586 286.751276 
L 143.550068 286.751276 
L 143.66855 287.335963 
L 144.023997 287.335963 
L 144.142479 287.92065 
L 144.379443 287.92065 
L 144.497925 288.505336 
L 144.734889 288.505336 
L 144.853372 289.090023 
L 145.208818 289.090023 
L 145.3273 289.67471 
L 145.682746 289.67471 
L 145.801229 290.259397 
L 146.038193 290.259397 
L 146.156675 290.844084 
L 146.630603 290.844084 
L 146.749085 291.42877 
L 146.867568 291.42877 
L 146.98605 292.013457 
L 147.104532 291.42877 
L 147.223014 292.013457 
L 147.459978 292.013457 
L 147.57846 292.598144 
L 147.696942 292.013457 
L 147.815425 292.598144 
L 147.933907 292.598144 
L 148.052389 293.182831 
L 148.170871 292.598144 
L 148.289353 293.182831 
L 148.407835 293.182831 
L 148.526317 293.767517 
L 148.644799 293.182831 
L 148.763281 293.767517 
L 149.118728 293.767517 
L 149.23721 294.352204 
L 149.711138 294.352204 
L 149.829621 294.936891 
L 150.303549 294.936891 
L 150.422031 295.521578 
L 150.540513 294.936891 
L 150.658995 295.521578 
L 150.777477 295.521578 
L 150.89596 296.106265 
L 151.014442 295.521578 
L 151.132924 296.106265 
L 151.606852 296.106265 
L 151.725334 296.690951 
L 151.843817 296.106265 
L 151.962299 296.690951 
L 152.199263 296.690951 
L 152.317745 297.275638 
L 152.436227 296.690951 
L 152.554709 297.275638 
L 153.028638 297.275638 
L 153.14712 297.860325 
L 153.265602 297.860325 
L 153.384084 297.275638 
L 153.502566 297.860325 
L 153.621048 297.860325 
L 153.73953 298.445012 
L 153.858013 297.860325 
L 153.976495 298.445012 
L 154.094977 297.860325 
L 154.213459 298.445012 
L 154.568905 298.445012 
L 154.687387 299.029698 
L 154.80587 298.445012 
L 154.924352 299.029698 
L 155.516762 299.029698 
L 155.635244 299.614385 
L 155.753726 299.029698 
L 155.872209 299.614385 
L 156.464619 299.614385 
L 156.583101 300.199072 
L 156.701583 299.614385 
L 156.820066 300.199072 
L 157.412476 300.199072 
L 157.530958 300.783759 
L 157.64944 300.199072 
L 157.767922 300.783759 
L 157.886405 300.199072 
L 158.004887 300.783759 
L 158.360333 300.783759 
L 158.478815 301.368445 
L 158.597297 300.783759 
L 158.715779 300.783759 
L 158.834262 301.368445 
L 158.952744 300.783759 
L 159.071226 301.368445 
L 159.663636 301.368445 
L 159.782118 301.953132 
L 159.900601 301.368445 
L 160.019083 301.953132 
L 160.137565 301.368445 
L 160.256047 301.953132 
L 161.085422 301.953132 
L 161.203904 302.537819 
L 161.322386 301.953132 
L 161.440868 302.537819 
L 161.55935 301.953132 
L 161.677832 302.537819 
L 162.507207 302.537819 
L 162.625689 303.122506 
L 162.744171 302.537819 
L 162.862654 303.122506 
L 162.981136 302.537819 
L 163.099618 303.122506 
L 163.336582 303.122506 
L 163.455064 302.537819 
L 163.573546 303.122506 
L 163.810511 303.122506 
L 163.928993 303.707193 
L 164.047475 303.122506 
L 164.165957 303.122506 
L 164.284439 303.707193 
L 164.402921 303.122506 
L 164.521403 303.122506 
L 164.639885 303.707193 
L 164.758367 303.707193 
L 164.87685 303.122506 
L 164.995332 303.707193 
L 165.943189 303.707193 
L 166.061671 304.291879 
L 166.180153 303.707193 
L 166.298635 304.291879 
L 166.417117 303.707193 
L 166.535599 304.291879 
L 166.654081 303.707193 
L 166.772563 304.291879 
L 166.891046 304.291879 
L 167.009528 303.707193 
L 167.12801 304.291879 
L 167.957385 304.291879 
L 168.075867 304.876566 
L 168.194349 304.291879 
L 168.312831 304.291879 
L 168.431313 304.876566 
L 168.549795 304.291879 
L 168.668277 304.876566 
L 168.786759 304.291879 
L 168.905242 304.876566 
L 169.023724 304.291879 
L 169.142206 304.876566 
L 169.37917 304.876566 
L 169.497652 304.291879 
L 169.616134 304.876566 
L 170.327027 304.876566 
L 170.445509 305.461253 
L 170.563991 304.876566 
L 170.800956 304.876566 
L 170.919438 305.461253 
L 171.03792 304.876566 
L 171.156402 305.461253 
L 171.274884 304.876566 
L 171.393366 305.461253 
L 171.511848 304.876566 
L 171.63033 305.461253 
L 171.748812 304.876566 
L 171.867295 305.461253 
L 171.985777 305.461253 
L 172.104259 304.876566 
L 172.222741 305.461253 
L 173.644526 305.461253 
L 173.763008 306.04594 
L 173.881491 305.461253 
L 174.118455 305.461253 
L 174.236937 306.04594 
L 174.355419 305.461253 
L 174.473901 306.04594 
L 174.592383 305.461253 
L 174.710865 306.04594 
L 174.829348 305.461253 
L 174.94783 306.04594 
L 175.066312 305.461253 
L 175.184794 306.04594 
L 175.303276 306.04594 
L 175.421758 305.461253 
L 175.54024 306.04594 
L 175.658722 306.04594 
L 175.777204 305.461253 
L 175.895687 306.04594 
L 176.488097 306.04594 
L 176.606579 305.461253 
L 176.725061 306.04594 
L 176.843544 306.04594 
L 176.962026 306.630626 
L 177.080508 306.04594 
L 177.7914 306.04594 
L 177.909883 306.630626 
L 178.028365 306.04594 
L 178.146847 306.04594 
L 178.265329 306.630626 
L 178.383811 306.04594 
L 178.502293 306.04594 
L 178.620775 306.630626 
L 178.739257 306.04594 
L 178.85774 306.04594 
L 178.976222 306.630626 
L 179.094704 306.04594 
L 179.213186 306.630626 
L 179.331668 306.04594 
L 179.45015 306.630626 
L 179.568632 306.04594 
L 179.687114 306.630626 
L 179.805597 306.630626 
L 179.924079 306.04594 
L 180.042561 306.630626 
L 180.161043 306.630626 
L 180.279525 306.04594 
L 180.398007 306.630626 
L 180.516489 306.630626 
L 180.634971 306.04594 
L 180.753453 306.630626 
L 181.1089 306.630626 
L 181.227382 306.04594 
L 181.345864 306.630626 
L 183.241578 306.630626 
L 183.36006 307.215313 
L 183.478542 306.630626 
L 183.833989 306.630626 
L 183.952471 307.215313 
L 184.070953 306.630626 
L 184.307917 306.630626 
L 184.426399 307.215313 
L 184.544881 306.630626 
L 184.663363 306.630626 
L 184.781845 307.215313 
L 184.900328 306.630626 
L 185.01881 306.630626 
L 185.137292 307.215313 
L 185.255774 306.630626 
L 185.374256 307.215313 
L 185.492738 306.630626 
L 185.61122 307.215313 
L 185.729702 306.630626 
L 185.848185 306.630626 
L 185.966667 307.215313 
L 186.085149 306.630626 
L 186.203631 307.215313 
L 186.322113 307.215313 
L 186.440595 306.630626 
L 186.559077 307.215313 
L 186.677559 306.630626 
L 186.796041 307.215313 
L 186.914524 306.630626 
L 187.033006 307.215313 
L 187.151488 307.215313 
L 187.26997 306.630626 
L 187.388452 307.215313 
L 187.506934 306.630626 
L 187.625416 307.215313 
L 187.743898 307.215313 
L 187.862381 306.630626 
L 187.980863 307.215313 
L 188.217827 307.215313 
L 188.336309 306.630626 
L 188.454791 307.215313 
L 188.691755 307.215313 
L 188.810238 306.630626 
L 188.92872 307.215313 
L 189.284166 307.215313 
L 189.402648 306.630626 
L 189.52113 307.215313 
L 190.113541 307.215313 
L 190.232023 306.630626 
L 190.350505 307.215313 
L 192.83863 307.215313 
L 192.957112 307.8 
L 193.075594 307.215313 
L 193.786486 307.215313 
L 193.904969 307.8 
L 194.023451 307.215313 
L 194.497379 307.215313 
L 194.615861 307.8 
L 194.734343 307.215313 
L 194.971308 307.215313 
L 195.08979 307.8 
L 195.208272 307.215313 
L 195.445236 307.215313 
L 195.563718 307.8 
L 195.6822 307.215313 
L 195.919165 307.215313 
L 196.037647 307.8 
L 196.156129 307.215313 
L 196.274611 307.215313 
L 196.393093 307.8 
L 196.511575 307.215313 
L 196.748539 307.215313 
L 196.867022 307.8 
L 196.985504 307.215313 
L 197.103986 307.215313 
L 197.222468 307.8 
L 197.34095 307.215313 
L 197.459432 307.8 
L 197.577914 307.215313 
L 197.696396 307.215313 
L 197.814879 307.8 
L 197.933361 307.215313 
L 198.051843 307.215313 
L 198.170325 307.8 
L 198.288807 307.215313 
L 198.407289 307.8 
L 198.525771 307.215313 
L 198.644253 307.215313 
L 198.762735 307.8 
L 198.881218 307.215313 
L 198.9997 307.8 
L 199.118182 307.215313 
L 199.236664 307.8 
L 199.355146 307.215313 
L 199.473628 307.215313 
L 199.59211 307.8 
L 199.710592 307.215313 
L 199.829075 307.8 
L 199.947557 307.215313 
L 200.066039 307.8 
L 200.184521 307.215313 
L 200.303003 307.8 
L 200.421485 307.215313 
L 200.539967 307.8 
L 200.658449 307.215313 
L 200.776931 307.8 
L 200.895414 307.215313 
L 201.013896 307.8 
L 201.132378 307.215313 
L 201.25086 307.8 
L 201.369342 307.215313 
L 201.487824 307.8 
L 201.606306 307.215313 
L 201.724788 307.8 
L 201.843271 307.215313 
L 201.961753 307.8 
L 202.080235 307.215313 
L 202.198717 307.8 
L 202.317199 307.215313 
L 202.435681 307.8 
L 202.554163 307.8 
L 202.672645 307.215313 
L 202.791127 307.8 
L 202.90961 307.215313 
L 203.028092 307.8 
L 203.146574 307.215313 
L 203.265056 307.8 
L 203.383538 307.8 
L 203.50202 307.215313 
L 203.620502 307.8 
L 203.738984 307.215313 
L 203.857467 307.8 
L 203.975949 307.8 
L 204.094431 307.215313 
L 204.212913 307.8 
L 204.331395 307.215313 
L 204.449877 307.8 
L 204.568359 307.8 
L 204.686841 307.215313 
L 204.805324 307.8 
L 204.923806 307.8 
L 205.042288 307.215313 
L 205.16077 307.8 
L 205.279252 307.215313 
L 205.397734 307.8 
L 205.516216 307.8 
L 205.634698 307.215313 
L 205.75318 307.8 
L 205.871663 307.8 
L 205.990145 307.215313 
L 206.108627 307.8 
L 206.227109 307.8 
L 206.345591 307.215313 
L 206.464073 307.8 
L 206.582555 307.8 
L 206.701037 307.215313 
L 206.81952 307.8 
L 206.938002 307.8 
L 207.056484 307.215313 
L 207.174966 307.8 
L 207.293448 307.8 
L 207.41193 307.215313 
L 207.530412 307.8 
L 207.767376 307.8 
L 207.885859 307.215313 
L 208.004341 307.8 
L 208.122823 307.8 
L 208.241305 307.215313 
L 208.359787 307.8 
L 208.596751 307.8 
L 208.715233 307.215313 
L 208.833716 307.8 
L 208.952198 307.8 
L 209.07068 307.215313 
L 209.189162 307.8 
L 209.426126 307.8 
L 209.544608 307.215313 
L 209.66309 307.8 
L 209.900055 307.8 
L 210.018537 307.215313 
L 210.137019 307.8 
L 210.373983 307.8 
L 210.492465 307.215313 
L 210.610947 307.8 
L 210.847912 307.8 
L 210.966394 307.215313 
L 211.084876 307.8 
L 211.32184 307.8 
L 211.440322 307.215313 
L 211.558804 307.8 
L 211.914251 307.8 
L 212.032733 307.215313 
L 212.151215 307.8 
L 212.388179 307.8 
L 212.506661 307.215313 
L 212.625143 307.8 
L 212.98059 307.8 
L 213.099072 307.215313 
L 213.217554 307.8 
L 213.573 307.8 
L 213.691482 307.215313 
L 213.809965 307.8 
L 214.283893 307.8 
L 214.402375 307.215313 
L 214.520857 307.8 
L 214.876304 307.8 
L 214.994786 307.215313 
L 215.113268 307.8 
L 215.587196 307.8 
L 215.705678 307.215313 
L 215.824161 307.8 
L 216.298089 307.8 
L 216.416571 307.215313 
L 216.535053 307.8 
L 217.127464 307.8 
L 217.245946 307.215313 
L 217.364428 307.8 
L 217.956839 307.8 
L 218.075321 307.215313 
L 218.193803 307.8 
L 218.786213 307.8 
L 218.904696 307.215313 
L 219.023178 307.8 
L 219.73407 307.8 
L 219.852553 307.215313 
L 219.971035 307.8 
L 220.681927 307.8 
L 220.80041 307.215313 
L 220.918892 307.8 
L 221.866749 307.8 
L 221.985231 307.215313 
L 222.103713 307.8 
L 223.05157 307.8 
L 223.170052 307.215313 
L 223.288534 307.8 
L 224.236391 307.8 
L 224.354873 307.215313 
L 224.473355 307.8 
L 225.776658 307.8 
L 225.895141 307.215313 
L 226.013623 307.8 
L 227.316926 307.8 
L 227.435408 307.215313 
L 227.55389 307.8 
L 229.094158 307.8 
L 229.21264 307.215313 
L 229.331122 307.8 
L 231.226836 307.8 
L 231.345318 307.215313 
L 231.4638 307.8 
L 233.71496 307.8 
L 233.833443 307.215313 
L 233.951925 307.8 
L 236.795495 307.8 
L 236.913978 307.215313 
L 237.03246 307.8 
L 240.705405 307.8 
L 240.823888 307.215313 
L 240.94237 307.8 
L 246.274065 307.8 
L 246.392547 307.215313 
L 246.511029 307.8 
L 255.871117 307.8 
L 255.989599 307.215313 
L 256.108081 307.8 
L 435.845455 307.8 
L 435.845455 307.8 
" clip-path="url(#p2b8f3288b8)" style="fill: none; stroke: #000000; stroke-width: 1.5; stroke-linecap: square"/>
   </g>
   <g id="patch_3">
    <path d="M 63 320.4 
L 63 43.2 
" style="fill: none; stroke: #000000; stroke-width: 0.8; stroke-linejoin: miter; stroke-linecap: square"/>
   </g>
   <g id="patch_4">
    <path d="M 453.6 320.4 
L 453.6 43.2 
" style="fill: none; stroke: #000000; stroke-width: 0.8; stroke-linejoin: miter; stroke-linecap: square"/>
   </g>
   <g id="patch_5">
    <path d="M 63 320.4 
L 453.6 320.4 
" style="fill: none; stroke: #000000; stroke-width: 0.8; stroke-linejoin: miter; stroke-linecap: square"/>
   </g>
   <g id="patch_6">
    <path d="M 63 43.2 
L 453.6 43.2 
" style="fill: none; stroke: #000000; stroke-width: 0.8; stroke-linejoin: miter; stroke-linecap: square"/>
   </g>
  </g>
 </g>
 <defs>
  <clipPath id="p2b8f3288b8">
   <rect x="63" y="43.2" width="390.6" height="277.2"/>
  </clipPath>
 </defs>
</svg>
