<?xml version="1.0" encoding="utf-8" standalone="no"?>
<!DOCTYPE svg PUBLIC "-//W3C//DTD SVG 1.1//EN"
  "http://www.w3.org/Graphics/SVG/1.1/DTD/svg11.dtd">
<svg xmlns:xlink="http://www.w3.org/1999/xlink" width="504pt" height="360pt" viewBox="0 0 504 360" xmlns="http://www.w3.org/2000/svg" version="1.1">
 <metadata>
  <rdf:RDF xmlns:dc="http://purl.org/dc/elements/1.1/" xmlns:cc="http://creativecommons.org/ns#" xmlns:rdf="http://www.w3.org/1999/02/22-rdf-syntax-ns#">
   <cc:Work>
    <dc:type rdf:resource="http://purl.org/dc/dcmitype/StillImage"/>
    <dc:date>2023-04-11T15:04:22.790189</dc:date>
    <dc:format>image/svg+xml</dc:format>
    <dc:creator>
     <cc:Agent>
      <dc:title>Matplotlib v3.7.0, https://matplotlib.org/</dc:title>
     </cc:Agent>
    </dc:creator>
   </cc:Work>
  </rdf:RDF>
 </metadata>
 <defs>
  <style type="text/css">*{stroke-linejoin: round; stroke-linecap: butt}</style>
 </defs>
 <g id="figure_1">
  <g id="patch_1">
   <path d="M 0 360 
L 504 360 
L 504 0 
L 0 0 
L 0 360 
z
" style="fill: none"/>
  </g>
  <g id="axes_1">
   <g id="patch_2">
    <path d="M 63 320.4 
L 453.6 320.4 
L 453.6 43.2 
L 63 43.2 
L 63 320.4 
z
" style="fill: none"/>
   </g>
   <g id="matplotlib.axis_1">
    <g id="xtick_1">
     <g id="line2d_1">
      <defs>
       <path id="m69c9811e10" d="M 0 0 
L 0 3.5 
" style="stroke: #000000; stroke-width: 0.8"/>
      </defs>
      <g>
       <use xlink:href="#m69c9811e10" x="80.754545" y="320.4" style="stroke: #000000; stroke-width: 0.8"/>
      </g>
     </g>
     <g id="text_1">
      <text style="font: 10px 'DejaVu Sans', 'Bitstream Vera Sans', 'Computer Modern Sans Serif', 'Lucida Grande', 'Verdana', 'Geneva', 'Lucid', 'Arial', 'Helvetica', 'Avant Garde', sans-serif; text-anchor: middle" x="80.754545" y="334.998438" transform="rotate(-0 80.754545 334.998438)">0</text>
     </g>
    </g>
    <g id="xtick_2">
     <g id="line2d_2">
      <g>
       <use xlink:href="#m69c9811e10" x="139.995605" y="320.4" style="stroke: #000000; stroke-width: 0.8"/>
      </g>
     </g>
     <g id="text_2">
      <text style="font: 10px 'DejaVu Sans', 'Bitstream Vera Sans', 'Computer Modern Sans Serif', 'Lucida Grande', 'Verdana', 'Geneva', 'Lucid', 'Arial', 'Helvetica', 'Avant Garde', sans-serif; text-anchor: middle" x="139.995605" y="334.998438" transform="rotate(-0 139.995605 334.998438)">500</text>
     </g>
    </g>
    <g id="xtick_3">
     <g id="line2d_3">
      <g>
       <use xlink:href="#m69c9811e10" x="199.236664" y="320.4" style="stroke: #000000; stroke-width: 0.8"/>
      </g>
     </g>
     <g id="text_3">
      <text style="font: 10px 'DejaVu Sans', 'Bitstream Vera Sans', 'Computer Modern Sans Serif', 'Lucida Grande', 'Verdana', 'Geneva', 'Lucid', 'Arial', 'Helvetica', 'Avant Garde', sans-serif; text-anchor: middle" x="199.236664" y="334.998438" transform="rotate(-0 199.236664 334.998438)">1000</text>
     </g>
    </g>
    <g id="xtick_4">
     <g id="line2d_4">
      <g>
       <use xlink:href="#m69c9811e10" x="258.477723" y="320.4" style="stroke: #000000; stroke-width: 0.8"/>
      </g>
     </g>
     <g id="text_4">
      <text style="font: 10px 'DejaVu Sans', 'Bitstream Vera Sans', 'Computer Modern Sans Serif', 'Lucida Grande', 'Verdana', 'Geneva', 'Lucid', 'Arial', 'Helvetica', 'Avant Garde', sans-serif; text-anchor: middle" x="258.477723" y="334.998438" transform="rotate(-0 258.477723 334.998438)">1500</text>
     </g>
    </g>
    <g id="xtick_5">
     <g id="line2d_5">
      <g>
       <use xlink:href="#m69c9811e10" x="317.718782" y="320.4" style="stroke: #000000; stroke-width: 0.8"/>
      </g>
     </g>
     <g id="text_5">
      <text style="font: 10px 'DejaVu Sans', 'Bitstream Vera Sans', 'Computer Modern Sans Serif', 'Lucida Grande', 'Verdana', 'Geneva', 'Lucid', 'Arial', 'Helvetica', 'Avant Garde', sans-serif; text-anchor: middle" x="317.718782" y="334.998438" transform="rotate(-0 317.718782 334.998438)">2000</text>
     </g>
    </g>
    <g id="xtick_6">
     <g id="line2d_6">
      <g>
       <use xlink:href="#m69c9811e10" x="376.959842" y="320.4" style="stroke: #000000; stroke-width: 0.8"/>
      </g>
     </g>
     <g id="text_6">
      <text style="font: 10px 'DejaVu Sans', 'Bitstream Vera Sans', 'Computer Modern Sans Serif', 'Lucida Grande', 'Verdana', 'Geneva', 'Lucid', 'Arial', 'Helvetica', 'Avant Garde', sans-serif; text-anchor: middle" x="376.959842" y="334.998438" transform="rotate(-0 376.959842 334.998438)">2500</text>
     </g>
    </g>
    <g id="xtick_7">
     <g id="line2d_7">
      <g>
       <use xlink:href="#m69c9811e10" x="436.200901" y="320.4" style="stroke: #000000; stroke-width: 0.8"/>
      </g>
     </g>
     <g id="text_7">
      <text style="font: 10px 'DejaVu Sans', 'Bitstream Vera Sans', 'Computer Modern Sans Serif', 'Lucida Grande', 'Verdana', 'Geneva', 'Lucid', 'Arial', 'Helvetica', 'Avant Garde', sans-serif; text-anchor: middle" x="436.200901" y="334.998438" transform="rotate(-0 436.200901 334.998438)">3000</text>
     </g>
    </g>
   </g>
   <g id="matplotlib.axis_2">
    <g id="ytick_1">
     <g id="line2d_8">
      <defs>
       <path id="me0f053cc15" d="M 0 0 
L -3.5 0 
" style="stroke: #000000; stroke-width: 0.8"/>
      </defs>
      <g>
       <use xlink:href="#me0f053cc15" x="63" y="320.4" style="stroke: #000000; stroke-width: 0.8"/>
      </g>
     </g>
     <g id="text_8">
      <text style="font: 10px 'DejaVu Sans', 'Bitstream Vera Sans', 'Computer Modern Sans Serif', 'Lucida Grande', 'Verdana', 'Geneva', 'Lucid', 'Arial', 'Helvetica', 'Avant Garde', sans-serif; text-anchor: end" x="56" y="324.199219" transform="rotate(-0 56 324.199219)">0.0000</text>
     </g>
    </g>
    <g id="ytick_2">
     <g id="line2d_9">
      <g>
       <use xlink:href="#me0f053cc15" x="63" y="285.75" style="stroke: #000000; stroke-width: 0.8"/>
      </g>
     </g>
     <g id="text_9">
      <text style="font: 10px 'DejaVu Sans', 'Bitstream Vera Sans', 'Computer Modern Sans Serif', 'Lucida Grande', 'Verdana', 'Geneva', 'Lucid', 'Arial', 'Helvetica', 'Avant Garde', sans-serif; text-anchor: end" x="56" y="289.549219" transform="rotate(-0 56 289.549219)">0.0001</text>
     </g>
    </g>
    <g id="ytick_3">
     <g id="line2d_10">
      <g>
       <use xlink:href="#me0f053cc15" x="63" y="251.1" style="stroke: #000000; stroke-width: 0.8"/>
      </g>
     </g>
     <g id="text_10">
      <text style="font: 10px 'DejaVu Sans', 'Bitstream Vera Sans', 'Computer Modern Sans Serif', 'Lucida Grande', 'Verdana', 'Geneva', 'Lucid', 'Arial', 'Helvetica', 'Avant Garde', sans-serif; text-anchor: end" x="56" y="254.899219" transform="rotate(-0 56 254.899219)">0.0002</text>
     </g>
    </g>
    <g id="ytick_4">
     <g id="line2d_11">
      <g>
       <use xlink:href="#me0f053cc15" x="63" y="216.45" style="stroke: #000000; stroke-width: 0.8"/>
      </g>
     </g>
     <g id="text_11">
      <text style="font: 10px 'DejaVu Sans', 'Bitstream Vera Sans', 'Computer Modern Sans Serif', 'Lucida Grande', 'Verdana', 'Geneva', 'Lucid', 'Arial', 'Helvetica', 'Avant Garde', sans-serif; text-anchor: end" x="56" y="220.249219" transform="rotate(-0 56 220.249219)">0.0003</text>
     </g>
    </g>
    <g id="ytick_5">
     <g id="line2d_12">
      <g>
       <use xlink:href="#me0f053cc15" x="63" y="181.8" style="stroke: #000000; stroke-width: 0.8"/>
      </g>
     </g>
     <g id="text_12">
      <text style="font: 10px 'DejaVu Sans', 'Bitstream Vera Sans', 'Computer Modern Sans Serif', 'Lucida Grande', 'Verdana', 'Geneva', 'Lucid', 'Arial', 'Helvetica', 'Avant Garde', sans-serif; text-anchor: end" x="56" y="185.599219" transform="rotate(-0 56 185.599219)">0.0004</text>
     </g>
    </g>
    <g id="ytick_6">
     <g id="line2d_13">
      <g>
       <use xlink:href="#me0f053cc15" x="63" y="147.15" style="stroke: #000000; stroke-width: 0.8"/>
      </g>
     </g>
     <g id="text_13">
      <text style="font: 10px 'DejaVu Sans', 'Bitstream Vera Sans', 'Computer Modern Sans Serif', 'Lucida Grande', 'Verdana', 'Geneva', 'Lucid', 'Arial', 'Helvetica', 'Avant Garde', sans-serif; text-anchor: end" x="56" y="150.949219" transform="rotate(-0 56 150.949219)">0.0005</text>
     </g>
    </g>
    <g id="ytick_7">
     <g id="line2d_14">
      <g>
       <use xlink:href="#me0f053cc15" x="63" y="112.5" style="stroke: #000000; stroke-width: 0.8"/>
      </g>
     </g>
     <g id="text_14">
      <text style="font: 10px 'DejaVu Sans', 'Bitstream Vera Sans', 'Computer Modern Sans Serif', 'Lucida Grande', 'Verdana', 'Geneva', 'Lucid', 'Arial', 'Helvetica', 'Avant Garde', sans-serif; text-anchor: end" x="56" y="116.299219" transform="rotate(-0 56 116.299219)">0.0006</text>
     </g>
    </g>
    <g id="ytick_8">
     <g id="line2d_15">
      <g>
       <use xlink:href="#me0f053cc15" x="63" y="77.85" style="stroke: #000000; stroke-width: 0.8"/>
      </g>
     </g>
     <g id="text_15">
      <text style="font: 10px 'DejaVu Sans', 'Bitstream Vera Sans', 'Computer Modern Sans Serif', 'Lucida Grande', 'Verdana', 'Geneva', 'Lucid', 'Arial', 'Helvetica', 'Avant Garde', sans-serif; text-anchor: end" x="56" y="81.649219" transform="rotate(-0 56 81.649219)">0.0007</text>
     </g>
    </g>
    <g id="ytick_9">
     <g id="line2d_16">
      <g>
       <use xlink:href="#me0f053cc15" x="63" y="43.2" style="stroke: #000000; stroke-width: 0.8"/>
      </g>
     </g>
     <g id="text_16">
      <text style="font: 10px 'DejaVu Sans', 'Bitstream Vera Sans', 'Computer Modern Sans Serif', 'Lucida Grande', 'Verdana', 'Geneva', 'Lucid', 'Arial', 'Helvetica', 'Avant Garde', sans-serif; text-anchor: end" x="56" y="46.999219" transform="rotate(-0 56 46.999219)">0.0008</text>
     </g>
    </g>
   </g>
   <g id="line2d_17">
    <path d="M 80.754545 310.3515 
L 80.873028 318.6675 
L 81.820885 229.617 
L 82.057849 212.6385 
L 82.294813 203.283 
L 82.650259 177.642 
L 83.361152 105.57 
L 84.284013 -1 
M 109.374474 -1 
L 110.967486 34.191 
L 111.79686 50.4765 
L 112.981682 72.6525 
L 114.640431 100.3725 
L 114.995878 105.57 
L 117.36552 138.834 
L 120.564537 175.563 
L 120.683019 176.256 
L 121.038466 180.0675 
L 121.630876 185.958 
L 121.749358 186.651 
L 122.341769 192.5415 
L 124.119001 207.441 
L 124.355965 209.1735 
L 125.18534 215.757 
L 125.659268 218.8755 
L 126.133197 222.3405 
L 126.488643 224.4195 
L 126.725607 226.152 
L 127.081054 228.5775 
L 128.028911 234.468 
L 128.265875 235.854 
L 129.924625 245.556 
L 130.043107 245.556 
L 130.398553 247.9815 
L 130.635517 248.6745 
L 130.872482 250.0605 
L 130.990964 250.407 
L 131.227928 251.793 
L 131.34641 252.1395 
L 131.583374 253.5255 
L 131.701856 253.872 
L 132.175785 256.2975 
L 132.294267 256.644 
L 132.649713 258.3765 
L 132.768195 258.723 
L 133.00516 260.109 
L 133.123642 260.109 
L 133.479088 261.8415 
L 133.59757 262.188 
L 133.953017 263.9205 
L 134.071499 263.9205 
L 134.189981 264.96 
L 134.308463 264.96 
L 134.663909 266.6925 
L 134.782391 266.6925 
L 135.019356 268.0785 
L 135.137838 268.0785 
L 135.374802 269.118 
L 135.493284 269.4645 
L 135.611766 270.1575 
L 135.730248 270.1575 
L 135.967213 271.197 
L 136.085695 271.5435 
L 136.204177 272.2365 
L 136.322659 272.2365 
L 136.559623 273.276 
L 137.152034 275.0085 
L 137.270516 275.7015 
L 137.388998 275.7015 
L 137.625962 276.741 
L 137.744444 276.741 
L 137.981409 277.7805 
L 138.099891 277.7805 
L 138.336855 278.82 
L 138.455337 279.1665 
L 138.573819 279.1665 
L 138.810784 280.206 
L 138.929266 280.5525 
L 139.047748 280.5525 
L 139.16623 281.2455 
L 139.284712 281.2455 
L 139.403194 281.9385 
L 139.521676 281.9385 
L 139.75864 282.6315 
L 139.877123 283.3245 
L 139.995605 282.978 
L 140.232569 284.0175 
L 140.351051 284.364 
L 140.469533 284.364 
L 140.588015 284.7105 
L 140.706497 285.4035 
L 140.943462 285.4035 
L 141.180426 286.443 
L 141.298908 286.443 
L 141.654354 287.4825 
L 141.772836 287.4825 
L 142.246765 288.8685 
L 142.365247 288.8685 
L 142.720693 289.908 
L 142.839176 289.908 
L 143.07614 290.601 
L 143.194622 290.601 
L 143.550068 291.6405 
L 143.66855 291.6405 
L 143.905515 292.3335 
L 144.023997 292.3335 
L 144.142479 292.68 
L 144.260961 292.68 
L 144.379443 293.373 
L 144.616407 293.373 
L 144.971854 294.4125 
L 145.208818 294.4125 
L 145.3273 295.1055 
L 145.564264 295.1055 
L 145.801229 295.7985 
L 145.919711 295.7985 
L 146.156675 296.4915 
L 146.393639 296.4915 
L 146.512121 297.1845 
L 146.630603 296.838 
L 146.749085 297.531 
L 146.98605 297.531 
L 147.104532 297.8775 
L 147.223014 297.8775 
L 147.459978 298.5705 
L 147.696942 298.5705 
L 147.815425 299.2635 
L 147.933907 298.917 
L 148.170871 299.61 
L 148.289353 299.61 
L 148.407835 299.9565 
L 148.644799 299.9565 
L 148.881764 300.6495 
L 149.118728 300.6495 
L 149.355692 301.3425 
L 149.592656 301.3425 
L 149.711138 301.689 
L 149.829621 301.689 
L 149.948103 302.0355 
L 150.185067 302.0355 
L 150.422031 302.7285 
L 150.540513 302.382 
L 150.658995 303.075 
L 150.777477 302.7285 
L 151.014442 303.4215 
L 151.251406 303.4215 
L 151.369888 303.768 
L 151.48837 303.768 
L 151.606852 304.1145 
L 151.725334 303.768 
L 151.843817 304.461 
L 151.962299 304.1145 
L 152.199263 304.8075 
L 152.554709 304.8075 
L 152.791673 305.5005 
L 152.910156 305.154 
L 153.14712 305.847 
L 153.265602 305.5005 
L 153.502566 306.1935 
L 153.621048 305.847 
L 153.73953 306.54 
L 153.858013 306.1935 
L 153.976495 306.54 
L 154.213459 306.54 
L 154.331941 306.8865 
L 154.568905 306.8865 
L 154.687387 307.233 
L 154.924352 307.233 
L 155.042834 307.5795 
L 155.279798 307.5795 
L 155.39828 307.926 
L 155.753726 307.926 
L 155.872209 308.2725 
L 156.109173 308.2725 
L 156.227655 308.619 
L 156.583101 308.619 
L 156.701583 308.9655 
L 156.938548 308.9655 
L 157.05703 309.312 
L 157.412476 309.312 
L 157.530958 309.6585 
L 157.886405 309.6585 
L 158.004887 310.005 
L 158.123369 309.6585 
L 158.241851 310.3515 
L 158.360333 310.005 
L 158.478815 310.005 
L 158.597297 310.3515 
L 158.715779 310.3515 
L 158.834262 310.698 
L 158.952744 310.3515 
L 159.071226 310.698 
L 159.30819 310.698 
L 159.426672 311.0445 
L 159.545154 311.0445 
L 159.663636 310.698 
L 159.782118 311.391 
L 159.900601 311.0445 
L 160.019083 311.391 
L 160.137565 311.0445 
L 160.374529 311.7375 
L 160.493011 311.391 
L 160.611493 311.7375 
L 161.085422 311.7375 
L 161.203904 312.084 
L 161.55935 312.084 
L 161.677832 312.4305 
L 161.796314 312.084 
L 161.914797 312.4305 
L 162.033279 312.4305 
L 162.151761 312.777 
L 162.270243 312.4305 
L 162.388725 312.777 
L 162.507207 312.4305 
L 162.744171 313.1235 
L 162.862654 312.777 
L 162.981136 312.777 
L 163.099618 313.1235 
L 163.455064 313.1235 
L 163.573546 313.47 
L 163.692028 313.1235 
L 163.810511 313.47 
L 164.284439 313.47 
L 164.402921 313.8165 
L 164.521403 313.8165 
L 164.639885 313.47 
L 164.87685 314.163 
L 164.995332 313.8165 
L 165.113814 313.8165 
L 165.232296 314.163 
L 165.824707 314.163 
L 165.943189 314.5095 
L 166.061671 314.163 
L 166.180153 314.5095 
L 166.417117 314.5095 
L 166.535599 314.856 
L 166.654081 314.5095 
L 166.772563 314.5095 
L 166.891046 314.856 
L 167.483456 314.856 
L 167.601938 315.2025 
L 167.72042 314.856 
L 167.838903 315.2025 
L 167.957385 315.2025 
L 168.075867 314.856 
L 168.312831 315.549 
L 168.431313 315.2025 
L 168.549795 315.2025 
L 168.668277 315.549 
L 168.786759 315.549 
L 168.905242 315.2025 
L 169.023724 315.549 
L 169.37917 315.549 
L 169.497652 315.8955 
L 169.616134 315.549 
L 169.734616 315.8955 
L 169.853099 315.549 
L 169.971581 315.8955 
L 170.445509 315.8955 
L 170.563991 316.242 
L 170.682473 315.8955 
L 170.800956 316.242 
L 170.919438 315.8955 
L 171.03792 316.242 
L 171.748812 316.242 
L 171.867295 316.5885 
L 171.985777 316.242 
L 172.104259 316.5885 
L 172.222741 316.5885 
L 172.341223 316.242 
L 172.459705 316.5885 
L 172.815152 316.5885 
L 172.933634 316.935 
L 173.052116 316.5885 
L 173.170598 316.5885 
L 173.28908 316.935 
L 173.407562 316.935 
L 173.526044 316.5885 
L 173.644526 316.935 
L 174.473901 316.935 
L 174.592383 317.2815 
L 174.710865 316.935 
L 174.829348 317.2815 
L 174.94783 317.2815 
L 175.066312 316.935 
L 175.184794 317.2815 
L 175.895687 317.2815 
L 176.014169 317.628 
L 176.132651 317.2815 
L 176.251133 317.2815 
L 176.369615 317.628 
L 176.488097 317.628 
L 176.606579 317.2815 
L 176.725061 317.628 
L 177.080508 317.628 
L 177.19899 317.2815 
L 177.317472 317.9745 
L 177.435954 317.628 
L 177.7914 317.628 
L 177.909883 317.9745 
L 178.028365 317.628 
L 178.146847 317.9745 
L 178.265329 317.628 
L 178.383811 317.9745 
L 178.502293 317.9745 
L 178.620775 317.628 
L 178.739257 317.9745 
L 179.568632 317.9745 
L 179.687114 318.321 
L 179.805597 317.9745 
L 179.924079 317.9745 
L 180.042561 318.321 
L 180.161043 317.9745 
L 180.279525 318.321 
L 180.398007 317.9745 
L 180.516489 318.321 
L 180.634971 318.321 
L 180.753453 317.9745 
L 180.871936 318.321 
L 181.938275 318.321 
L 182.056757 318.6675 
L 182.175239 318.321 
L 182.293721 318.321 
L 182.412203 318.6675 
L 182.530685 318.321 
L 182.649167 318.6675 
L 182.767649 318.321 
L 182.886132 318.6675 
L 183.004614 318.321 
L 183.123096 318.6675 
L 183.36006 318.6675 
L 183.478542 318.321 
L 183.597024 318.6675 
L 184.426399 318.6675 
L 184.544881 319.014 
L 184.663363 318.6675 
L 184.900328 318.6675 
L 185.01881 319.014 
L 185.137292 318.6675 
L 185.255774 318.6675 
L 185.374256 319.014 
L 185.492738 318.6675 
L 185.61122 319.014 
L 185.729702 318.6675 
L 185.848185 319.014 
L 185.966667 319.014 
L 186.085149 318.6675 
L 186.203631 319.014 
L 186.322113 319.014 
L 186.440595 318.6675 
L 186.559077 319.014 
L 187.980863 319.014 
L 188.099345 319.3605 
L 188.217827 319.014 
L 188.336309 319.014 
L 188.454791 319.3605 
L 188.573273 319.014 
L 188.691755 319.014 
L 188.810238 319.3605 
L 188.92872 319.014 
L 189.047202 319.3605 
L 189.165684 319.014 
L 189.284166 319.3605 
L 189.402648 319.014 
L 189.52113 319.3605 
L 189.639612 319.014 
L 189.758094 319.3605 
L 189.876577 319.3605 
L 189.995059 319.014 
L 190.113541 319.3605 
L 190.232023 319.3605 
L 190.350505 319.014 
L 190.468987 319.3605 
L 192.364701 319.3605 
L 192.483183 319.707 
L 192.601665 319.3605 
L 192.83863 319.3605 
L 192.957112 319.707 
L 193.075594 319.3605 
L 193.194076 319.3605 
L 193.312558 319.707 
L 193.43104 319.3605 
L 193.549522 319.3605 
L 193.668004 319.707 
L 193.786486 319.3605 
L 193.904969 319.707 
L 194.023451 319.3605 
L 194.141933 319.707 
L 194.260415 319.3605 
L 194.378897 319.707 
L 194.497379 319.3605 
L 194.615861 319.707 
L 194.734343 319.707 
L 194.852826 319.3605 
L 194.971308 319.707 
L 195.08979 319.707 
L 195.208272 319.3605 
L 195.326754 319.707 
L 195.445236 319.707 
L 195.563718 319.3605 
L 195.6822 319.707 
L 196.037647 319.707 
L 196.156129 319.3605 
L 196.274611 319.707 
L 198.525771 319.707 
L 198.644253 320.0535 
L 198.762735 319.707 
L 199.118182 319.707 
L 199.236664 320.0535 
L 199.355146 319.707 
L 199.473628 319.707 
L 199.59211 320.0535 
L 199.710592 319.707 
L 199.947557 319.707 
L 200.066039 320.0535 
L 200.184521 319.707 
L 200.303003 320.0535 
L 200.421485 319.707 
L 200.539967 319.707 
L 200.658449 320.0535 
L 200.776931 319.707 
L 200.895414 320.0535 
L 201.013896 319.707 
L 201.132378 319.707 
L 201.25086 320.0535 
L 201.369342 319.707 
L 201.487824 320.0535 
L 201.606306 319.707 
L 201.724788 320.0535 
L 201.843271 319.707 
L 201.961753 320.0535 
L 202.080235 320.0535 
L 202.198717 319.707 
L 202.317199 320.0535 
L 202.435681 319.707 
L 202.554163 320.0535 
L 202.672645 319.707 
L 202.791127 320.0535 
L 202.90961 320.0535 
L 203.028092 319.707 
L 203.146574 320.0535 
L 203.265056 320.0535 
L 203.383538 319.707 
L 203.50202 320.0535 
L 203.620502 320.0535 
L 203.738984 319.707 
L 203.857467 320.0535 
L 204.094431 320.0535 
L 204.212913 319.707 
L 204.331395 320.0535 
L 204.686841 320.0535 
L 204.805324 319.707 
L 204.923806 320.0535 
L 205.279252 320.0535 
L 205.397734 319.707 
L 205.516216 320.0535 
L 206.464073 320.0535 
L 206.582555 319.707 
L 206.701037 320.0535 
L 208.241305 320.0535 
L 208.359787 320.4 
L 208.478269 320.0535 
L 209.544608 320.0535 
L 209.66309 320.4 
L 209.781572 320.0535 
L 210.255501 320.0535 
L 210.373983 320.4 
L 210.492465 320.0535 
L 210.847912 320.0535 
L 210.966394 320.4 
L 211.084876 320.0535 
L 211.32184 320.0535 
L 211.440322 320.4 
L 211.558804 320.0535 
L 211.795768 320.0535 
L 211.914251 320.4 
L 212.032733 320.0535 
L 212.269697 320.0535 
L 212.388179 320.4 
L 212.506661 320.0535 
L 212.625143 320.0535 
L 212.743625 320.4 
L 212.862108 320.0535 
L 213.099072 320.0535 
L 213.217554 320.4 
L 213.336036 320.0535 
L 213.454518 320.0535 
L 213.573 320.4 
L 213.691482 320.0535 
L 213.809965 320.0535 
L 213.928447 320.4 
L 214.046929 320.0535 
L 214.165411 320.4 
L 214.283893 320.0535 
L 214.402375 320.0535 
L 214.520857 320.4 
L 214.639339 320.0535 
L 214.757821 320.0535 
L 214.876304 320.4 
L 214.994786 320.0535 
L 215.113268 320.4 
L 215.23175 320.0535 
L 215.350232 320.4 
L 215.468714 320.0535 
L 215.587196 320.0535 
L 215.705678 320.4 
L 215.824161 320.0535 
L 215.942643 320.4 
L 216.061125 320.0535 
L 216.179607 320.4 
L 216.298089 320.0535 
L 216.416571 320.0535 
L 216.535053 320.4 
L 216.653535 320.0535 
L 216.772017 320.4 
L 216.8905 320.0535 
L 217.008982 320.4 
L 217.127464 320.0535 
L 217.245946 320.4 
L 217.364428 320.0535 
L 217.48291 320.4 
L 217.601392 320.0535 
L 217.719874 320.4 
L 217.838357 320.0535 
L 217.956839 320.4 
L 218.075321 320.0535 
L 218.193803 320.4 
L 218.312285 320.0535 
L 218.430767 320.4 
L 218.549249 320.0535 
L 218.667731 320.4 
L 218.786213 320.0535 
L 218.904696 320.4 
L 219.023178 320.4 
L 219.14166 320.0535 
L 219.260142 320.4 
L 219.378624 320.0535 
L 219.497106 320.4 
L 219.615588 320.0535 
L 219.73407 320.4 
L 219.852553 320.0535 
L 219.971035 320.4 
L 220.089517 320.4 
L 220.207999 320.0535 
L 220.326481 320.4 
L 220.444963 320.0535 
L 220.563445 320.4 
L 220.681927 320.4 
L 220.80041 320.0535 
L 220.918892 320.4 
L 221.037374 320.0535 
L 221.155856 320.4 
L 221.274338 320.4 
L 221.39282 320.0535 
L 221.511302 320.4 
L 221.629784 320.0535 
L 221.748266 320.4 
L 221.866749 320.4 
L 221.985231 320.0535 
L 222.103713 320.4 
L 222.222195 320.4 
L 222.340677 320.0535 
L 222.459159 320.4 
L 222.577641 320.0535 
L 222.696123 320.4 
L 222.814606 320.4 
L 222.933088 320.0535 
L 223.05157 320.4 
L 223.170052 320.4 
L 223.288534 320.0535 
L 223.407016 320.4 
L 223.525498 320.4 
L 223.64398 320.0535 
L 223.762462 320.4 
L 223.880945 320.4 
L 223.999427 320.0535 
L 224.117909 320.4 
L 224.236391 320.4 
L 224.354873 320.0535 
L 224.473355 320.4 
L 224.591837 320.4 
L 224.710319 320.0535 
L 224.828802 320.4 
L 225.065766 320.4 
L 225.184248 320.0535 
L 225.30273 320.4 
L 225.421212 320.4 
L 225.539694 320.0535 
L 225.658176 320.4 
L 225.895141 320.4 
L 226.013623 320.0535 
L 226.132105 320.4 
L 226.250587 320.4 
L 226.369069 320.0535 
L 226.487551 320.4 
L 226.724515 320.4 
L 226.842998 320.0535 
L 226.96148 320.4 
L 227.198444 320.4 
L 227.316926 320.0535 
L 227.435408 320.4 
L 227.672372 320.4 
L 227.790854 320.0535 
L 227.909337 320.4 
L 228.146301 320.4 
L 228.264783 320.0535 
L 228.383265 320.4 
L 228.620229 320.4 
L 228.738711 320.0535 
L 228.857194 320.4 
L 229.094158 320.4 
L 229.21264 320.0535 
L 229.331122 320.4 
L 229.686568 320.4 
L 229.805051 320.0535 
L 229.923533 320.4 
L 230.160497 320.4 
L 230.278979 320.0535 
L 230.397461 320.4 
L 230.752907 320.4 
L 230.87139 320.0535 
L 230.989872 320.4 
L 231.345318 320.4 
L 231.4638 320.0535 
L 231.582282 320.4 
L 231.937729 320.4 
L 232.056211 320.0535 
L 232.174693 320.4 
L 232.648621 320.4 
L 232.767103 320.0535 
L 232.885586 320.4 
L 233.241032 320.4 
L 233.359514 320.0535 
L 233.477996 320.4 
L 233.951925 320.4 
L 234.070407 320.0535 
L 234.188889 320.4 
L 234.662817 320.4 
L 234.781299 320.0535 
L 234.899782 320.4 
L 235.492192 320.4 
L 235.610674 320.0535 
L 235.729156 320.4 
L 236.321567 320.4 
L 236.440049 320.0535 
L 236.558531 320.4 
L 237.150942 320.4 
L 237.269424 320.0535 
L 237.387906 320.4 
L 238.098799 320.4 
L 238.217281 320.0535 
L 238.335763 320.4 
L 239.165138 320.4 
L 239.28362 320.0535 
L 239.402102 320.4 
L 240.112995 320.4 
L 240.231477 320.0535 
L 240.349959 320.4 
L 241.297816 320.4 
L 241.416298 320.0535 
L 241.53478 320.4 
L 242.482637 320.4 
L 242.601119 320.0535 
L 242.719601 320.4 
L 243.904423 320.4 
L 244.022905 320.0535 
L 244.141387 320.4 
L 245.326208 320.4 
L 245.44469 320.0535 
L 245.563172 320.4 
L 246.984958 320.4 
L 247.10344 320.0535 
L 247.221922 320.4 
L 248.880672 320.4 
L 248.999154 320.0535 
L 249.117636 320.4 
L 251.01335 320.4 
L 251.131832 320.0535 
L 251.250314 320.4 
L 253.382992 320.4 
L 253.501474 320.0535 
L 253.619956 320.4 
L 256.345045 320.4 
L 256.463527 320.0535 
L 256.582009 320.4 
L 260.017991 320.4 
L 260.136473 320.0535 
L 260.254955 320.4 
L 264.875758 320.4 
L 264.99424 320.0535 
L 265.112722 320.4 
L 272.221649 320.4 
L 272.340131 320.0535 
L 272.458613 320.4 
L 286.676467 320.4 
L 286.794949 320.0535 
L 286.913432 320.4 
L 435.845455 320.4 
L 435.845455 320.4 
" clip-path="url(#p84b7a3cd14)" style="fill: none; stroke: #000000; stroke-width: 1.5; stroke-linecap: square"/>
   </g>
   <g id="line2d_18">
    <path clip-path="url(#p84b7a3cd14)" style="fill: none; stroke: #ff0000; stroke-width: 1.5; stroke-linecap: square"/>
   </g>
   <g id="patch_3">
    <path d="M 63 320.4 
L 63 43.2 
" style="fill: none; stroke: #000000; stroke-width: 0.8; stroke-linejoin: miter; stroke-linecap: square"/>
   </g>
   <g id="patch_4">
    <path d="M 453.6 320.4 
L 453.6 43.2 
" style="fill: none; stroke: #000000; stroke-width: 0.8; stroke-linejoin: miter; stroke-linecap: square"/>
   </g>
   <g id="patch_5">
    <path d="M 63 320.4 
L 453.6 320.4 
" style="fill: none; stroke: #000000; stroke-width: 0.8; stroke-linejoin: miter; stroke-linecap: square"/>
   </g>
   <g id="patch_6">
    <path d="M 63 43.2 
L 453.6 43.2 
" style="fill: none; stroke: #000000; stroke-width: 0.8; stroke-linejoin: miter; stroke-linecap: square"/>
   </g>
  </g>
 </g>
 <defs>
  <clipPath id="p84b7a3cd14">
   <rect x="63" y="43.2" width="390.6" height="277.2"/>
  </clipPath>
 </defs>
</svg>
